{
classes = (
{
code = "a a_x aacute b_s c d e e_x eacute fi fl f_u g h i ij i_x iacute j k l m n o o_s oacute oacute_s s t u u_x uacute x y";
name = having_finals;
},
{
code = "a b c d e f g h i j k l m n o p q r s t u v w x y z scaron oe zcaron mu agrave aacute acircumflex atilde adieresis aring ae ccedilla egrave eacute ecircumflex edieresis igrave iacute icircumflex idieresis eth ntilde ograve oacute ocircumflex otilde odieresis oslash ugrave uacute ucircumflex udieresis yacute thorn ydieresis a.end a_x a_x.end a_z aacute.end aogonek b_s b_s.end b_s_x b_s_z c.end c_x c_z cacute ccaron ccircumflex d.end dotlessi dotlessi.end e.end e_x e_x.end e_z eacute.end eacute_x eogonek ff ffi ffl f_f_t fi fi.end f_i_x f_i_z fl fl.end f_l_x f_l_z f_t f_u f_u.end f_x g.end g_p g_x g_z h.end i.end ij ij.end i_x i_x.end i_z iacute.end iacute_x iacute_z j.end j_x j_z k.end k.salt l.end l_x l_z lslash m.end m_x m_z n.end n_z nacute o.end o_ae o_s o_s.end o_s_x o_s_z o_x oacute.end oacute_s oacute_s.end oacute_s_x oacute_s_z oacute_x p.salt r_x r_z s.end s_x s_z sacute t.end t_x t_z u.end u_v u_x u_x.end uacute.end x.end y.end y_p y_x y_z zacute zdotaccent";
name = todas;
},
{
code = "a.end a_x.end aacute.end b_s.end c.end d.end e.end e_x.end eacute.end fi.end fl.end f_u.end g.end h.end i.end ij.end i_x.end iacute.end j.end k.end l.end m.end n.end o.end o_s.end oacute.end oacute_s.end s.end t.end u.end u_x.end uacute.end x.end y.end";
name = finals;
},
{

glyphs = (
{
glyphname = A;
lastChange = "2016-04-09 11:26:51 +0000";
layers = (
{
hints = (
{
place = "{84.000000, 120.000000}";
},
{
place = "{9.000000, 118.000000}";
},
{
horizontal = 1;
place = "{0.000000, 21.000000}";
target = up;
type = BottomGhost;
},
{
horizontal = 1;
place = "{399.000000, 59.000000}";
}
);
layerId = UUID0;
name = Regular;
paths = (
{
closed = 1;
nodes = (
"535 0 LINE",
"692 736 LINE",
"668 747 OFFCURVE",
"636 750 OFFCURVE",
"613 750 CURVE SMOOTH",
"496 750 OFFCURVE",
"366 615 OFFCURVE",
"265 455 CURVE",
"244 457 OFFCURVE",
"226 458 OFFCURVE",
"213 458 CURVE SMOOTH",
"96 458 OFFCURVE",
"9 403 OFFCURVE",
"9 335 CURVE SMOOTH",
"9 296 OFFCURVE",
"36 277 OFFCURVE",
"71 277 CURVE SMOOTH",
"102 277 OFFCURVE",
"127 292 OFFCURVE",
"127 316 CURVE SMOOTH",
"127 331 OFFCURVE",
"119 347 OFFCURVE",
"114 347 CURVE",
"127 382 OFFCURVE",
"168 395 OFFCURVE",
"231 399 CURVE",
"143 246 OFFCURVE",
"84 81 OFFCURVE",
"84 -8 CURVE SMOOTH",
"84 -112 OFFCURVE",
"165 -114 OFFCURVE",
"218 -114 CURVE",
"211 -105 OFFCURVE",
"204 -90 OFFCURVE",
"204 -58 CURVE SMOOTH",
"204 46 OFFCURVE",
"259 236 OFFCURVE",
"334 399 CURVE",
"378 395 OFFCURVE",
"417 386 OFFCURVE",
"468 363 CURVE",
"391 0 LINE"
);
},
{
closed = 1;
nodes = (
"477 407 LINE",
"438 423 OFFCURVE",
"395 434 OFFCURVE",
"355 442 CURVE",
"411 554 OFFCURVE",
"475 647 OFFCURVE",
"535 679 CURVE"
);
}
);
width = 668;
}
);
unicode = 0041;
},
{
glyphname = A.salt;
lastChange = "2016-04-09 11:26:51 +0000";
layers = (
{
hints = (
{
place = "{8.000000, 120.000000}";
},
{
horizontal = 1;
place = "{0.000000, 21.000000}";
target = up;
type = BottomGhost;
},
{
horizontal = 1;
place = "{366.000000, 52.000000}";
},
{
horizontal = 1;
place = "{682.000000, 69.000000}";
}
);
layerId = UUID0;
name = Regular;
paths = (
{
closed = 1;
nodes = (
"459 0 LINE",
"616 736 LINE",
"615 736 LINE",
"616 737 LINE",
"592 746 OFFCURVE",
"560 751 OFFCURVE",
"536 751 CURVE SMOOTH",
"298 751 OFFCURVE",
"8 188 OFFCURVE",
"8 -1 CURVE SMOOTH",
"8 -107 OFFCURVE",
"73 -110 OFFCURVE",
"142 -113 CURVE",
"142 -105 OFFCURVE",
"128 -108 OFFCURVE",
"128 -57 CURVE SMOOTH",
"128 39 OFFCURVE",
"170 212 OFFCURVE",
"234 366 CURVE",
"392 366 LINE",
"315 0 LINE"
);
},
{
closed = 1;
nodes = (
"403 418 LINE",
"256 418 LINE",
"315 544 OFFCURVE",
"386 650 OFFCURVE",
"459 682 CURVE"
);
}
);
width = 590;
}
);
},
{
glyphname = AE;
lastChange = "2016-04-09 11:26:51 +0000";
layers = (
{
hints = (
{
place = "{84.000000, 120.000000}";
},
{
place = "{9.000000, 118.000000}";
},
{
horizontal = 1;
place = "{0.000000, 106.000000}";
},
{
horizontal = 1;
place = "{345.000000, 74.000000}";
},
{
horizontal = 1;
place = "{640.000000, 91.000000}";
},
{
horizontal = 1;
place = "{399.000000, 56.000000}";
}
);
layerId = UUID0;
name = Regular;
paths = (
{
closed = 1;
nodes = (
"760 0 LINE",
"781 106 LINE",
"557 106 LINE",
"608 345 LINE",
"759 345 LINE",
"779 419 LINE",
"624 419 LINE",
"678 672 LINE",
"717 657 OFFCURVE",
"751 640 OFFCURVE",
"802 640 CURVE SMOOTH",
"884 640 OFFCURVE",
"895 706 OFFCURVE",
"909 750 CURVE",
"865 735 OFFCURVE",
"827 731 OFFCURVE",
"792 731 CURVE SMOOTH",
"722 731 OFFCURVE",
"667 751 OFFCURVE",
"612 751 CURVE SMOOTH",
"494 751 OFFCURVE",
"364 614 OFFCURVE",
"263 452 CURVE",
"241 454 OFFCURVE",
"221 455 OFFCURVE",
"204 455 CURVE SMOOTH",
"101 455 OFFCURVE",
"9 401 OFFCURVE",
"9 340 CURVE SMOOTH",
"9 295 OFFCURVE",
"37 277 OFFCURVE",
"66 277 CURVE SMOOTH",
"109 277 OFFCURVE",
"127 295 OFFCURVE",
"127 316 CURVE SMOOTH",
"127 331 OFFCURVE",
"119 347 OFFCURVE",
"114 347 CURVE",
"129 383 OFFCURVE",
"171 395 OFFCURVE",
"231 399 CURVE",
"143 247 OFFCURVE",
"84 84 OFFCURVE",
"84 -1 CURVE SMOOTH",
"84 -107 OFFCURVE",
"149 -110 OFFCURVE",
"218 -113 CURVE",
"218 -105 OFFCURVE",
"204 -108 OFFCURVE",
"204 -57 CURVE SMOOTH",
"204 48 OFFCURVE",
"259 237 OFFCURVE",
"333 399 CURVE",
"376 396 OFFCURVE",
"417 386 OFFCURVE",
"468 363 CURVE",
"391 0 LINE"
);
},
{
closed = 1;
nodes = (
"477 407 LINE",
"438 422 OFFCURVE",
"396 433 OFFCURVE",
"353 441 CURVE",
"409 554 OFFCURVE",
"474 646 OFFCURVE",
"535 679 CURVE"
);
}
);
width = 764;
}
);
unicode = 00C6;
},
{
glyphname = B;
lastChange = "2016-04-09 11:26:51 +0000";
layers = (
{
hints = (
{
place = "{12.000000, 93.000000}";
},
{
place = "{487.000000, 101.000000}";
},
{
place = "{467.000000, 139.000000}";
},
{
horizontal = 1;
place = "{0.000000, 21.000000}";
target = up;
type = BottomGhost;
},
{
horizontal = 1;
place = "{386.000000, 48.000000}";
},
{
horizontal = 1;
place = "{704.000000, 46.000000}";
},
{
horizontal = 1;
place = "{0.000000, 79.000000}";
},
{
horizontal = 1;
place = "{-17.000000, 96.000000}";
}
);
layerId = UUID0;
name = Regular;
paths = (
{
closed = 1;
nodes = (
"244 0 LINE",
"326 383 LINE",
"345 386 OFFCURVE",
"364 386 OFFCURVE",
"372 386 CURVE SMOOTH",
"445 386 OFFCURVE",
"467 328 OFFCURVE",
"467 259 CURVE SMOOTH",
"467 183 OFFCURVE",
"441 79 OFFCURVE",
"368 79 CURVE SMOOTH",
"345 79 OFFCURVE",
"326 88 OFFCURVE",
"301 115 CURVE",
"292 93 OFFCURVE",
"288 74 OFFCURVE",
"288 57 CURVE SMOOTH",
"288 -4 OFFCURVE",
"344 -17 OFFCURVE",
"387 -17 CURVE SMOOTH",
"555 -17 OFFCURVE",
"606 175 OFFCURVE",
"606 271 CURVE SMOOTH",
"606 346 OFFCURVE",
"573 416 OFFCURVE",
"488 432 CURVE",
"553 469 OFFCURVE",
"588 531 OFFCURVE",
"588 591 CURVE SMOOTH",
"588 673 OFFCURVE",
"522 750 OFFCURVE",
"375 750 CURVE SMOOTH",
"186 750 OFFCURVE",
"12 623 OFFCURVE",
"12 485 CURVE SMOOTH",
"12 417 OFFCURVE",
"52 393 OFFCURVE",
"119 393 CURVE",
"119 401 OFFCURVE",
"105 410 OFFCURVE",
"105 461 CURVE SMOOTH",
"105 625 OFFCURVE",
"238 704 OFFCURVE",
"355 704 CURVE SMOOTH",
"450 704 OFFCURVE",
"487 652 OFFCURVE",
"487 596 CURVE SMOOTH",
"487 521 OFFCURVE",
"422 434 OFFCURVE",
"343 434 CURVE SMOOTH",
"337 434 LINE",
"384 656 LINE",
"236 636 LINE",
"100 0 LINE"
);
}
);
width = 641;
}
);
unicode = 0042;
},
{
glyphname = B.salt;
lastChange = "2016-04-09 11:26:51 +0000";
layers = (
{
hints = (
{
place = "{6.000000, 93.000000}";
},
{
place = "{479.000000, 105.000000}";
},
{
place = "{449.000000, 149.000000}";
},
{
horizontal = 1;
place = "{0.000000, 64.000000}";
},
{
horizontal = 1;
place = "{386.000000, 48.000000}";
},
{
horizontal = 1;
place = "{704.000000, 46.000000}";
},
{
horizontal = 1;
place = "{-28.000000, 92.000000}";
}
);
layerId = UUID0;
name = Regular;
paths = (
{
closed = 1;
nodes = (
"238 0 LINE",
"244 30 LINE",
"283 -11 OFFCURVE",
"324 -28 OFFCURVE",
"363 -28 CURVE SMOOTH",
"488 -28 OFFCURVE",
"598 147 OFFCURVE",
"598 283 CURVE SMOOTH",
"598 355 OFFCURVE",
"565 417 OFFCURVE",
"484 432 CURVE",
"548 471 OFFCURVE",
"584 530 OFFCURVE",
"584 589 CURVE SMOOTH",
"584 672 OFFCURVE",
"510 750 OFFCURVE",
"366 750 CURVE SMOOTH",
"183 750 OFFCURVE",
"6 624 OFFCURVE",
"6 485 CURVE SMOOTH",
"6 417 OFFCURVE",
"46 393 OFFCURVE",
"113 393 CURVE",
"113 401 OFFCURVE",
"99 410 OFFCURVE",
"99 461 CURVE SMOOTH",
"99 613 OFFCURVE",
"215 704 OFFCURVE",
"353 704 CURVE SMOOTH",
"454 704 OFFCURVE",
"479 655 OFFCURVE",
"479 602 CURVE SMOOTH",
"479 522 OFFCURVE",
"420 434 OFFCURVE",
"337 434 CURVE SMOOTH",
"331 434 LINE",
"378 656 LINE",
"230 636 LINE",
"94 0 LINE"
);
},
{
closed = 1;
nodes = (
"320 383 LINE",
"339 386 OFFCURVE",
"358 386 OFFCURVE",
"365 386 CURVE SMOOTH",
"428 386 OFFCURVE",
"449 337 OFFCURVE",
"449 280 CURVE SMOOTH",
"449 183 OFFCURVE",
"391 64 OFFCURVE",
"319 64 CURVE SMOOTH",
"299 64 OFFCURVE",
"278 72 OFFCURVE",
"258 93 CURVE"
);
}
);
width = 633;
}
);
},
{
glyphname = C;
lastChange = "2016-04-09 11:26:51 +0000";
layers = (
{
hints = (
{
place = "{19.000000, 166.000000}";
},
{
place = "{454.000000, 81.000000}";
},
{
horizontal = 1;
place = "{-16.000000, 96.000000}";
},
{
horizontal = 1;
place = "{703.000000, 47.000000}";
}
);
layerId = UUID0;
name = Regular;
paths = (
{
closed = 1;
nodes = (
"500 180 LINE",
"453 117 OFFCURVE",
"384 80 OFFCURVE",
"305 80 CURVE SMOOTH",
"208 80 OFFCURVE",
"185 144 OFFCURVE",
"185 236 CURVE SMOOTH",
"185 440 OFFCURVE",
"282 703 OFFCURVE",
"393 703 CURVE SMOOTH",
"438 703 OFFCURVE",
"454 674 OFFCURVE",
"454 642 CURVE SMOOTH",
"454 603 OFFCURVE",
"432 562 OFFCURVE",
"408 550 CURVE",
"427 527 OFFCURVE",
"449 524 OFFCURVE",
"465 524 CURVE SMOOTH",
"516 524 OFFCURVE",
"535 563 OFFCURVE",
"535 616 CURVE SMOOTH",
"535 712 OFFCURVE",
"461 750 OFFCURVE",
"368 750 CURVE SMOOTH",
"106 750 OFFCURVE",
"19 411 OFFCURVE",
"19 230 CURVE SMOOTH",
"19 50 OFFCURVE",
"90 -16 OFFCURVE",
"238 -16 CURVE SMOOTH",
"330 -16 OFFCURVE",
"469 36 OFFCURVE",
"523 170 CURVE"
);
}
);
width = 497;
}
);
unicode = 0043;
},
{
glyphname = D;
lastChange = "2016-04-09 11:26:51 +0000";
layers = (
{
hints = (
{
place = "{6.000000, 93.000000}";
},
{
place = "{507.000000, 138.000000}";
},
{
horizontal = 1;
place = "{0.000000, 75.000000}";
},
{
horizontal = 1;
place = "{704.000000, 46.000000}";
},
{
horizontal = 1;
place = "{-13.000000, 88.000000}";
}
);
layerId = UUID0;
name = Regular;
paths = (
{
closed = 1;
nodes = (
"238 0 LINE",
"246 40 LINE",
"289 3 OFFCURVE",
"329 -13 OFFCURVE",
"368 -13 CURVE SMOOTH",
"516 -13 OFFCURVE",
"645 233 OFFCURVE",
"645 462 CURVE SMOOTH",
"645 615 OFFCURVE",
"572 750 OFFCURVE",
"378 750 CURVE SMOOTH",
"175 750 OFFCURVE",
"6 623 OFFCURVE",
"6 486 CURVE SMOOTH",
"6 418 OFFCURVE",
"46 393 OFFCURVE",
"113 393 CURVE",
"113 401 OFFCURVE",
"99 410 OFFCURVE",
"99 461 CURVE SMOOTH",
"99 613 OFFCURVE",
"212 704 OFFCURVE",
"361 704 CURVE SMOOTH",
"448 704 OFFCURVE",
"507 651 OFFCURVE",
"507 515 CURVE SMOOTH",
"507 313 OFFCURVE",
"434 75 OFFCURVE",
"315 75 CURVE SMOOTH",
"295 75 OFFCURVE",
"276 82 OFFCURVE",
"258 95 CURVE",
"378 656 LINE",
"230 636 LINE",
"94 0 LINE"
);
}
);
width = 663;
}
);
unicode = 0044;
},
{
glyphname = E;
lastChange = "2016-04-09 11:26:51 +0000";
layers = (
{
hints = (
{
place = "{131.000000, 128.000000}";
},
{
place = "{416.000000, 77.000000}";
},
{
place = "{7.000000, 174.000000}";
},
{
horizontal = 1;
place = "{-18.000000, 96.000000}";
},
{
horizontal = 1;
place = "{693.000000, 59.000000}";
}
);
layerId = UUID0;
name = Regular;
paths = (
{
closed = 1;
nodes = (
"461 180 LINE",
"424 113 OFFCURVE",
"337 78 OFFCURVE",
"276 78 CURVE SMOOTH",
"208 78 OFFCURVE",
"181 123 OFFCURVE",
"181 179 CURVE SMOOTH",
"181 271 OFFCURVE",
"253 394 OFFCURVE",
"360 418 CURVE",
"288 437 OFFCURVE",
"259 493 OFFCURVE",
"259 552 CURVE SMOOTH",
"259 622 OFFCURVE",
"301 693 OFFCURVE",
"361 693 CURVE SMOOTH",
"388 693 OFFCURVE",
"416 678 OFFCURVE",
"416 637 CURVE SMOOTH",
"416 602 OFFCURVE",
"396 558 OFFCURVE",
"372 550 CURVE",
"385 532 OFFCURVE",
"401 523 OFFCURVE",
"419 523 CURVE SMOOTH",
"459 523 OFFCURVE",
"493 567 OFFCURVE",
"493 627 CURVE SMOOTH",
"493 709 OFFCURVE",
"430 752 OFFCURVE",
"350 752 CURVE SMOOTH",
"222 752 OFFCURVE",
"131 640 OFFCURVE",
"131 537 CURVE SMOOTH",
"131 492 OFFCURVE",
"149 448 OFFCURVE",
"192 417 CURVE",
"76 387 OFFCURVE",
"7 263 OFFCURVE",
"7 158 CURVE SMOOTH",
"7 65 OFFCURVE",
"62 -18 OFFCURVE",
"191 -18 CURVE SMOOTH",
"312 -18 OFFCURVE",
"431 53 OFFCURVE",
"484 170 CURVE"
);
}
);
width = 459;
}
);
unicode = 0045;
},
{
glyphname = E.salt;
lastChange = "2016-04-09 11:26:51 +0000";
layers = (
{
hints = (
{
place = "{9.000000, 93.000000}";
},
{
horizontal = 1;
place = "{0.000000, 101.000000}";
},
{
horizontal = 1;
place = "{345.000000, 74.000000}";
},
{
horizontal = 1;
place = "{668.000000, 82.000000}";
}
);
layerId = UUID0;
name = Regular;
paths = (
{
closed = 1;
nodes = (
"457 0 LINE",
"477 101 LINE",
"253 101 LINE",
"306 345 LINE",
"456 345 LINE",
"476 419 LINE",
"322 419 LINE",
"371 649 LINE",
"418 638 OFFCURVE",
"464 630 OFFCURVE",
"511 630 CURVE",
"588 646 OFFCURVE",
"593 709 OFFCURVE",
"606 750 CURVE",
"578 741 OFFCURVE",
"547 738 OFFCURVE",
"516 738 CURVE SMOOTH",
"452 738 OFFCURVE",
"390 750 OFFCURVE",
"350 750 CURVE SMOOTH",
"103 750 OFFCURVE",
"9 623 OFFCURVE",
"9 490 CURVE SMOOTH",
"9 418 OFFCURVE",
"47 393 OFFCURVE",
"116 393 CURVE",
"116 401 OFFCURVE",
"102 410 OFFCURVE",
"102 461 CURVE SMOOTH",
"102 621 OFFCURVE",
"155 665 OFFCURVE",
"232 668 CURVE",
"88 0 LINE"
);
}
);
width = 554;
}
);
},
{
glyphname = E_x;
lastChange = "2016-04-09 11:26:51 +0000";
layers = (
{
hints = (
{
place = "{131.000000, 128.000000}";
},
{
place = "{416.000000, 77.000000}";
},
{
place = "{723.000000, 59.000000}";
},
{
place = "{7.000000, 174.000000}";
},
{
horizontal = 1;
place = "{-6.000000, 97.000000}";
},
{
horizontal = 1;
place = "{453.000000, 103.000000}";
},
{
horizontal = 1;
place = "{693.000000, 59.000000}";
},
{
horizontal = 1;
place = "{-16.000000, 93.000000}";
}
);
layerId = UUID0;
name = Regular;
paths = (
{
closed = 1;
nodes = (
"797 179 LINE",
"782 128 OFFCURVE",
"746 91 OFFCURVE",
"707 91 CURVE SMOOTH",
"662 91 OFFCURVE",
"656 142 OFFCURVE",
"648 179 CURVE",
"639 229 LINE",
"738 333 OFFCURVE",
"782 402 OFFCURVE",
"782 467 CURVE SMOOTH",
"782 516 OFFCURVE",
"759 556 OFFCURVE",
"714 556 CURVE SMOOTH",
"683 556 OFFCURVE",
"658 540 OFFCURVE",
"658 509 CURVE SMOOTH",
"658 478 OFFCURVE",
"670 453 OFFCURVE",
"705 453 CURVE SMOOTH",
"710 453 OFFCURVE",
"715 454 OFFCURVE",
"722 455 CURVE",
"723 452 OFFCURVE",
"723 448 OFFCURVE",
"723 443 CURVE SMOOTH",
"723 407 OFFCURVE",
"688 348 OFFCURVE",
"628 284 CURVE",
"596 462 LINE",
"455 462 LINE",
"505 188 LINE",
"447 122 OFFCURVE",
"356 77 OFFCURVE",
"283 77 CURVE SMOOTH",
"224 77 OFFCURVE",
"181 107 OFFCURVE",
"181 179 CURVE SMOOTH",
"181 271 OFFCURVE",
"253 394 OFFCURVE",
"360 418 CURVE",
"288 437 OFFCURVE",
"259 493 OFFCURVE",
"259 552 CURVE SMOOTH",
"259 622 OFFCURVE",
"301 693 OFFCURVE",
"361 693 CURVE SMOOTH",
"388 693 OFFCURVE",
"416 678 OFFCURVE",
"416 637 CURVE SMOOTH",
"416 602 OFFCURVE",
"396 558 OFFCURVE",
"372 550 CURVE",
"385 532 OFFCURVE",
"401 523 OFFCURVE",
"419 523 CURVE SMOOTH",
"459 523 OFFCURVE",
"493 567 OFFCURVE",
"493 627 CURVE SMOOTH",
"493 709 OFFCURVE",
"430 752 OFFCURVE",
"350 752 CURVE SMOOTH",
"222 752 OFFCURVE",
"131 640 OFFCURVE",
"131 537 CURVE SMOOTH",
"131 492 OFFCURVE",
"149 448 OFFCURVE",
"192 417 CURVE",
"76 387 OFFCURVE",
"7 263 OFFCURVE",
"7 158 CURVE SMOOTH",
"7 33 OFFCURVE",
"93 -16 OFFCURVE",
"197 -16 CURVE SMOOTH",
"309 -16 OFFCURVE",
"446 41 OFFCURVE",
"518 126 CURVE",
"541 33 OFFCURVE",
"569 -6 OFFCURVE",
"633 -6 CURVE SMOOTH",
"687 -6 OFFCURVE",
"783 16 OFFCURVE",
"839 179 CURVE"
);
}
);
width = 797;
}
);
},
{
glyphname = Eogonek;
lastChange = "2016-04-09 11:26:51 +0000";
layers = (
{
hints = (
{
place = "{11.000000, 175.000000}";
},
{
place = "{416.000000, 83.000000}";
},
{
place = "{93.000000, 135.000000}";
},
{
place = "{221.000000, 83.000000}";
},
{
horizontal = 1;
place = "{-6.000000, 90.000000}";
},
{
horizontal = 1;
place = "{706.000000, 44.000000}";
},
{
horizontal = 1;
place = "{1.000000, 21.000000}";
target = up;
type = BottomGhost;
},
{
horizontal = 1;
place = "{-193.000000, 59.000000}";
}
);
layerId = UUID0;
name = Regular;
paths = (
{
closed = 1;
nodes = (
"461 180 LINE",
"424 116 OFFCURVE",
"380 84 OFFCURVE",
"303 84 CURVE SMOOTH",
"239 84 OFFCURVE",
"186 144 OFFCURVE",
"186 217 CURVE SMOOTH",
"186 287 OFFCURVE",
"233 365 OFFCURVE",
"360 418 CURVE",
"265 461 OFFCURVE",
"228 524 OFFCURVE",
"228 583 CURVE SMOOTH",
"228 650 OFFCURVE",
"278 706 OFFCURVE",
"350 706 CURVE SMOOTH",
"414 706 OFFCURVE",
"416 648 OFFCURVE",
"416 632 CURVE SMOOTH",
"416 607 OFFCURVE",
"396 558 OFFCURVE",
"372 550 CURVE",
"391 527 OFFCURVE",
"413 524 OFFCURVE",
"429 524 CURVE SMOOTH",
"480 524 OFFCURVE",
"499 563 OFFCURVE",
"499 616 CURVE SMOOTH",
"499 712 OFFCURVE",
"408 750 OFFCURVE",
"315 750 CURVE SMOOTH",
"173 750 OFFCURVE",
"93 660 OFFCURVE",
"93 569 CURVE SMOOTH",
"93 512 OFFCURVE",
"124 454 OFFCURVE",
"192 417 CURVE",
"72 393 OFFCURVE",
"11 291 OFFCURVE",
"11 196 CURVE SMOOTH",
"11 93 OFFCURVE",
"80 -6 OFFCURVE",
"218 -6 CURVE SMOOTH",
"242 -6 OFFCURVE",
"268 -4 OFFCURVE",
"293 1 CURVE",
"246 -36 OFFCURVE",
"221 -79 OFFCURVE",
"221 -115 CURVE SMOOTH",
"221 -150 OFFCURVE",
"245 -193 OFFCURVE",
"300 -193 CURVE SMOOTH",
"350 -193 OFFCURVE",
"386 -154 OFFCURVE",
"409 -131 CURVE",
"409 -119 OFFCURVE",
"410 -112 OFFCURVE",
"411 -100 CURVE",
"391 -113 OFFCURVE",
"367 -134 OFFCURVE",
"343 -134 CURVE SMOOTH",
"315 -134 OFFCURVE",
"304 -107 OFFCURVE",
"304 -84 CURVE SMOOTH",
"304 40 OFFCURVE",
"437 28 OFFCURVE",
"484 170 CURVE"
);
}
);
width = 459;
}
);
unicode = 0118;
},
{
glyphname = Eth;
lastChange = "2016-04-09 11:26:51 +0000";
layers = (
{
hints = (
{
place = "{6.000000, 93.000000}";
},
{
place = "{507.000000, 138.000000}";
},
{
horizontal = 1;
place = "{0.000000, 75.000000}";
},
{
horizontal = 1;
place = "{345.000000, 74.000000}";
},
{
horizontal = 1;
place = "{704.000000, 46.000000}";
},
{
horizontal = 1;
place = "{-13.000000, 88.000000}";
}
);
layerId = UUID0;
name = Regular;
paths = (
{
closed = 1;
nodes = (
"238 0 LINE",
"246 40 LINE",
"289 3 OFFCURVE",
"329 -13 OFFCURVE",
"368 -13 CURVE SMOOTH",
"516 -13 OFFCURVE",
"645 221 OFFCURVE",
"645 480 CURVE SMOOTH",
"645 620 OFFCURVE",
"588 750 OFFCURVE",
"357 750 CURVE SMOOTH",
"190 750 OFFCURVE",
"6 623 OFFCURVE",
"6 490 CURVE SMOOTH",
"6 418 OFFCURVE",
"44 393 OFFCURVE",
"113 393 CURVE",
"113 401 OFFCURVE",
"99 410 OFFCURVE",
"99 461 CURVE SMOOTH",
"99 613 OFFCURVE",
"207 704 OFFCURVE",
"369 704 CURVE SMOOTH",
"484 704 OFFCURVE",
"507 633 OFFCURVE",
"507 508 CURVE SMOOTH",
"507 316 OFFCURVE",
"434 75 OFFCURVE",
"315 75 CURVE SMOOTH",
"295 75 OFFCURVE",
"276 82 OFFCURVE",
"258 95 CURVE",
"311 345 LINE",
"386 345 LINE",
"406 419 LINE",
"327 419 LINE",
"378 656 LINE",
"230 636 LINE",
"184 419 LINE",
"149 419 LINE",
"129 345 LINE",
"168 345 LINE",
"94 0 LINE"
);
}
);
width = 663;
}
);
unicode = 00D0;
},
{
glyphname = Euro;
lastChange = "2016-04-09 11:26:51 +0000";
layers = (
{
hints = (
{
place = "{82.000000, 157.000000}";
},
{
place = "{510.000000, 83.000000}";
},
{
horizontal = 1;
place = "{-6.000000, 90.000000}";
},
{
horizontal = 1;
place = "{284.000000, 50.000000}";
},
{
horizontal = 1;
place = "{399.000000, 50.000000}";
},
{
horizontal = 1;
place = "{703.000000, 47.000000}";
}
);
layerId = UUID0;
name = Regular;
paths = (
{
closed = 1;
nodes = (
"525 124 LINE",
"486 93 OFFCURVE",
"448 84 OFFCURVE",
"371 84 CURVE SMOOTH",
"263 84 OFFCURVE",
"239 140 OFFCURVE",
"239 271 CURVE SMOOTH",
"239 284 LINE",
"424 284 LINE",
"438 334 LINE",
"242 334 LINE",
"245 355 OFFCURVE",
"246 376 OFFCURVE",
"250 399 CURVE",
"449 399 LINE",
"463 449 LINE",
"261 449 LINE",
"293 582 OFFCURVE",
"356 703 OFFCURVE",
"441 703 CURVE SMOOTH",
"505 703 OFFCURVE",
"510 648 OFFCURVE",
"510 632 CURVE SMOOTH",
"510 607 OFFCURVE",
"490 558 OFFCURVE",
"466 550 CURVE",
"485 527 OFFCURVE",
"507 524 OFFCURVE",
"523 524 CURVE SMOOTH",
"574 524 OFFCURVE",
"593 563 OFFCURVE",
"593 616 CURVE SMOOTH",
"593 712 OFFCURVE",
"512 750 OFFCURVE",
"419 750 CURVE SMOOTH",
"231 750 OFFCURVE",
"140 609 OFFCURVE",
"103 449 CURVE",
"36 449 LINE",
"22 399 LINE",
"93 399 LINE",
"85 334 LINE",
"11 334 LINE",
"-3 284 LINE",
"82 284 LINE",
"82 249 LINE SMOOTH",
"82 44 OFFCURVE",
"200 -6 OFFCURVE",
"301 -6 CURVE SMOOTH",
"394 -6 OFFCURVE",
"467 16 OFFCURVE",
"527 95 CURVE"
);
}
);
width = 573;
}
);
unicode = 20AC;
},
{
glyphname = F;
lastChange = "2016-04-09 11:26:51 +0000";
layers = (
{
hints = (
{
place = "{9.000000, 93.000000}";
},
{
horizontal = 1;
place = "{0.000000, 21.000000}";
target = up;
type = BottomGhost;
},
{
horizontal = 1;
place = "{376.000000, 74.000000}";
},
{
horizontal = 1;
place = "{668.000000, 82.000000}";
}
);
layerId = UUID0;
name = Regular;
paths = (
{
closed = 1;
nodes = (
"232 0 LINE",
"313 376 LINE",
"459 376 LINE",
"475 450 LINE",
"329 450 LINE",
"371 649 LINE",
"418 638 OFFCURVE",
"464 630 OFFCURVE",
"511 630 CURVE",
"588 646 OFFCURVE",
"593 709 OFFCURVE",
"606 750 CURVE",
"578 741 OFFCURVE",
"547 738 OFFCURVE",
"516 738 CURVE SMOOTH",
"452 738 OFFCURVE",
"390 750 OFFCURVE",
"350 750 CURVE SMOOTH",
"103 750 OFFCURVE",
"9 623 OFFCURVE",
"9 490 CURVE SMOOTH",
"9 418 OFFCURVE",
"47 393 OFFCURVE",
"116 393 CURVE",
"116 401 OFFCURVE",
"102 410 OFFCURVE",
"102 461 CURVE SMOOTH",
"102 621 OFFCURVE",
"155 665 OFFCURVE",
"232 668 CURVE",
"88 0 LINE"
);
}
);
width = 459;
}
);
unicode = 0046;
},
{
glyphname = F_i;
lastChange = "2016-04-09 11:26:51 +0000";
layers = (
{
components = (
{
name = dotlessi;
transform = "{1, 0, 0, 1, 459, 0}";
}
);
hints = (
{
place = "{9.000000, 93.000000}";
},
{
horizontal = 1;
place = "{0.000000, 21.000000}";
target = up;
type = BottomGhost;
},
{
horizontal = 1;
place = "{376.000000, 74.000000}";
},
{
horizontal = 1;
place = "{668.000000, 82.000000}";
},
{
horizontal = 1;
place = "{594.000000, 136.000000}";
}
);
layerId = UUID0;
name = Regular;
paths = (
{
closed = 1;
nodes = (
"252 0 LINE",
"333 376 LINE",
"459 376 LINE",
"475 450 LINE",
"349 450 LINE",
"392 650 LINE",
"475 629 OFFCURVE",
"519 594 OFFCURVE",
"602 594 CURVE SMOOTH",
"681 594 OFFCURVE",
"713 677 OFFCURVE",
"726 749 CURVE",
"671 734 OFFCURVE",
"624 730 OFFCURVE",
"581 730 CURVE SMOOTH",
"491 730 OFFCURVE",
"418 750 OFFCURVE",
"350 750 CURVE SMOOTH",
"103 750 OFFCURVE",
"9 623 OFFCURVE",
"9 490 CURVE SMOOTH",
"9 418 OFFCURVE",
"47 393 OFFCURVE",
"116 393 CURVE",
"116 401 OFFCURVE",
"102 410 OFFCURVE",
"102 461 CURVE SMOOTH",
"102 626 OFFCURVE",
"161 668 OFFCURVE",
"241 668 CURVE SMOOTH",
"252 668 LINE",
"108 0 LINE"
);
}
);
width = 726;
}
);
},
{
glyphname = G;
lastChange = "2016-04-09 11:26:51 +0000";
layers = (
{
hints = (
{
place = "{19.000000, 154.000000}";
},
{
place = "{464.000000, 95.000000}";
},
{
place = "{69.000000, 84.000000}";
},
{
horizontal = 1;
place = "{-207.000000, 50.000000}";
},
{
horizontal = 1;
place = "{-13.000000, 81.000000}";
},
{
horizontal = 1;
place = "{109.000000, 83.000000}";
},
{
horizontal = 1;
place = "{703.000000, 47.000000}";
}
);
layerId = UUID0;
name = Regular;
paths = (
{
closed = 1;
nodes = (
"316 -34 LINE SMOOTH",
"292 -138 OFFCURVE",
"262 -157 OFFCURVE",
"216 -157 CURVE SMOOTH",
"173 -157 OFFCURVE",
"153 -124 OFFCURVE",
"153 -89 CURVE SMOOTH",
"153 -52 OFFCURVE",
"176 -13 OFFCURVE",
"223 -13 CURVE SMOOTH",
"243 -13 OFFCURVE",
"258 -18 OFFCURVE",
"283 -39 CURVE",
"287 -24 OFFCURVE",
"289 -11 OFFCURVE",
"289 1 CURVE SMOOTH",
"289 65 OFFCURVE",
"231 68 OFFCURVE",
"191 68 CURVE SMOOTH",
"112 68 OFFCURVE",
"69 -1 OFFCURVE",
"69 -69 CURVE SMOOTH",
"69 -137 OFFCURVE",
"113 -207 OFFCURVE",
"208 -207 CURVE SMOOTH",
"372 -207 OFFCURVE",
"432 -111 OFFCURVE",
"464 42 CURVE",
"546 418 LINE",
"417 419 LINE",
"374 229 LINE",
"353 201 OFFCURVE",
"326 192 OFFCURVE",
"289 192 CURVE SMOOTH",
"206 192 OFFCURVE",
"173 269 OFFCURVE",
"173 357 CURVE SMOOTH",
"173 517 OFFCURVE",
"285 703 OFFCURVE",
"395 703 CURVE SMOOTH",
"459 703 OFFCURVE",
"464 648 OFFCURVE",
"464 632 CURVE SMOOTH",
"464 607 OFFCURVE",
"444 558 OFFCURVE",
"420 550 CURVE",
"439 529 OFFCURVE",
"473 524 OFFCURVE",
"489 524 CURVE SMOOTH",
"540 524 OFFCURVE",
"559 563 OFFCURVE",
"559 616 CURVE SMOOTH",
"559 712 OFFCURVE",
"466 750 OFFCURVE",
"373 750 CURVE SMOOTH",
"150 750 OFFCURVE",
"19 556 OFFCURVE",
"19 365 CURVE SMOOTH",
"19 226 OFFCURVE",
"70 109 OFFCURVE",
"234 109 CURVE SMOOTH",
"242 109 OFFCURVE",
"298 113 OFFCURVE",
"356 145 CURVE"
);
}
);
width = 578;
}
);
unicode = 0047;
},
{
glyphname = H;
lastChange = "2016-04-09 11:26:51 +0000";
layers = (
{
hints = (
{
place = "{12.000000, 93.000000}";
},
{
horizontal = 1;
place = "{0.000000, 21.000000}";
target = up;
type = BottomGhost;
},
{
horizontal = 1;
place = "{376.000000, 74.000000}";
}
);
layerId = UUID0;
name = Regular;
paths = (
{
closed = 1;
nodes = (
"535 0 LINE",
"694 748 LINE",
"550 748 LINE",
"486 450 LINE",
"339 450 LINE",
"403 748 LINE",
"390 749 OFFCURVE",
"378 750 OFFCURVE",
"363 750 CURVE SMOOTH",
"196 750 OFFCURVE",
"12 623 OFFCURVE",
"12 490 CURVE SMOOTH",
"12 418 OFFCURVE",
"50 393 OFFCURVE",
"119 393 CURVE",
"119 401 OFFCURVE",
"105 410 OFFCURVE",
"105 461 CURVE SMOOTH",
"105 568 OFFCURVE",
"157 643 OFFCURVE",
"245 680 CURVE",
"100 0 LINE",
"244 0 LINE",
"324 376 LINE",
"471 376 LINE",
"391 0 LINE"
);
}
);
width = 665;
}
);
unicode = 0048;
},
{
glyphname = I;
lastChange = "2016-04-09 11:26:51 +0000";
layers = (
{
hints = (
{
place = "{6.000000, 93.000000}";
},
{
horizontal = 1;
place = "{0.000000, 21.000000}";
target = up;
type = BottomGhost;
}
);
layerId = UUID0;
name = Regular;
paths = (
{
closed = 1;
nodes = (
"238 0 LINE",
"397 748 LINE",
"384 749 OFFCURVE",
"372 750 OFFCURVE",
"357 750 CURVE SMOOTH",
"190 750 OFFCURVE",
"6 623 OFFCURVE",
"6 490 CURVE SMOOTH",
"6 418 OFFCURVE",
"44 393 OFFCURVE",
"113 393 CURVE",
"113 401 OFFCURVE",
"99 410 OFFCURVE",
"99 461 CURVE SMOOTH",
"99 569 OFFCURVE",
"151 643 OFFCURVE",
"239 679 CURVE",
"94 0 LINE"
);
}
);
width = 375;
}
);
unicode = 0049;
},
{
glyphname = IJ;
lastChange = "2016-04-09 11:26:51 +0000";
layers = (
{
components = (
{
name = I;
}
);
hints = (
{
place = "{112.000000, 84.000000}";
},
{
horizontal = 1;
place = "{-207.000000, 50.000000}";
},
{
horizontal = 1;
place = "{-16.000000, 75.000000}";
}
);
layerId = UUID0;
name = Regular;
paths = (
{
closed = 1;
nodes = (
"359 -34 LINE",
"338 -134 OFFCURVE",
"306 -157 OFFCURVE",
"267 -157 CURVE SMOOTH",
"223 -157 OFFCURVE",
"196 -128 OFFCURVE",
"196 -89 CURVE SMOOTH",
"196 -49 OFFCURVE",
"225 -16 OFFCURVE",
"261 -16 CURVE SMOOTH",
"278 -16 OFFCURVE",
"295 -24 OFFCURVE",
"310 -39 CURVE",
"315 -26 OFFCURVE",
"317 -15 OFFCURVE",
"317 -6 CURVE SMOOTH",
"317 33 OFFCURVE",
"283 59 OFFCURVE",
"231 59 CURVE SMOOTH",
"155 59 OFFCURVE",
"112 5 OFFCURVE",
"112 -70 CURVE SMOOTH",
"112 -149 OFFCURVE",
"161 -207 OFFCURVE",
"273 -207 CURVE SMOOTH",
"429 -207 OFFCURVE",
"494 -99 OFFCURVE",
"523 40 CURVE SMOOTH",
"673 750 LINE",
"523 717 LINE"
);
}
);
width = 663;
}
);
unicode = 0132;
},
{
glyphname = J;
lastChange = "2016-04-09 11:26:51 +0000";
layers = (
{
hints = (
{
place = "{17.000000, 84.000000}";
},
{
place = "{187.000000, 93.000000}";
},
{
horizontal = 1;
place = "{-207.000000, 50.000000}";
},
{
horizontal = 1;
place = "{-13.000000, 81.000000}";
}
);
layerId = UUID0;
name = Regular;
paths = (
{
closed = 1;
nodes = (
"264 -34 LINE",
"240 -138 OFFCURVE",
"214 -157 OFFCURVE",
"169 -157 CURVE SMOOTH",
"140 -157 OFFCURVE",
"101 -139 OFFCURVE",
"101 -87 CURVE SMOOTH",
"101 -50 OFFCURVE",
"124 -13 OFFCURVE",
"171 -13 CURVE SMOOTH",
"191 -13 OFFCURVE",
"206 -18 OFFCURVE",
"231 -39 CURVE",
"235 -24 OFFCURVE",
"237 -11 OFFCURVE",
"237 1 CURVE SMOOTH",
"237 65 OFFCURVE",
"179 68 OFFCURVE",
"139 68 CURVE SMOOTH",
"60 68 OFFCURVE",
"17 2 OFFCURVE",
"17 -66 CURVE SMOOTH",
"17 -150 OFFCURVE",
"69 -207 OFFCURVE",
"165 -207 CURVE SMOOTH",
"329 -207 OFFCURVE",
"396 -113 OFFCURVE",
"428 40 CURVE SMOOTH",
"578 750 LINE",
"538 750 LINE SMOOTH",
"371 750 OFFCURVE",
"187 623 OFFCURVE",
"187 490 CURVE SMOOTH",
"187 418 OFFCURVE",
"225 393 OFFCURVE",
"294 393 CURVE",
"294 401 OFFCURVE",
"280 410 OFFCURVE",
"280 461 CURVE SMOOTH",
"280 569 OFFCURVE",
"333 644 OFFCURVE",
"421 680 CURVE"
);
}
);
width = 536;
}
);
unicode = 004A;
},
{
glyphname = K;
lastChange = "2016-04-09 11:26:51 +0000";
layers = (
{
hints = (
{
place = "{6.000000, 93.000000}";
},
{
place = "{411.000000, 134.000000}";
},
{
place = "{358.000000, 138.000000}";
},
{
horizontal = 1;
place = "{0.000000, 21.000000}";
target = up;
type = BottomGhost;
},
{
horizontal = 1;
place = "{381.000000, 45.000000}";
}
);
layerId = UUID0;
name = Regular;
paths = (
{
closed = 1;
nodes = (
"238 0 LINE",
"318 377 LINE",
"330 380 OFFCURVE",
"342 381 OFFCURVE",
"351 381 CURVE SMOOTH",
"396 381 OFFCURVE",
"411 353 OFFCURVE",
"411 313 CURVE SMOOTH",
"411 237 OFFCURVE",
"358 117 OFFCURVE",
"358 50 CURVE SMOOTH",
"358 18 OFFCURVE",
"371 -17 OFFCURVE",
"436 -17 CURVE SMOOTH",
"460 -17 OFFCURVE",
"492 -12 OFFCURVE",
"535 0 CURVE",
"511 9 OFFCURVE",
"496 35 OFFCURVE",
"496 66 CURVE SMOOTH",
"496 130 OFFCURVE",
"545 236 OFFCURVE",
"545 319 CURVE SMOOTH",
"545 380 OFFCURVE",
"518 426 OFFCURVE",
"421 426 CURVE SMOOTH",
"410 426 OFFCURVE",
"399 425 OFFCURVE",
"386 425 CURVE",
"664 745 LINE",
"559 745 LINE",
"558 746 OFFCURVE",
"396 527 OFFCURVE",
"332 442 CURVE",
"397 748 LINE",
"384 749 OFFCURVE",
"372 750 OFFCURVE",
"357 750 CURVE SMOOTH",
"190 750 OFFCURVE",
"6 623 OFFCURVE",
"6 490 CURVE SMOOTH",
"6 418 OFFCURVE",
"44 393 OFFCURVE",
"113 393 CURVE",
"113 401 OFFCURVE",
"99 410 OFFCURVE",
"99 461 CURVE SMOOTH",
"99 568 OFFCURVE",
"151 643 OFFCURVE",
"239 680 CURVE",
"94 0 LINE"
);
}
);
width = 601;
}
);
unicode = 004B;
},
{
glyphname = L;
lastChange = "2016-04-09 11:26:51 +0000";
layers = (
{
hints = (
{
place = "{6.000000, 93.000000}";
},
{
horizontal = 1;
place = "{-250.000000, 141.000000}";
}
);
layerId = UUID0;
name = Regular;
paths = (
{
closed = 1;
nodes = (
"90 -24 LINE",
"98 -23 OFFCURVE",
"105 -23 OFFCURVE",
"113 -23 CURVE SMOOTH",
"290 -23 OFFCURVE",
"416 -250 OFFCURVE",
"559 -250 CURVE SMOOTH",
"614 -250 OFFCURVE",
"652 -189 OFFCURVE",
"663 -93 CURVE",
"634 -105 OFFCURVE",
"606 -109 OFFCURVE",
"579 -109 CURVE SMOOTH",
"452 -109 OFFCURVE",
"347 -4 OFFCURVE",
"243 20 CURVE",
"397 738 LINE",
"384 739 OFFCURVE",
"372 740 OFFCURVE",
"357 740 CURVE SMOOTH",
"190 740 OFFCURVE",
"6 613 OFFCURVE",
"6 480 CURVE SMOOTH",
"6 408 OFFCURVE",
"44 383 OFFCURVE",
"113 383 CURVE",
"113 391 OFFCURVE",
"99 400 OFFCURVE",
"99 451 CURVE SMOOTH",
"99 559 OFFCURVE",
"151 633 OFFCURVE",
"239 669 CURVE"
);
}
);
width = 379;
}
);
unicode = 004C;
},
{
glyphname = Lslash;
lastChange = "2016-04-09 11:26:51 +0000";
layers = (
{
hints = (
{
place = "{6.000000, 93.000000}";
},
{
horizontal = 1;
place = "{-250.000000, 141.000000}";
}
);
layerId = UUID0;
name = Regular;
paths = (
{
closed = 1;
nodes = (
"90 -24 LINE",
"98 -23 OFFCURVE",
"105 -23 OFFCURVE",
"113 -23 CURVE SMOOTH",
"290 -23 OFFCURVE",
"416 -250 OFFCURVE",
"559 -250 CURVE SMOOTH",
"614 -250 OFFCURVE",
"652 -189 OFFCURVE",
"663 -93 CURVE",
"634 -105 OFFCURVE",
"606 -109 OFFCURVE",
"579 -109 CURVE SMOOTH",
"451 -109 OFFCURVE",
"347 -4 OFFCURVE",
"243 20 CURVE",
"327 405 LINE",
"454 483 LINE",
"458 544 LINE",
"342 475 LINE",
"397 738 LINE",
"384 739 OFFCURVE",
"372 740 OFFCURVE",
"357 740 CURVE SMOOTH",
"190 740 OFFCURVE",
"6 613 OFFCURVE",
"6 480 CURVE SMOOTH",
"6 408 OFFCURVE",
"44 383 OFFCURVE",
"113 383 CURVE",
"113 391 OFFCURVE",
"99 400 OFFCURVE",
"99 451 CURVE SMOOTH",
"99 559 OFFCURVE",
"151 633 OFFCURVE",
"239 669 CURVE",
"173 358 LINE",
"97 309 LINE",
"95 256 LINE",
"160 295 LINE"
);
}
);
width = 392;
}
);
unicode = 0141;
},
{
glyphname = M;
lastChange = "2016-04-09 11:26:51 +0000";
layers = (
{
hints = (
{
place = "{69.000000, 93.000000}";
},
{
place = "{304.000000, 147.000000}";
},
{
horizontal = 1;
place = "{0.000000, 21.000000}";
target = up;
type = BottomGhost;
}
);
layerId = UUID0;
name = Regular;
paths = (
{
closed = 1;
nodes = (
"699 0 LINE",
"804 736 LINE",
"660 736 LINE",
"440 209 LINE",
"463 736 LINE",
"438 745 OFFCURVE",
"413 750 OFFCURVE",
"387 750 CURVE SMOOTH",
"235 750 OFFCURVE",
"69 612 OFFCURVE",
"69 484 CURVE SMOOTH",
"69 417 OFFCURVE",
"111 393 OFFCURVE",
"176 393 CURVE",
"176 402 OFFCURVE",
"162 409 OFFCURVE",
"162 462 CURVE SMOOTH",
"162 577 OFFCURVE",
"221 654 OFFCURVE",
"321 687 CURVE",
"67 0 LINE",
"147 0 LINE",
"314 451 LINE",
"294 0 LINE",
"431 0 LINE",
"619 449 LINE",
"555 0 LINE"
);
}
);
width = 787;
}
);
unicode = 004D;
},
{
glyphname = N;
lastChange = "2016-04-09 11:26:51 +0000";
layers = (
{
hints = (
{
place = "{6.000000, 93.000000}";
},
{
horizontal = 1;
place = "{0.000000, 21.000000}";
target = up;
type = BottomGhost;
},
{
horizontal = 1;
place = "{679.000000, 71.000000}";
}
);
layerId = UUID0;
name = Regular;
paths = (
{
closed = 1;
nodes = (
"555 0 LINE",
"714 748 LINE",
"570 748 LINE",
"461 206 LINE",
"382 736 LINE",
"353 751 OFFCURVE",
"320 750 OFFCURVE",
"289 750 CURVE SMOOTH",
"117 750 OFFCURVE",
"6 605 OFFCURVE",
"6 490 CURVE SMOOTH",
"6 418 OFFCURVE",
"44 393 OFFCURVE",
"113 393 CURVE",
"113 401 OFFCURVE",
"99 410 OFFCURVE",
"99 461 CURVE SMOOTH",
"99 568 OFFCURVE",
"150 643 OFFCURVE",
"238 679 CURVE",
"94 0 LINE",
"238 0 LINE",
"349 523 LINE",
"434 0 LINE"
);
}
);
width = 668;
}
);
unicode = 004E;
},
{
glyphname = N.salt;
lastChange = "2016-04-09 11:26:51 +0000";
layers = (
{
hints = (
{
place = "{6.000000, 93.000000}";
},
{
place = "{407.000000, 138.000000}";
},
{
place = "{505.000000, 141.000000}";
},
{
horizontal = 1;
place = "{-6.000000, 97.000000}";
},
{
horizontal = 1;
place = "{659.000000, 91.000000}";
},
{
horizontal = 1;
place = "{0.000000, 21.000000}";
target = up;
type = BottomGhost;
}
);
layerId = UUID0;
name = Regular;
paths = (
{
closed = 1;
nodes = (
"669 179 LINE",
"648 127 OFFCURVE",
"628 91 OFFCURVE",
"585 91 CURVE SMOOTH",
"554 91 OFFCURVE",
"545 108 OFFCURVE",
"545 133 CURVE SMOOTH",
"545 189 OFFCURVE",
"646 527 OFFCURVE",
"646 607 CURVE SMOOTH",
"646 707 OFFCURVE",
"573 750 OFFCURVE",
"510 750 CURVE SMOOTH",
"478 750 OFFCURVE",
"432 742 OFFCURVE",
"385 693 CURVE",
"397 748 LINE",
"384 749 OFFCURVE",
"372 750 OFFCURVE",
"357 750 CURVE SMOOTH",
"190 750 OFFCURVE",
"6 623 OFFCURVE",
"6 490 CURVE SMOOTH",
"6 418 OFFCURVE",
"44 393 OFFCURVE",
"113 393 CURVE",
"113 401 OFFCURVE",
"99 410 OFFCURVE",
"99 461 CURVE SMOOTH",
"99 561 OFFCURVE",
"145 634 OFFCURVE",
"225 673 CURVE",
"81 0 LINE",
"238 0 LINE",
"362 585 LINE",
"362 586 LINE",
"378 627 OFFCURVE",
"412 659 OFFCURVE",
"444 659 CURVE SMOOTH",
"468 659 OFFCURVE",
"505 651 OFFCURVE",
"505 585 CURVE SMOOTH",
"505 521 OFFCURVE",
"407 175 OFFCURVE",
"407 107 CURVE SMOOTH",
"407 50 OFFCURVE",
"437 -6 OFFCURVE",
"525 -6 CURVE SMOOTH",
"578 -6 OFFCURVE",
"655 15 OFFCURVE",
"711 179 CURVE"
);
}
);
width = 669;
}
);
},
{
glyphname = O;
lastChange = "2016-04-09 11:26:51 +0000";
layers = (
{
hints = (
{
place = "{108.000000, 148.000000}";
},
{
place = "{523.000000, 133.000000}";
},
{
place = "{16.000000, 91.000000}";
},
{
horizontal = 1;
place = "{-6.000000, 81.000000}";
},
{
horizontal = 1;
place = "{704.000000, 46.000000}";
}
);
layerId = UUID0;
name = Regular;
paths = (
{
closed = 1;
nodes = (
"412 663 OFFCURVE",
"396 664 OFFCURVE",
"379 664 CURVE SMOOTH",
"199 664 OFFCURVE",
"108 357 OFFCURVE",
"108 195 CURVE SMOOTH",
"108 49 OFFCURVE",
"182 -6 OFFCURVE",
"287 -6 CURVE SMOOTH",
"549 -6 OFFCURVE",
"656 301 OFFCURVE",
"656 494 CURVE SMOOTH",
"656 643 OFFCURVE",
"594 750 OFFCURVE",
"419 750 CURVE SMOOTH",
"208 750 OFFCURVE",
"16 617 OFFCURVE",
"16 477 CURVE SMOOTH",
"16 416 OFFCURVE",
"53 393 OFFCURVE",
"117 393 CURVE",
"117 401 OFFCURVE",
"107 408 OFFCURVE",
"107 447 CURVE SMOOTH",
"107 606 OFFCURVE",
"242 704 OFFCURVE",
"395 704 CURVE SMOOTH",
"500 704 OFFCURVE",
"523 645 OFFCURVE",
"523 529 CURVE SMOOTH",
"523 327 OFFCURVE",
"415 75 OFFCURVE",
"314 75 CURVE SMOOTH",
"273 75 OFFCURVE",
"256 123 OFFCURVE",
"256 191 CURVE SMOOTH",
"256 345 OFFCURVE",
"340 601 OFFCURVE",
"431 656 CURVE"
);
}
);
width = 665;
}
);
unicode = 004F;
},
{
glyphname = OE;
lastChange = "2016-04-09 11:26:51 +0000";
layers = (
{
components = (
{
name = O;
}
);
hints = (
{
place = "{358.000000, 556.000000}";
},
{
horizontal = 1;
place = "{0.000000, 106.000000}";
},
{
horizontal = 1;
place = "{345.000000, 74.000000}";
},
{
horizontal = 1;
place = "{668.000000, 82.000000}";
}
);
layerId = UUID0;
name = Regular;
paths = (
{
closed = 1;
nodes = (
"511 656 LINE",
"530 665 OFFCURVE",
"557 668 OFFCURVE",
"581 668 CURVE SMOOTH",
"660 668 OFFCURVE",
"728 630 OFFCURVE",
"819 630 CURVE",
"896 646 OFFCURVE",
"901 709 OFFCURVE",
"914 750 CURVE",
"886 741 OFFCURVE",
"855 738 OFFCURVE",
"824 738 CURVE SMOOTH",
"760 738 OFFCURVE",
"698 750 OFFCURVE",
"658 750 CURVE SMOOTH",
"573 750 OFFCURVE",
"533 735 OFFCURVE",
"482 711 CURVE"
);
},
{
closed = 1;
nodes = (
"745 0 LINE",
"766 106 LINE",
"419 106 LINE",
"358 0 LINE"
);
},
{
closed = 1;
nodes = (
"764 345 LINE",
"784 419 LINE",
"527 419 LINE",
"507 345 LINE"
);
}
);
width = 846;
}
);
unicode = 0152;
},
{
glyphname = Oslash;
lastChange = "2016-04-09 11:26:51 +0000";
layers = (
{
hints = (
{
place = "{15.000000, 88.000000}";
},
{
place = "{504.000000, 128.000000}";
},
{
place = "{104.000000, 143.000000}";
},
{
horizontal = 1;
place = "{659.000000, 43.000000}";
},
{
horizontal = 1;
place = "{694.000000, 56.000000}";
},
{
horizontal = 1;
place = "{610.000000, 12.000000}";
}
);
layerId = UUID0;
name = Regular;
paths = (
{
closed = 1;
nodes = (
"317 -71 LINE",
"332 -1 LINE",
"544 37 OFFCURVE",
"632 296 OFFCURVE",
"632 462 CURVE SMOOTH",
"632 579 OFFCURVE",
"591 667 OFFCURVE",
"479 694 CURVE",
"491 750 LINE",
"439 750 LINE",
"428 701 LINE",
"420 702 OFFCURVE",
"412 702 OFFCURVE",
"404 702 CURVE SMOOTH",
"200 702 OFFCURVE",
"15 578 OFFCURVE",
"15 446 CURVE SMOOTH",
"15 389 OFFCURVE",
"52 368 OFFCURVE",
"113 368 CURVE",
"113 375 OFFCURVE",
"103 382 OFFCURVE",
"103 418 CURVE SMOOTH",
"103 567 OFFCURVE",
"233 659 OFFCURVE",
"381 659 CURVE SMOOTH",
"395 659 OFFCURVE",
"408 658 OFFCURVE",
"419 656 CURVE",
"410 615 LINE",
"396 620 OFFCURVE",
"381 622 OFFCURVE",
"365 622 CURVE SMOOTH",
"192 622 OFFCURVE",
"104 334 OFFCURVE",
"104 183 CURVE SMOOTH",
"104 47 OFFCURVE",
"175 -6 OFFCURVE",
"277 -6 CURVE SMOOTH",
"279 -6 LINE",
"265 -71 LINE"
);
},
{
closed = 1;
nodes = (
"295 70 LINE",
"260 77 OFFCURVE",
"247 119 OFFCURVE",
"247 179 CURVE SMOOTH",
"247 319 OFFCURVE",
"324 554 OFFCURVE",
"409 610 CURVE"
);
},
{
closed = 1;
nodes = (
"466 634 LINE",
"497 607 OFFCURVE",
"504 562 OFFCURVE",
"504 495 CURVE SMOOTH",
"504 337 OFFCURVE",
"431 147 OFFCURVE",
"351 88 CURVE"
);
}
);
width = 658;
}
);
unicode = 00D8;
},
{
glyphname = P;
lastChange = "2016-04-09 11:26:51 +0000";
layers = (
{
hints = (
{
place = "{6.000000, 93.000000}";
},
{
place = "{482.000000, 111.000000}";
},
{
horizontal = 1;
place = "{0.000000, 21.000000}";
target = up;
type = BottomGhost;
},
{
horizontal = 1;
place = "{285.000000, 37.000000}";
},
{
horizontal = 1;
place = "{704.000000, 46.000000}";
}
);
layerId = UUID0;
name = Regular;
paths = (
{
closed = 1;
nodes = (
"238 0 LINE",
"299 285 LINE",
"304 285 LINE SMOOTH",
"484 285 OFFCURVE",
"593 426 OFFCURVE",
"593 553 CURVE SMOOTH",
"593 656 OFFCURVE",
"521 750 OFFCURVE",
"357 750 CURVE SMOOTH",
"190 750 OFFCURVE",
"6 623 OFFCURVE",
"6 490 CURVE SMOOTH",
"6 418 OFFCURVE",
"44 393 OFFCURVE",
"113 393 CURVE",
"113 401 OFFCURVE",
"99 410 OFFCURVE",
"99 461 CURVE SMOOTH",
"99 614 OFFCURVE",
"195 704 OFFCURVE",
"358 704 CURVE SMOOTH",
"446 704 OFFCURVE",
"482 642 OFFCURVE",
"482 568 CURVE SMOOTH",
"482 461 OFFCURVE",
"408 330 OFFCURVE",
"307 322 CURVE",
"378 656 LINE",
"230 636 LINE",
"94 0 LINE"
);
}
);
width = 573;
}
);
unicode = 0050;
},
{
glyphname = Q;
lastChange = "2016-04-09 11:26:51 +0000";
layers = (
{
hints = (
{
place = "{16.000000, 91.000000}";
},
{
place = "{523.000000, 133.000000}";
},
{
place = "{108.000000, 148.000000}";
},
{
horizontal = 1;
place = "{-6.000000, 81.000000}";
},
{
horizontal = 1;
place = "{120.000000, 37.000000}";
},
{
horizontal = 1;
place = "{704.000000, 46.000000}";
},
{
horizontal = 1;
place = "{-113.000000, 84.000000}";
}
);
layerId = UUID0;
name = Regular;
paths = (
{
closed = 1;
nodes = (
"399 -51 OFFCURVE",
"420 -113 OFFCURVE",
"509 -113 CURVE SMOOTH",
"552 -113 OFFCURVE",
"585 -96 OFFCURVE",
"612 -27 CURVE",
"604 -28 OFFCURVE",
"597 -29 OFFCURVE",
"590 -29 CURVE SMOOTH",
"527 -29 OFFCURVE",
"494 9 OFFCURVE",
"465 52 CURVE",
"598 151 OFFCURVE",
"656 354 OFFCURVE",
"656 494 CURVE SMOOTH",
"656 643 OFFCURVE",
"594 750 OFFCURVE",
"419 750 CURVE SMOOTH",
"208 750 OFFCURVE",
"16 617 OFFCURVE",
"16 477 CURVE SMOOTH",
"16 416 OFFCURVE",
"53 393 OFFCURVE",
"117 393 CURVE",
"117 401 OFFCURVE",
"107 408 OFFCURVE",
"107 447 CURVE SMOOTH",
"107 606 OFFCURVE",
"242 704 OFFCURVE",
"395 704 CURVE SMOOTH",
"500 704 OFFCURVE",
"523 645 OFFCURVE",
"523 529 CURVE SMOOTH",
"523 385 OFFCURVE",
"467 216 OFFCURVE",
"400 130 CURVE",
"379 146 OFFCURVE",
"355 157 OFFCURVE",
"320 157 CURVE SMOOTH",
"303 157 OFFCURVE",
"282 154 OFFCURVE",
"258 148 CURVE",
"255 161 OFFCURVE",
"256 175 OFFCURVE",
"256 191 CURVE SMOOTH",
"256 345 OFFCURVE",
"340 601 OFFCURVE",
"431 656 CURVE",
"412 663 OFFCURVE",
"396 664 OFFCURVE",
"379 664 CURVE SMOOTH",
"199 664 OFFCURVE",
"108 357 OFFCURVE",
"108 195 CURVE SMOOTH",
"108 49 OFFCURVE",
"182 -6 OFFCURVE",
"287 -6 CURVE SMOOTH",
"320 -6 OFFCURVE",
"351 -1 OFFCURVE",
"380 8 CURVE"
);
},
{
closed = 1;
nodes = (
"340 78 OFFCURVE",
"326 75 OFFCURVE",
"314 75 CURVE SMOOTH",
"291 75 OFFCURVE",
"275 89 OFFCURVE",
"266 116 CURVE",
"276 119 OFFCURVE",
"286 120 OFFCURVE",
"295 120 CURVE SMOOTH",
"323 120 OFFCURVE",
"340 106 OFFCURVE",
"352 86 CURVE"
);
}
);
width = 665;
}
);
unicode = 0051;
},
{
glyphname = R;
lastChange = "2016-04-09 11:26:51 +0000";
layers = (
{
hints = (
{
place = "{6.000000, 93.000000}";
},
{
place = "{479.000000, 105.000000}";
},
{
place = "{411.000000, 134.000000}";
},
{
place = "{358.000000, 138.000000}";
},
{
horizontal = 1;
place = "{0.000000, 21.000000}";
target = up;
type = BottomGhost;
},
{
horizontal = 1;
place = "{381.000000, 44.000000}";
},
{
horizontal = 1;
place = "{704.000000, 46.000000}";
}
);
layerId = UUID0;
name = Regular;
paths = (
{
closed = 1;
nodes = (
"238 0 LINE",
"318 377 LINE",
"331 380 OFFCURVE",
"342 381 OFFCURVE",
"351 381 CURVE SMOOTH",
"396 381 OFFCURVE",
"411 353 OFFCURVE",
"411 313 CURVE SMOOTH",
"411 237 OFFCURVE",
"358 117 OFFCURVE",
"358 50 CURVE SMOOTH",
"358 18 OFFCURVE",
"371 -17 OFFCURVE",
"436 -17 CURVE SMOOTH",
"460 -17 OFFCURVE",
"492 -12 OFFCURVE",
"535 0 CURVE",
"511 9 OFFCURVE",
"496 35 OFFCURVE",
"496 66 CURVE SMOOTH",
"496 130 OFFCURVE",
"545 236 OFFCURVE",
"545 319 CURVE SMOOTH",
"545 366 OFFCURVE",
"529 404 OFFCURVE",
"476 419 CURVE",
"545 460 OFFCURVE",
"584 529 OFFCURVE",
"584 590 CURVE SMOOTH",
"584 672 OFFCURVE",
"514 750 OFFCURVE",
"357 750 CURVE SMOOTH",
"190 750 OFFCURVE",
"6 623 OFFCURVE",
"6 490 CURVE SMOOTH",
"6 418 OFFCURVE",
"44 393 OFFCURVE",
"113 393 CURVE",
"113 401 OFFCURVE",
"99 410 OFFCURVE",
"99 461 CURVE SMOOTH",
"99 613 OFFCURVE",
"207 704 OFFCURVE",
"369 704 CURVE SMOOTH",
"447 704 OFFCURVE",
"479 655 OFFCURVE",
"479 599 CURVE SMOOTH",
"479 523 OFFCURVE",
"420 425 OFFCURVE",
"337 425 CURVE SMOOTH",
"329 425 LINE",
"378 656 LINE",
"230 636 LINE",
"94 0 LINE"
);
}
);
width = 601;
}
);
unicode = 0052;
},
{
glyphname = S;
lastChange = "2016-04-09 11:26:51 +0000";
layers = (
{
hints = (
{
place = "{152.000000, 143.000000}";
},
{
place = "{461.000000, 83.000000}";
},
{
place = "{357.000000, 163.000000}";
},
{
place = "{27.000000, 118.000000}";
},
{
horizontal = 1;
place = "{-21.000000, 80.000000}";
},
{
horizontal = 1;
place = "{703.000000, 47.000000}";
},
{
horizontal = 1;
place = "{249.000000, 66.000000}";
}
);
layerId = UUID0;
name = Regular;
paths = (
{
closed = 1;
nodes = (
"428 536 OFFCURVE",
"443 529 OFFCURVE",
"462 529 CURVE SMOOTH",
"513 529 OFFCURVE",
"544 571 OFFCURVE",
"544 630 CURVE SMOOTH",
"544 739 OFFCURVE",
"430 750 OFFCURVE",
"383 750 CURVE SMOOTH",
"254 750 OFFCURVE",
"152 675 OFFCURVE",
"152 571 CURVE SMOOTH",
"152 424 OFFCURVE",
"357 363 OFFCURVE",
"357 192 CURVE SMOOTH",
"357 108 OFFCURVE",
"309 59 OFFCURVE",
"241 59 CURVE SMOOTH",
"177 59 OFFCURVE",
"145 105 OFFCURVE",
"145 155 CURVE SMOOTH",
"145 224 OFFCURVE",
"208 249 OFFCURVE",
"262 249 CURVE",
"259 301 OFFCURVE",
"209 315 OFFCURVE",
"174 315 CURVE SMOOTH",
"104 315 OFFCURVE",
"27 259 OFFCURVE",
"27 151 CURVE SMOOTH",
"27 28 OFFCURVE",
"124 -21 OFFCURVE",
"239 -21 CURVE SMOOTH",
"384 -21 OFFCURVE",
"520 61 OFFCURVE",
"520 229 CURVE SMOOTH",
"520 445 OFFCURVE",
"295 465 OFFCURVE",
"295 612 CURVE SMOOTH",
"295 672 OFFCURVE",
"331 703 OFFCURVE",
"387 703 CURVE SMOOTH",
"443 703 OFFCURVE",
"461 671 OFFCURVE",
"461 636 CURVE SMOOTH",
"461 603 OFFCURVE",
"443 566 OFFCURVE",
"416 550 CURVE"
);
}
);
width = 570;
}
);
unicode = 0053;
},
{
glyphname = T;
lastChange = "2016-04-09 11:26:51 +0000";
layers = (
{
hints = (
{
place = "{6.000000, 93.000000}";
},
{
horizontal = 1;
place = "{0.000000, 21.000000}";
target = up;
type = BottomGhost;
},
{
horizontal = 1;
place = "{662.000000, 87.000000}";
},
{
horizontal = 1;
place = "{620.000000, 106.000000}";
}
);
layerId = UUID0;
name = Regular;
paths = (
{
closed = 1;
nodes = (
"301 0 LINE",
"439 642 LINE",
"494 631 OFFCURVE",
"545 620 OFFCURVE",
"594 620 CURVE SMOOTH",
"674 620 OFFCURVE",
"716 659 OFFCURVE",
"719 747 CURVE",
"692 736 OFFCURVE",
"650 726 OFFCURVE",
"603 726 CURVE SMOOTH",
"505 726 OFFCURVE",
"468 749 OFFCURVE",
"347 749 CURVE SMOOTH",
"100 749 OFFCURVE",
"6 622 OFFCURVE",
"6 489 CURVE SMOOTH",
"6 417 OFFCURVE",
"44 392 OFFCURVE",
"113 392 CURVE",
"113 400 OFFCURVE",
"99 409 OFFCURVE",
"99 460 CURVE SMOOTH",
"99 621 OFFCURVE",
"181 662 OFFCURVE",
"287 662 CURVE SMOOTH",
"299 662 LINE",
"157 0 LINE"
);
}
);
width = 481;
}
);
unicode = 0054;
},
{
glyphname = T_h;
lastChange = "2016-04-09 11:26:51 +0000";
layers = (
{
hints = (
{
place = "{6.000000, 93.000000}";
},
{
place = "{709.000000, 138.000000}";
},
{
place = "{754.000000, 141.000000}";
},
{
horizontal = 1;
place = "{-6.000000, 97.000000}";
},
{
horizontal = 1;
place = "{664.000000, 85.000000}";
},
{
horizontal = 1;
place = "{0.000000, 21.000000}";
target = up;
type = BottomGhost;
},
{
horizontal = 1;
place = "{413.000000, 91.000000}";
},
{
horizontal = 1;
place = "{638.000000, 85.000000}";
}
);
layerId = UUID0;
name = Regular;
paths = (
{
closed = 1;
nodes = (
"971 179 LINE",
"950 127 OFFCURVE",
"930 91 OFFCURVE",
"887 91 CURVE SMOOTH",
"856 91 OFFCURVE",
"847 108 OFFCURVE",
"847 133 CURVE SMOOTH",
"847 189 OFFCURVE",
"895 310 OFFCURVE",
"895 391 CURVE SMOOTH",
"895 471 OFFCURVE",
"848 504 OFFCURVE",
"784 504 CURVE SMOOTH",
"752 504 OFFCURVE",
"708 495 OFFCURVE",
"665 446 CURVE",
"711 675 OFFCURVE",
"725 702 OFFCURVE",
"749 747 CURVE",
"721 728 OFFCURVE",
"677 723 OFFCURVE",
"628 723 CURVE SMOOTH",
"527 723 OFFCURVE",
"403 749 OFFCURVE",
"358 749 CURVE SMOOTH",
"111 749 OFFCURVE",
"6 622 OFFCURVE",
"6 489 CURVE SMOOTH",
"6 417 OFFCURVE",
"44 392 OFFCURVE",
"113 392 CURVE",
"113 400 OFFCURVE",
"99 409 OFFCURVE",
"99 460 CURVE SMOOTH",
"99 618 OFFCURVE",
"188 659 OFFCURVE",
"300 664 CURVE",
"157 0 LINE",
"301 0 LINE",
"442 655 LINE",
"489 648 OFFCURVE",
"533 641 OFFCURVE",
"574 638 CURVE",
"437 0 LINE",
"581 0 LINE",
"605 133 OFFCURVE",
"625 239 OFFCURVE",
"642 327 CURVE",
"657 374 OFFCURVE",
"683 413 OFFCURVE",
"718 413 CURVE SMOOTH",
"742 413 OFFCURVE",
"754 396 OFFCURVE",
"754 362 CURVE SMOOTH",
"754 298 OFFCURVE",
"709 175 OFFCURVE",
"709 107 CURVE SMOOTH",
"709 50 OFFCURVE",
"739 -6 OFFCURVE",
"827 -6 CURVE SMOOTH",
"880 -6 OFFCURVE",
"957 15 OFFCURVE",
"1013 179 CURVE"
);
}
);
width = 971;
}
);
},
{
glyphname = T_i;
lastChange = "2016-04-09 11:26:51 +0000";
layers = (
{
components = (
{
name = dotlessi;
transform = "{1, 0, 0, 1, 477, 0}";
}
);
hints = (
{
place = "{6.000000, 93.000000}";
},
{
horizontal = 1;
place = "{0.000000, 21.000000}";
target = up;
type = BottomGhost;
},
{
horizontal = 1;
place = "{674.000000, 75.000000}";
},
{
horizontal = 1;
place = "{581.000000, 152.000000}";
}
);
layerId = UUID0;
name = Regular;
paths = (
{
closed = 1;
nodes = (
"301 0 LINE",
"438 637 LINE",
"523 608 OFFCURVE",
"580 581 OFFCURVE",
"627 581 CURVE SMOOTH",
"663 581 OFFCURVE",
"730 600 OFFCURVE",
"730 681 CURVE SMOOTH",
"730 700 OFFCURVE",
"727 722 OFFCURVE",
"719 747 CURVE",
"692 736 OFFCURVE",
"651 733 OFFCURVE",
"604 733 CURVE SMOOTH",
"506 733 OFFCURVE",
"388 749 OFFCURVE",
"347 749 CURVE SMOOTH",
"100 749 OFFCURVE",
"6 622 OFFCURVE",
"6 489 CURVE SMOOTH",
"6 417 OFFCURVE",
"44 392 OFFCURVE",
"113 392 CURVE",
"113 400 OFFCURVE",
"99 409 OFFCURVE",
"99 460 CURVE SMOOTH",
"99 625 OFFCURVE",
"169 674 OFFCURVE",
"261 674 CURVE SMOOTH",
"274 674 OFFCURVE",
"287 673 OFFCURVE",
"301 671 CURVE",
"157 0 LINE"
);
}
);
width = 744;
}
);
},
{
glyphname = Thorn;
lastChange = "2016-04-09 11:26:51 +0000";
layers = (
{
hints = (
{
place = "{6.000000, 93.000000}";
},
{
place = "{482.000000, 111.000000}";
},
{
horizontal = 1;
place = "{0.000000, 21.000000}";
target = up;
type = BottomGhost;
},
{
horizontal = 1;
place = "{175.000000, 37.000000}";
},
{
horizontal = 1;
place = "{594.000000, 46.000000}";
}
);
layerId = UUID0;
name = Regular;
paths = (
{
closed = 1;
nodes = (
"238 0 LINE",
"275 175 LINE",
"304 175 LINE SMOOTH",
"484 175 OFFCURVE",
"593 316 OFFCURVE",
"593 443 CURVE SMOOTH",
"593 543 OFFCURVE",
"526 632 OFFCURVE",
"374 640 CURVE",
"398 750 LINE",
"250 730 LINE",
"225 616 LINE",
"106 574 OFFCURVE",
"6 478 OFFCURVE",
"6 380 CURVE SMOOTH",
"6 308 OFFCURVE",
"44 283 OFFCURVE",
"113 283 CURVE",
"113 291 OFFCURVE",
"99 300 OFFCURVE",
"99 351 CURVE SMOOTH",
"99 451 OFFCURVE",
"139 523 OFFCURVE",
"214 562 CURVE",
"94 0 LINE"
);
},
{
closed = 1;
nodes = (
"283 212 LINE",
"365 594 LINE",
"448 591 OFFCURVE",
"482 529 OFFCURVE",
"482 458 CURVE SMOOTH",
"482 349 OFFCURVE",
"403 212 OFFCURVE",
"297 212 CURVE SMOOTH"
);
}
);
width = 583;
}
);
unicode = 00DE;
},
{
glyphname = U;
lastChange = "2016-04-09 11:26:51 +0000";
layers = (
{
hints = (
{
place = "{0.000000, 93.000000}";
},
{
place = "{155.000000, 136.000000}";
},
{
horizontal = 1;
place = "{-7.000000, 98.000000}";
}
);
layerId = UUID0;
name = Regular;
paths = (
{
closed = 1;
nodes = (
"553 439 LINE SMOOTH",
"481 112 OFFCURVE",
"446 91 OFFCURVE",
"360 91 CURVE SMOOTH",
"309 91 OFFCURVE",
"291 124 OFFCURVE",
"291 181 CURVE SMOOTH",
"291 265 OFFCURVE",
"333 401 OFFCURVE",
"426 745 CURVE",
"405 749 OFFCURVE",
"395 750 OFFCURVE",
"378 750 CURVE SMOOTH",
"184 750 OFFCURVE",
"0 626 OFFCURVE",
"0 485 CURVE SMOOTH",
"0 417 OFFCURVE",
"40 393 OFFCURVE",
"107 393 CURVE",
"107 402 OFFCURVE",
"93 409 OFFCURVE",
"93 462 CURVE SMOOTH",
"93 583 OFFCURVE",
"161 663 OFFCURVE",
"270 692 CURVE",
"237 560 LINE SMOOTH",
"194 389 OFFCURVE",
"155 252 OFFCURVE",
"155 152 CURVE SMOOTH",
"155 51 OFFCURVE",
"204 -7 OFFCURVE",
"348 -7 CURVE SMOOTH",
"573 -7 OFFCURVE",
"631 132 OFFCURVE",
"695 436 CURVE SMOOTH",
"761 748 LINE",
"620 748 LINE"
);
}
);
width = 716;
}
);
unicode = 0055;
},
{
glyphname = V;
lastChange = "2016-04-09 11:26:51 +0000";
layers = (
{
hints = (
{
place = "{6.000000, 93.000000}";
},
{
place = "{256.000000, 145.000000}";
},
{
horizontal = 1;
place = "{0.000000, 21.000000}";
target = up;
type = BottomGhost;
},
{
horizontal = 1;
place = "{0.000000, 133.000000}";
}
);
layerId = UUID0;
name = Regular;
paths = (
{
closed = 1;
nodes = (
"408 0 LINE",
"686 745 LINE",
"616 745 LINE",
"406 133 LINE",
"397 748 LINE",
"384 749 OFFCURVE",
"372 750 OFFCURVE",
"357 750 CURVE SMOOTH",
"190 750 OFFCURVE",
"6 623 OFFCURVE",
"6 490 CURVE SMOOTH",
"6 418 OFFCURVE",
"44 393 OFFCURVE",
"113 393 CURVE",
"113 401 OFFCURVE",
"99 410 OFFCURVE",
"99 461 CURVE SMOOTH",
"99 572 OFFCURVE",
"155 648 OFFCURVE",
"248 683 CURVE",
"264 0 LINE"
);
}
);
width = 615;
}
);
unicode = 0056;
},
{
glyphname = W;
lastChange = "2016-04-09 11:26:51 +0000";
layers = (
{
hints = (
{
place = "{6.000000, 93.000000}";
},
{
place = "{256.000000, 145.000000}";
},
{
place = "{604.000000, 143.000000}";
},
{
horizontal = 1;
place = "{0.000000, 21.000000}";
target = up;
type = BottomGhost;
},
{
horizontal = 1;
place = "{0.000000, 133.000000}";
}
);
layerId = UUID0;
name = Regular;
paths = (
{
closed = 1;
nodes = (
"754 0 LINE",
"1032 745 LINE",
"962 745 LINE",
"752 133 LINE",
"743 745 LINE",
"616 745 LINE",
"406 133 LINE",
"397 748 LINE",
"384 749 OFFCURVE",
"372 750 OFFCURVE",
"357 750 CURVE SMOOTH",
"190 750 OFFCURVE",
"6 623 OFFCURVE",
"6 490 CURVE SMOOTH",
"6 418 OFFCURVE",
"44 393 OFFCURVE",
"113 393 CURVE",
"113 401 OFFCURVE",
"99 410 OFFCURVE",
"99 461 CURVE SMOOTH",
"99 572 OFFCURVE",
"155 648 OFFCURVE",
"248 683 CURVE",
"264 0 LINE",
"408 0 LINE",
"598 509 LINE",
"610 0 LINE"
);
}
);
width = 962;
}
);
unicode = 0057;
},
{
glyphname = X;
lastChange = "2016-04-09 11:26:51 +0000";
layers = (
{
hints = (
{
place = "{6.000000, 93.000000}";
},
{
horizontal = 1;
place = "{0.000000, 21.000000}";
target = up;
type = BottomGhost;
}
);
layerId = UUID0;
name = Regular;
paths = (
{
closed = 1;
nodes = (
"552 0 LINE",
"458 454 LINE",
"626 745 LINE",
"556 745 LINE",
"440 540 LINE",
"397 748 LINE",
"384 749 OFFCURVE",
"372 750 OFFCURVE",
"357 750 CURVE SMOOTH",
"190 750 OFFCURVE",
"6 623 OFFCURVE",
"6 490 CURVE SMOOTH",
"6 418 OFFCURVE",
"44 393 OFFCURVE",
"113 393 CURVE",
"113 401 OFFCURVE",
"99 410 OFFCURVE",
"99 461 CURVE SMOOTH",
"99 572 OFFCURVE",
"155 648 OFFCURVE",
"248 683 CURVE",
"322 332 LINE",
"134 0 LINE",
"195 0 LINE",
"340 250 LINE",
"393 0 LINE"
);
}
);
width = 620;
}
);
unicode = 0058;
},
{
glyphname = Y;
lastChange = "2016-04-09 11:26:51 +0000";
layers = (
{
hints = (
{
place = "{6.000000, 93.000000}";
},
{
horizontal = 1;
place = "{0.000000, 21.000000}";
target = up;
type = BottomGhost;
}
);
layerId = UUID0;
name = Regular;
paths = (
{
closed = 1;
nodes = (
"438 0 LINE",
"504 308 LINE",
"698 745 LINE",
"632 745 LINE",
"484 390 LINE",
"397 748 LINE",
"384 749 OFFCURVE",
"372 750 OFFCURVE",
"357 750 CURVE SMOOTH",
"190 750 OFFCURVE",
"6 623 OFFCURVE",
"6 490 CURVE SMOOTH",
"6 418 OFFCURVE",
"44 393 OFFCURVE",
"113 393 CURVE",
"113 401 OFFCURVE",
"99 410 OFFCURVE",
"99 461 CURVE SMOOTH",
"99 572 OFFCURVE",
"155 648 OFFCURVE",
"248 683 CURVE",
"344 308 LINE",
"278 0 LINE"
);
}
);
width = 620;
}
);
unicode = 0059;
},
{
glyphname = Z;
lastChange = "2016-04-09 11:26:51 +0000";
layers = (
{
hints = (
{
place = "{86.000000, 110.000000}";
},
{
place = "{389.000000, 111.000000}";
},
{
horizontal = 1;
place = "{0.000000, 63.000000}";
},
{
horizontal = 1;
place = "{698.000000, 52.000000}";
}
);
layerId = UUID0;
name = Regular;
paths = (
{
closed = 1;
nodes = (
"372 0 LINE SMOOTH",
"451 0 OFFCURVE",
"500 65 OFFCURVE",
"500 116 CURVE SMOOTH",
"500 144 OFFCURVE",
"486 174 OFFCURVE",
"449 174 CURVE SMOOTH",
"422 174 OFFCURVE",
"389 159 OFFCURVE",
"389 116 CURVE SMOOTH",
"389 92 OFFCURVE",
"400 85 OFFCURVE",
"407 85 CURVE",
"394 66 OFFCURVE",
"350 63 OFFCURVE",
"303 63 CURVE SMOOTH",
"270 63 OFFCURVE",
"234 65 OFFCURVE",
"207 65 CURVE",
"552 750 LINE",
"209 750 LINE SMOOTH",
"129 750 OFFCURVE",
"86 697 OFFCURVE",
"86 646 CURVE SMOOTH",
"86 618 OFFCURVE",
"98 587 OFFCURVE",
"137 587 CURVE SMOOTH",
"161 587 OFFCURVE",
"196 600 OFFCURVE",
"196 644 CURVE SMOOTH",
"196 668 OFFCURVE",
"186 676 OFFCURVE",
"179 676 CURVE",
"179 694 OFFCURVE",
"224 698 OFFCURVE",
"271 698 CURVE SMOOTH",
"306 698 OFFCURVE",
"340 696 OFFCURVE",
"361 696 CURVE",
"11 0 LINE"
);
}
);
width = 542;
}
);
unicode = 005A;
},
{
glyphname = Zdotaccent;
lastChange = "2016-04-09 11:26:51 +0000";
layers = (
{
components = (
{
name = Z;
}
);
hints = (
{
place = "{299.000000, 122.000000}";
},
{
horizontal = 1;
place = "{823.000000, 122.000000}";
}
);
layerId = UUID0;
name = Regular;
paths = (
{
closed = 1;
nodes = (
"421 917 OFFCURVE",
"393 945 OFFCURVE",
"360 945 CURVE SMOOTH",
"325 945 OFFCURVE",
"299 917 OFFCURVE",
"299 884 CURVE SMOOTH",
"299 849 OFFCURVE",
"325 823 OFFCURVE",
"360 823 CURVE SMOOTH",
"393 823 OFFCURVE",
"421 849 OFFCURVE",
"421 884 CURVE SMOOTH"
);
}
);
width = 530;
}
);
unicode = 017B;
},
{
glyphname = a;
lastChange = "2016-04-09 11:26:51 +0000";
layers = (
{
hints = (
{
place = "{-13.000000, 148.000000}";
},
{
place = "{269.000000, 135.000000}";
},
{
horizontal = 1;
place = "{-6.000000, 97.000000}";
},
{
horizontal = 1;
place = "{443.000000, 62.000000}";
}
);
layerId = UUID0;
name = Regular;
paths = (
{
closed = 1;
nodes = (
"526 179 LINE",
"511 128 OFFCURVE",
"484 85 OFFCURVE",
"445 85 CURVE SMOOTH",
"418 85 OFFCURVE",
"404 99 OFFCURVE",
"404 128 CURVE SMOOTH",
"404 138 OFFCURVE",
"405 149 OFFCURVE",
"408 160 CURVE",
"480 500 LINE",
"336 500 LINE",
"325 447 LINE",
"325 454 LINE SMOOTH",
"325 483 OFFCURVE",
"301 505 OFFCURVE",
"244 505 CURVE SMOOTH",
"70 505 OFFCURVE",
"-13 291 OFFCURVE",
"-13 155 CURVE SMOOTH",
"-13 36 OFFCURVE",
"52 -6 OFFCURVE",
"120 -6 CURVE SMOOTH",
"192 -6 OFFCURVE",
"237 41 OFFCURVE",
"269 86 CURVE",
"276 26 OFFCURVE",
"311 -6 OFFCURVE",
"367 -6 CURVE SMOOTH",
"420 -6 OFFCURVE",
"512 16 OFFCURVE",
"568 179 CURVE"
);
},
{
closed = 1;
nodes = (
"268 179 LINE",
"255 120 OFFCURVE",
"215 91 OFFCURVE",
"185 91 CURVE SMOOTH",
"167 91 OFFCURVE",
"135 93 OFFCURVE",
"135 169 CURVE SMOOTH",
"135 263 OFFCURVE",
"190 443 OFFCURVE",
"275 443 CURVE SMOOTH",
"307 443 OFFCURVE",
"316 417 OFFCURVE",
"316 405 CURVE"
);
}
);
width = 526;
}
);
unicode = 0061;
},
{
glyphname = a.end;
lastChange = "2016-04-09 11:26:51 +0000";
layers = (
{
hints = (
{
place = "{-13.000000, 148.000000}";
},
{
place = "{269.000000, 135.000000}";
},
{
horizontal = 1;
place = "{-6.000000, 97.000000}";
},
{
horizontal = 1;
place = "{443.000000, 62.000000}";
}
);
layerId = UUID0;
name = Regular;
paths = (
{
closed = 1;
nodes = (
"480 500 LINE",
"336 500 LINE",
"325 447 LINE",
"325 454 LINE SMOOTH",
"325 483 OFFCURVE",
"301 505 OFFCURVE",
"244 505 CURVE SMOOTH",
"70 505 OFFCURVE",
"-13 291 OFFCURVE",
"-13 155 CURVE SMOOTH",
"-13 36 OFFCURVE",
"52 -6 OFFCURVE",
"120 -6 CURVE SMOOTH",
"191 -6 OFFCURVE",
"239 41 OFFCURVE",
"269 87 CURVE",
"277 28 OFFCURVE",
"312 -6 OFFCURVE",
"367 -6 CURVE SMOOTH",
"420 -6 OFFCURVE",
"440 26 OFFCURVE",
"467 95 CURVE",
"461 92 OFFCURVE",
"454 91 OFFCURVE",
"445 91 CURVE SMOOTH",
"417 91 OFFCURVE",
"404 100 OFFCURVE",
"404 128 CURVE SMOOTH",
"404 138 OFFCURVE",
"405 149 OFFCURVE",
"408 160 CURVE"
);
},
{
closed = 1;
nodes = (
"268 179 LINE",
"255 120 OFFCURVE",
"215 91 OFFCURVE",
"185 91 CURVE SMOOTH",
"167 91 OFFCURVE",
"135 93 OFFCURVE",
"135 169 CURVE SMOOTH",
"135 263 OFFCURVE",
"190 443 OFFCURVE",
"275 443 CURVE SMOOTH",
"307 443 OFFCURVE",
"316 417 OFFCURVE",
"316 405 CURVE"
);
}
);
width = 467;
}
);
},
{
glyphname = a_x;
lastChange = "2016-04-09 11:26:51 +0000";
layers = (
{
hints = (
{
place = "{-13.000000, 148.000000}";
},
{
place = "{825.000000, 59.000000}";
},
{
horizontal = 1;
place = "{-6.000000, 97.000000}";
},
{
horizontal = 1;
place = "{443.000000, 62.000000}";
},
{
horizontal = 1;
place = "{453.000000, 103.000000}";
}
);
layerId = UUID0;
name = Regular;
paths = (
{
closed = 1;
nodes = (
"899 179 LINE",
"884 128 OFFCURVE",
"848 91 OFFCURVE",
"809 91 CURVE SMOOTH",
"764 91 OFFCURVE",
"758 142 OFFCURVE",
"750 179 CURVE",
"741 229 LINE",
"840 333 OFFCURVE",
"884 402 OFFCURVE",
"884 467 CURVE SMOOTH",
"884 516 OFFCURVE",
"861 556 OFFCURVE",
"816 556 CURVE SMOOTH",
"785 556 OFFCURVE",
"760 540 OFFCURVE",
"760 509 CURVE SMOOTH",
"760 478 OFFCURVE",
"772 453 OFFCURVE",
"807 453 CURVE SMOOTH",
"812 453 OFFCURVE",
"817 454 OFFCURVE",
"824 455 CURVE",
"825 452 OFFCURVE",
"825 448 OFFCURVE",
"825 443 CURVE SMOOTH",
"825 407 OFFCURVE",
"790 348 OFFCURVE",
"730 284 CURVE",
"691 500 LINE",
"550 500 LINE",
"608 185 LINE",
"566 135 OFFCURVE",
"501 91 OFFCURVE",
"448 91 CURVE SMOOTH",
"415 91 OFFCURVE",
"405 110 OFFCURVE",
"405 135 CURVE SMOOTH",
"405 142 OFFCURVE",
"406 151 OFFCURVE",
"408 160 CURVE SMOOTH",
"480 500 LINE",
"336 500 LINE",
"325 447 LINE",
"325 454 LINE SMOOTH",
"325 483 OFFCURVE",
"301 505 OFFCURVE",
"244 505 CURVE SMOOTH",
"70 505 OFFCURVE",
"-13 291 OFFCURVE",
"-13 155 CURVE SMOOTH",
"-13 36 OFFCURVE",
"52 -6 OFFCURVE",
"120 -6 CURVE SMOOTH",
"192 -6 OFFCURVE",
"239 41 OFFCURVE",
"270 88 CURVE",
"281 28 OFFCURVE",
"328 -6 OFFCURVE",
"384 -6 CURVE SMOOTH",
"465 -6 OFFCURVE",
"543 32 OFFCURVE",
"619 128 CURVE",
"642 33 OFFCURVE",
"672 -6 OFFCURVE",
"735 -6 CURVE SMOOTH",
"789 -6 OFFCURVE",
"885 16 OFFCURVE",
"941 179 CURVE"
);
},
{
closed = 1;
nodes = (
"268 179 LINE",
"255 120 OFFCURVE",
"215 91 OFFCURVE",
"185 91 CURVE SMOOTH",
"167 91 OFFCURVE",
"135 93 OFFCURVE",
"135 169 CURVE SMOOTH",
"135 263 OFFCURVE",
"190 443 OFFCURVE",
"275 443 CURVE SMOOTH",
"307 443 OFFCURVE",
"316 417 OFFCURVE",
"316 405 CURVE"
);
}
);
width = 899;
}
);
},
{
glyphname = a_x.end;
lastChange = "2016-04-09 11:26:51 +0000";
layers = (
{
hints = (
{
place = "{-13.000000, 148.000000}";
},
{
place = "{825.000000, 59.000000}";
},
{
horizontal = 1;
place = "{-6.000000, 97.000000}";
},
{
horizontal = 1;
place = "{443.000000, 62.000000}";
},
{
horizontal = 1;
place = "{453.000000, 103.000000}";
}
);
layerId = UUID0;
name = Regular;
paths = (
{
closed = 1;
nodes = (
"741 229 LINE",
"840 333 OFFCURVE",
"884 402 OFFCURVE",
"884 467 CURVE SMOOTH",
"884 516 OFFCURVE",
"861 556 OFFCURVE",
"816 556 CURVE SMOOTH",
"785 556 OFFCURVE",
"760 540 OFFCURVE",
"760 509 CURVE SMOOTH",
"760 478 OFFCURVE",
"772 453 OFFCURVE",
"807 453 CURVE SMOOTH",
"812 453 OFFCURVE",
"817 454 OFFCURVE",
"824 455 CURVE",
"825 452 OFFCURVE",
"825 448 OFFCURVE",
"825 443 CURVE SMOOTH",
"825 407 OFFCURVE",
"790 348 OFFCURVE",
"730 284 CURVE",
"691 500 LINE",
"550 500 LINE",
"608 185 LINE",
"566 135 OFFCURVE",
"501 91 OFFCURVE",
"448 91 CURVE SMOOTH",
"415 91 OFFCURVE",
"405 110 OFFCURVE",
"405 135 CURVE SMOOTH",
"405 142 OFFCURVE",
"406 151 OFFCURVE",
"408 160 CURVE SMOOTH",
"480 500 LINE",
"336 500 LINE",
"325 447 LINE",
"325 454 LINE SMOOTH",
"325 483 OFFCURVE",
"301 505 OFFCURVE",
"244 505 CURVE SMOOTH",
"70 505 OFFCURVE",
"-13 291 OFFCURVE",
"-13 155 CURVE SMOOTH",
"-13 36 OFFCURVE",
"52 -6 OFFCURVE",
"120 -6 CURVE SMOOTH",
"192 -6 OFFCURVE",
"239 41 OFFCURVE",
"270 88 CURVE",
"281 28 OFFCURVE",
"328 -6 OFFCURVE",
"384 -6 CURVE SMOOTH",
"465 -6 OFFCURVE",
"543 32 OFFCURVE",
"619 128 CURVE",
"642 33 OFFCURVE",
"672 -6 OFFCURVE",
"735 -6 CURVE SMOOTH",
"788 -6 OFFCURVE",
"840 26 OFFCURVE",
"845 97 CURVE",
"838 94 OFFCURVE",
"832 91 OFFCURVE",
"813 91 CURVE SMOOTH",
"769 91 OFFCURVE",
"761 119 OFFCURVE",
"750 179 CURVE SMOOTH"
);
},
{
closed = 1;
nodes = (
"268 179 LINE",
"255 120 OFFCURVE",
"215 91 OFFCURVE",
"185 91 CURVE SMOOTH",
"167 91 OFFCURVE",
"135 93 OFFCURVE",
"135 169 CURVE SMOOTH",
"135 263 OFFCURVE",
"190 443 OFFCURVE",
"275 443 CURVE SMOOTH",
"307 443 OFFCURVE",
"316 417 OFFCURVE",
"316 405 CURVE"
);
}
);
width = 884;
}
);
},
{
glyphname = acute;
lastChange = "2016-04-09 11:26:51 +0000";
layers = (
{
hints = (
{
place = "{120.000000, 196.000000}";
},
{
horizontal = 1;
place = "{561.000000, 189.000000}";
}
);
layerId = UUID0;
name = Regular;
paths = (
{
closed = 1;
nodes = (
"195 561 LINE",
"316 750 LINE",
"211 750 LINE",
"120 561 LINE"
);
}
);
width = 316;
}
);
unicode = 00B4;
},
{
glyphname = ae;
lastChange = "2016-04-09 11:26:51 +0000";
layers = (
{
hints = (
{
place = "{-8.000000, 141.000000}";
},
{
place = "{556.000000, 77.000000}";
},
{
horizontal = 1;
place = "{-4.000000, 82.000000}";
},
{
horizontal = 1;
place = "{229.000000, 61.000000}";
},
{
horizontal = 1;
place = "{445.000000, 60.000000}";
},
{
horizontal = 1;
place = "{456.000000, 53.000000}";
},
{
horizontal = 1;
place = "{-6.000000, 97.000000}";
}
);
layerId = UUID0;
name = Regular;
paths = (
{
closed = 1;
nodes = (
"650 179 LINE",
"594 118 OFFCURVE",
"558 78 OFFCURVE",
"461 78 CURVE SMOOTH",
"425 78 OFFCURVE",
"401 95 OFFCURVE",
"401 170 CURVE SMOOTH",
"401 181 OFFCURVE",
"402 191 OFFCURVE",
"403 202 CURVE",
"523 210 OFFCURVE",
"633 298 OFFCURVE",
"633 410 CURVE SMOOTH",
"633 463 OFFCURVE",
"613 509 OFFCURVE",
"524 509 CURVE SMOOTH",
"469 509 OFFCURVE",
"425 492 OFFCURVE",
"389 465 CURVE",
"354 493 OFFCURVE",
"310 505 OFFCURVE",
"259 505 CURVE SMOOTH",
"203 505 OFFCURVE",
"152 502 OFFCURVE",
"77 427 CURVE",
"105 398 LINE",
"134 425 OFFCURVE",
"166 445 OFFCURVE",
"226 445 CURVE SMOOTH",
"269 445 OFFCURVE",
"287 414 OFFCURVE",
"287 374 CURVE SMOOTH",
"287 346 OFFCURVE",
"279 314 OFFCURVE",
"266 286 CURVE",
"254 289 OFFCURVE",
"238 290 OFFCURVE",
"214 290 CURVE SMOOTH",
"89 290 OFFCURVE",
"-8 248 OFFCURVE",
"-8 124 CURVE SMOOTH",
"-8 18 OFFCURVE",
"60 -6 OFFCURVE",
"119 -6 CURVE SMOOTH",
"198 -6 OFFCURVE",
"234 39 OFFCURVE",
"261 90 CURVE",
"280 22 OFFCURVE",
"335 -4 OFFCURVE",
"408 -4 CURVE SMOOTH",
"543 -4 OFFCURVE",
"629 89 OFFCURVE",
"684 179 CURVE"
);
},
{
closed = 1;
nodes = (
"431 346 OFFCURVE",
"479 456 OFFCURVE",
"532 456 CURVE SMOOTH",
"551 456 OFFCURVE",
"556 440 OFFCURVE",
"556 412 CURVE SMOOTH",
"556 333 OFFCURVE",
"487 255 OFFCURVE",
"410 250 CURVE"
);
},
{
closed = 1;
nodes = (
"238 119 OFFCURVE",
"213 91 OFFCURVE",
"179 91 CURVE SMOOTH",
"167 91 OFFCURVE",
"133 96 OFFCURVE",
"133 141 CURVE SMOOTH",
"133 194 OFFCURVE",
"177 229 OFFCURVE",
"242 229 CURVE SMOOTH",
"249 229 OFFCURVE",
"252 229 OFFCURVE",
"259 228 CURVE"
);
}
);
width = 650;
}
);
unicode = 00E6;
},
{
glyphname = ampersand;
lastChange = "2016-04-09 11:26:51 +0000";
layers = (
{
hints = (
{
place = "{93.000000, 135.000000}";
},
{
place = "{416.000000, 83.000000}";
},
{
place = "{11.000000, 175.000000}";
},
{
horizontal = 1;
place = "{-6.000000, 90.000000}";
},
{
horizontal = 1;
place = "{278.000000, 97.000000}";
},
{
horizontal = 1;
place = "{706.000000, 44.000000}";
}
);
layerId = UUID0;
name = Regular;
paths = (
{
closed = 1;
nodes = (
"676 413 LINE",
"659 382 OFFCURVE",
"618 370 OFFCURVE",
"581 370 CURVE SMOOTH",
"556 370 OFFCURVE",
"533 375 OFFCURVE",
"505 375 CURVE SMOOTH",
"401 375 OFFCURVE",
"332 317 OFFCURVE",
"312 234 CURVE",
"319 233 LINE",
"338 263 OFFCURVE",
"369 278 OFFCURVE",
"413 278 CURVE SMOOTH",
"436 278 OFFCURVE",
"459 275 OFFCURVE",
"484 272 CURVE",
"452 126 OFFCURVE",
"372 84 OFFCURVE",
"303 84 CURVE SMOOTH",
"239 84 OFFCURVE",
"186 144 OFFCURVE",
"186 217 CURVE SMOOTH",
"186 287 OFFCURVE",
"233 365 OFFCURVE",
"360 418 CURVE",
"265 461 OFFCURVE",
"228 524 OFFCURVE",
"228 583 CURVE SMOOTH",
"228 650 OFFCURVE",
"278 706 OFFCURVE",
"350 706 CURVE SMOOTH",
"414 706 OFFCURVE",
"416 648 OFFCURVE",
"416 632 CURVE SMOOTH",
"416 607 OFFCURVE",
"396 558 OFFCURVE",
"372 550 CURVE",
"391 527 OFFCURVE",
"413 524 OFFCURVE",
"429 524 CURVE SMOOTH",
"480 524 OFFCURVE",
"499 563 OFFCURVE",
"499 616 CURVE SMOOTH",
"499 712 OFFCURVE",
"408 750 OFFCURVE",
"315 750 CURVE SMOOTH",
"173 750 OFFCURVE",
"93 660 OFFCURVE",
"93 569 CURVE SMOOTH",
"93 512 OFFCURVE",
"124 454 OFFCURVE",
"192 417 CURVE",
"72 393 OFFCURVE",
"11 291 OFFCURVE",
"11 196 CURVE SMOOTH",
"11 93 OFFCURVE",
"80 -6 OFFCURVE",
"218 -6 CURVE SMOOTH",
"317 -6 OFFCURVE",
"453 -1 OFFCURVE",
"530 274 CURVE",
"613 287 OFFCURVE",
"682 357 OFFCURVE",
"682 413 CURVE"
);
}
);
width = 682;
}
);
unicode = 0026;
},
{
glyphname = aogonek;
lastChange = "2016-04-09 11:26:51 +0000";
layers = (
{
hints = (
{
place = "{-13.000000, 148.000000}";
},
{
place = "{289.000000, 83.000000}";
},
{
place = "{269.000000, 135.000000}";
},
{
horizontal = 1;
place = "{-193.000000, 59.000000}";
},
{
horizontal = 1;
place = "{-6.000000, 97.000000}";
},
{
horizontal = 1;
place = "{443.000000, 62.000000}";
}
);
layerId = UUID0;
name = Regular;
paths = (
{
closed = 1;
nodes = (
"526 179 LINE",
"511 128 OFFCURVE",
"484 85 OFFCURVE",
"445 85 CURVE SMOOTH",
"418 85 OFFCURVE",
"404 99 OFFCURVE",
"404 128 CURVE SMOOTH",
"404 138 OFFCURVE",
"405 149 OFFCURVE",
"408 160 CURVE",
"480 500 LINE",
"336 500 LINE",
"325 447 LINE",
"325 454 LINE SMOOTH",
"325 483 OFFCURVE",
"301 505 OFFCURVE",
"244 505 CURVE SMOOTH",
"70 505 OFFCURVE",
"-13 291 OFFCURVE",
"-13 155 CURVE SMOOTH",
"-13 36 OFFCURVE",
"52 -6 OFFCURVE",
"120 -6 CURVE SMOOTH",
"192 -6 OFFCURVE",
"237 41 OFFCURVE",
"269 86 CURVE",
"274 30 OFFCURVE",
"305 0 OFFCURVE",
"353 -5 CURVE",
"310 -42 OFFCURVE",
"289 -80 OFFCURVE",
"289 -115 CURVE SMOOTH",
"289 -150 OFFCURVE",
"313 -193 OFFCURVE",
"368 -193 CURVE SMOOTH",
"418 -193 OFFCURVE",
"454 -154 OFFCURVE",
"477 -131 CURVE",
"477 -119 OFFCURVE",
"478 -112 OFFCURVE",
"479 -100 CURVE",
"459 -113 OFFCURVE",
"435 -134 OFFCURVE",
"411 -134 CURVE SMOOTH",
"383 -134 OFFCURVE",
"372 -107 OFFCURVE",
"372 -84 CURVE SMOOTH",
"372 -43 OFFCURVE",
"406 -6 OFFCURVE",
"428 5 CURVE",
"476 26 OFFCURVE",
"528 69 OFFCURVE",
"568 179 CURVE"
);
},
{
closed = 1;
nodes = (
"268 179 LINE",
"255 120 OFFCURVE",
"215 91 OFFCURVE",
"185 91 CURVE SMOOTH",
"167 91 OFFCURVE",
"135 93 OFFCURVE",
"135 169 CURVE SMOOTH",
"135 263 OFFCURVE",
"190 443 OFFCURVE",
"275 443 CURVE SMOOTH",
"307 443 OFFCURVE",
"316 417 OFFCURVE",
"316 405 CURVE"
);
}
);
width = 526;
}
);
unicode = 0105;
},
{
glyphname = asciicircum;
lastChange = "2016-04-09 11:26:51 +0000";
layers = (
{
hints = (
{
place = "{50.000000, 293.000000}";
},
{
horizontal = 1;
place = "{561.000000, 189.000000}";
}
);
layerId = UUID0;
name = Regular;
paths = (
{
closed = 1;
nodes = (
"343 561 LINE",
"283 750 LINE",
"262 750 LINE",
"50 561 LINE",
"94 561 LINE",
"251 641 LINE",
"311 561 LINE"
);
}
);
width = 421;
}
);
unicode = 005E;
},
{
glyphname = asciitilde;
lastChange = "2016-04-09 11:26:51 +0000";
layers = (
{
hints = (
{
place = "{49.000000, 401.000000}";
},
{
horizontal = 1;
place = "{569.000000, 78.000000}";
},
{
horizontal = 1;
place = "{606.000000, 74.000000}";
}
);
layerId = UUID0;
name = Regular;
paths = (
{
closed = 1;
nodes = (
"444 670 LINE",
"429 655 OFFCURVE",
"406 647 OFFCURVE",
"381 647 CURVE SMOOTH",
"323 647 OFFCURVE",
"288 680 OFFCURVE",
"216 680 CURVE SMOOTH",
"140 680 OFFCURVE",
"81 646 OFFCURVE",
"49 582 CURVE",
"55 580 LINE",
"74 597 OFFCURVE",
"96 606 OFFCURVE",
"121 606 CURVE SMOOTH",
"177 606 OFFCURVE",
"222 569 OFFCURVE",
"289 569 CURVE SMOOTH",
"365 569 OFFCURVE",
"440 622 OFFCURVE",
"450 669 CURVE"
);
}
);
width = 431;
}
);
unicode = 007E;
},
{
glyphname = asterisk;
lastChange = "2016-04-09 11:26:51 +0000";
layers = (
{
hints = (
{
place = "{223.000000, 64.000000}";
},
{
horizontal = 1;
place = "{376.000000, 376.000000}";
}
);
layerId = UUID0;
name = Regular;
paths = (
{
closed = 1;
nodes = (
"394 449 LINE",
"424 501 LINE",
"315 564 LINE",
"424 627 LINE",
"394 679 LINE",
"287 617 LINE",
"287 752 LINE",
"223 752 LINE",
"223 617 LINE",
"116 679 LINE",
"86 627 LINE",
"195 564 LINE",
"86 501 LINE",
"116 449 LINE",
"223 511 LINE",
"223 376 LINE",
"287 376 LINE",
"287 511 LINE"
);
}
);
width = 515;
}
);
unicode = 002A;
},
{
glyphname = at;
lastChange = "2016-04-09 11:26:51 +0000";
layers = (
{
hints = (
{
place = "{-8.000000, 110.000000}";
},
{
place = "{154.000000, 65.000000}";
},
{
place = "{270.000000, 64.000000}";
},
{
place = "{424.000000, 67.000000}";
},
{
horizontal = 1;
place = "{-38.000000, 90.000000}";
},
{
horizontal = 1;
place = "{136.000000, 54.000000}";
},
{
horizontal = 1;
place = "{390.000000, 42.000000}";
},
{
horizontal = 1;
place = "{493.000000, 64.000000}";
},
{
horizontal = 1;
place = "{120.000000, 61.000000}";
}
);
layerId = UUID0;
name = Regular;
paths = (
{
closed = 1;
nodes = (
"383 424 LINE",
"328 430 LINE",
"324 414 LINE",
"317 423 OFFCURVE",
"305 432 OFFCURVE",
"286 432 CURVE SMOOTH",
"202 432 OFFCURVE",
"154 257 OFFCURVE",
"154 189 CURVE SMOOTH",
"154 145 OFFCURVE",
"174 120 OFFCURVE",
"218 120 CURVE SMOOTH",
"243 120 OFFCURVE",
"264 140 OFFCURVE",
"277 159 CURVE",
"285 144 OFFCURVE",
"298 136 OFFCURVE",
"321 136 CURVE SMOOTH",
"406 136 OFFCURVE",
"491 270 OFFCURVE",
"491 400 CURVE SMOOTH",
"491 539 OFFCURVE",
"394 557 OFFCURVE",
"333 557 CURVE SMOOTH",
"146 557 OFFCURVE",
"-8 382 OFFCURVE",
"-8 164 CURVE SMOOTH",
"-8 10 OFFCURVE",
"70 -38 OFFCURVE",
"195 -38 CURVE SMOOTH",
"320 -38 OFFCURVE",
"397 10 OFFCURVE",
"397 73 CURVE SMOOTH",
"397 89 OFFCURVE",
"393 110 OFFCURVE",
"374 118 CURVE",
"341 74 OFFCURVE",
"299 52 OFFCURVE",
"224 52 CURVE SMOOTH",
"126 52 OFFCURVE",
"102 90 OFFCURVE",
"102 170 CURVE SMOOTH",
"102 322 OFFCURVE",
"189 493 OFFCURVE",
"336 493 CURVE SMOOTH",
"409 493 OFFCURVE",
"424 450 OFFCURVE",
"424 414 CURVE SMOOTH",
"424 358 OFFCURVE",
"387 190 OFFCURVE",
"347 190 CURVE SMOOTH",
"338 190 OFFCURVE",
"334 196 OFFCURVE",
"334 209 CURVE SMOOTH",
"334 216 OFFCURVE",
"335 224 OFFCURVE",
"338 232 CURVE"
);
},
{
closed = 1;
nodes = (
"273 216 LINE",
"271 209 OFFCURVE",
"270 202 OFFCURVE",
"270 195 CURVE",
"258 187 OFFCURVE",
"246 181 OFFCURVE",
"237 181 CURVE SMOOTH",
"225 181 OFFCURVE",
"219 191 OFFCURVE",
"219 212 CURVE SMOOTH",
"219 253 OFFCURVE",
"239 390 OFFCURVE",
"298 390 CURVE SMOOTH",
"305 390 OFFCURVE",
"311 387 OFFCURVE",
"316 382 CURVE"
);
}
);
width = 562;
}
);
unicode = 0040;
},
{
glyphname = b;
lastChange = "2016-04-09 11:26:51 +0000";
layers = (
{
hints = (
{
place = "{-7.000000, 143.000000}";
},
{
place = "{306.000000, 101.000000}";
},
{
horizontal = 1;
place = "{-6.000000, 97.000000}";
},
{
horizontal = 1;
place = "{432.000000, 71.000000}";
}
);
layerId = UUID0;
name = Regular;
paths = (
{
closed = 1;
nodes = (
"0 179 LINE",
"-5 160 OFFCURVE",
"-7 141 OFFCURVE",
"-7 122 CURVE SMOOTH",
"-7 42 OFFCURVE",
"41 -6 OFFCURVE",
"133 -6 CURVE SMOOTH",
"345 -6 OFFCURVE",
"407 215 OFFCURVE",
"407 332 CURVE SMOOTH",
"407 459 OFFCURVE",
"359 503 OFFCURVE",
"289 503 CURVE SMOOTH",
"269 503 OFFCURVE",
"248 500 OFFCURVE",
"207 475 CURVE",
"255 700 LINE",
"107 680 LINE"
);
},
{
closed = 1;
nodes = (
"194 414 LINE",
"205 428 OFFCURVE",
"239 432 OFFCURVE",
"253 432 CURVE SMOOTH",
"289 432 OFFCURVE",
"306 385 OFFCURVE",
"306 336 CURVE SMOOTH",
"306 231 OFFCURVE",
"254 91 OFFCURVE",
"189 91 CURVE SMOOTH",
"154 91 OFFCURVE",
"136 106 OFFCURVE",
"136 137 CURVE SMOOTH",
"136 144 OFFCURVE",
"137 152 OFFCURVE",
"139 160 CURVE SMOOTH"
);
}
);
width = 444;
}
);
unicode = 0062;
},
{
glyphname = b_s;
lastChange = "2016-04-09 11:26:51 +0000";
layers = (
{
components = (
{
name = b;
}
);
hints = (
{
place = "{416.000000, 49.000000}";
},
{
place = "{586.000000, 145.000000}";
},
{
horizontal = 1;
place = "{-6.000000, 79.000000}";
},
{
horizontal = 1;
place = "{135.000000, 87.000000}";
},
{
horizontal = 1;
place = "{291.000000, 61.000000}";
}
);
layerId = UUID0;
name = Regular;
paths = (
{
closed = 1;
nodes = (
"799 179 LINE",
"780 164 OFFCURVE",
"755 145 OFFCURVE",
"728 130 CURVE",
"730 141 OFFCURVE",
"731 153 OFFCURVE",
"731 167 CURVE SMOOTH",
"731 234 OFFCURVE",
"720 271 OFFCURVE",
"709 531 CURVE",
"561 511 LINE",
"502 411 OFFCURVE",
"447 353 OFFCURVE",
"395 352 CURVE",
"342 396 LINE",
"313 396 OFFCURVE",
"288 377 OFFCURVE",
"288 338 CURVE SMOOTH",
"288 307 OFFCURVE",
"302 291 OFFCURVE",
"331 291 CURVE SMOOTH",
"419 291 OFFCURVE",
"497 338 OFFCURVE",
"564 438 CURVE",
"575 253 OFFCURVE",
"586 221 OFFCURVE",
"586 166 CURVE SMOOTH",
"586 95 OFFCURVE",
"567 73 OFFCURVE",
"523 73 CURVE SMOOTH",
"484 73 OFFCURVE",
"465 101 OFFCURVE",
"465 148 CURVE",
"470 137 OFFCURVE",
"481 135 OFFCURVE",
"492 135 CURVE SMOOTH",
"519 135 OFFCURVE",
"540 156 OFFCURVE",
"540 180 CURVE SMOOTH",
"540 208 OFFCURVE",
"523 222 OFFCURVE",
"488 222 CURVE SMOOTH",
"453 222 OFFCURVE",
"416 186 OFFCURVE",
"416 127 CURVE SMOOTH",
"416 66 OFFCURVE",
"436 -6 OFFCURVE",
"555 -6 CURVE SMOOTH",
"610 -6 OFFCURVE",
"667 11 OFFCURVE",
"702 62 CURVE",
"745 89 OFFCURVE",
"794 124 OFFCURVE",
"841 179 CURVE"
);
}
);
width = 799;
}
);
},
{
glyphname = b_s.end;
lastChange = "2016-04-09 11:26:51 +0000";
layers = (
{
components = (
{
name = b;
}
);
hints = (
{
place = "{416.000000, 49.000000}";
},
{
place = "{586.000000, 145.000000}";
},
{
horizontal = 1;
place = "{-6.000000, 79.000000}";
},
{
horizontal = 1;
place = "{135.000000, 87.000000}";
},
{
horizontal = 1;
place = "{291.000000, 61.000000}";
}
);
layerId = UUID0;
name = Regular;
paths = (
{
closed = 1;
nodes = (
"561 511 LINE",
"502 411 OFFCURVE",
"447 353 OFFCURVE",
"395 352 CURVE",
"342 396 LINE",
"313 396 OFFCURVE",
"288 377 OFFCURVE",
"288 338 CURVE SMOOTH",
"288 307 OFFCURVE",
"302 291 OFFCURVE",
"331 291 CURVE SMOOTH",
"419 291 OFFCURVE",
"497 338 OFFCURVE",
"564 438 CURVE",
"575 253 OFFCURVE",
"586 221 OFFCURVE",
"586 166 CURVE SMOOTH",
"586 95 OFFCURVE",
"567 73 OFFCURVE",
"523 73 CURVE SMOOTH",
"484 73 OFFCURVE",
"465 101 OFFCURVE",
"465 148 CURVE",
"470 137 OFFCURVE",
"481 135 OFFCURVE",
"492 135 CURVE SMOOTH",
"519 135 OFFCURVE",
"540 156 OFFCURVE",
"540 180 CURVE SMOOTH",
"540 208 OFFCURVE",
"523 222 OFFCURVE",
"488 222 CURVE SMOOTH",
"453 222 OFFCURVE",
"416 186 OFFCURVE",
"416 127 CURVE SMOOTH",
"416 66 OFFCURVE",
"436 -6 OFFCURVE",
"555 -6 CURVE SMOOTH",
"637 -6 OFFCURVE",
"731 36 OFFCURVE",
"731 167 CURVE SMOOTH",
"731 234 OFFCURVE",
"720 271 OFFCURVE",
"709 531 CURVE"
);
}
);
width = 731;
}
);
},
{
glyphname = b_s_x;
lastChange = "2016-04-09 11:26:51 +0000";
layers = (
{
components = (
{
name = b;
}
);
hints = (
{
place = "{416.000000, 49.000000}";
},
{
place = "{586.000000, 145.000000}";
},
{
place = "{1070.000000, 59.000000}";
},
{
horizontal = 1;
place = "{-6.000000, 97.000000}";
},
{
horizontal = 1;
place = "{135.000000, 87.000000}";
},
{
horizontal = 1;
place = "{291.000000, 61.000000}";
},
{
horizontal = 1;
place = "{453.000000, 103.000000}";
},
{
horizontal = 1;
place = "{-6.000000, 79.000000}";
}
);
layerId = UUID0;
name = Regular;
paths = (
{
closed = 1;
nodes = (
"1144 179 LINE",
"1129 128 OFFCURVE",
"1093 91 OFFCURVE",
"1054 91 CURVE SMOOTH",
"1009 91 OFFCURVE",
"1003 142 OFFCURVE",
"995 179 CURVE",
"986 229 LINE",
"1085 333 OFFCURVE",
"1129 402 OFFCURVE",
"1129 467 CURVE SMOOTH",
"1129 516 OFFCURVE",
"1106 556 OFFCURVE",
"1061 556 CURVE SMOOTH",
"1030 556 OFFCURVE",
"1005 540 OFFCURVE",
"1005 509 CURVE SMOOTH",
"1005 478 OFFCURVE",
"1017 453 OFFCURVE",
"1052 453 CURVE SMOOTH",
"1057 453 OFFCURVE",
"1062 454 OFFCURVE",
"1069 455 CURVE",
"1070 452 OFFCURVE",
"1070 448 OFFCURVE",
"1070 443 CURVE SMOOTH",
"1070 407 OFFCURVE",
"1035 348 OFFCURVE",
"975 284 CURVE",
"936 500 LINE",
"795 500 LINE",
"851 195 LINE",
"816 166 OFFCURVE",
"768 140 OFFCURVE",
"727 123 CURVE",
"730 136 OFFCURVE",
"731 151 OFFCURVE",
"731 167 CURVE SMOOTH",
"731 234 OFFCURVE",
"720 271 OFFCURVE",
"709 531 CURVE",
"561 511 LINE",
"502 411 OFFCURVE",
"447 353 OFFCURVE",
"395 352 CURVE",
"342 396 LINE",
"313 396 OFFCURVE",
"288 377 OFFCURVE",
"288 338 CURVE SMOOTH",
"288 307 OFFCURVE",
"302 291 OFFCURVE",
"331 291 CURVE SMOOTH",
"419 291 OFFCURVE",
"497 338 OFFCURVE",
"564 438 CURVE",
"575 253 OFFCURVE",
"586 221 OFFCURVE",
"586 166 CURVE SMOOTH",
"586 95 OFFCURVE",
"567 73 OFFCURVE",
"523 73 CURVE SMOOTH",
"484 73 OFFCURVE",
"465 101 OFFCURVE",
"465 148 CURVE",
"470 137 OFFCURVE",
"481 135 OFFCURVE",
"492 135 CURVE SMOOTH",
"519 135 OFFCURVE",
"540 156 OFFCURVE",
"540 180 CURVE SMOOTH",
"540 208 OFFCURVE",
"523 222 OFFCURVE",
"488 222 CURVE SMOOTH",
"453 222 OFFCURVE",
"416 186 OFFCURVE",
"416 127 CURVE SMOOTH",
"416 66 OFFCURVE",
"436 -6 OFFCURVE",
"555 -6 CURVE SMOOTH",
"608 -6 OFFCURVE",
"665 12 OFFCURVE",
"700 60 CURVE",
"743 81 OFFCURVE",
"810 107 OFFCURVE",
"861 142 CURVE",
"885 38 OFFCURVE",
"912 -6 OFFCURVE",
"980 -6 CURVE SMOOTH",
"1034 -6 OFFCURVE",
"1130 16 OFFCURVE",
"1186 179 CURVE"
);
}
);
width = 1144;
}
);
},
{
glyphname = b_s_z;
lastChange = "2016-04-09 11:26:51 +0000";
layers = (
{
components = (
{
name = b;
},
{
name = z;
transform = "{1, 0, 0, 1, 730, 0}";
}
);
hints = (
{
place = "{416.000000, 49.000000}";
},
{
place = "{586.000000, 145.000000}";
},
{
horizontal = 1;
place = "{-6.000000, 79.000000}";
},
{
horizontal = 1;
place = "{135.000000, 87.000000}";
},
{
horizontal = 1;
place = "{291.000000, 61.000000}";
}
);
layerId = UUID0;
name = Regular;
paths = (
{
closed = 1;
nodes = (
"561 511 LINE",
"502 411 OFFCURVE",
"447 353 OFFCURVE",
"395 352 CURVE",
"342 396 LINE",
"313 396 OFFCURVE",
"288 377 OFFCURVE",
"288 338 CURVE SMOOTH",
"288 307 OFFCURVE",
"302 291 OFFCURVE",
"331 291 CURVE SMOOTH",
"419 291 OFFCURVE",
"497 338 OFFCURVE",
"564 438 CURVE",
"575 253 OFFCURVE",
"586 221 OFFCURVE",
"586 166 CURVE SMOOTH",
"586 95 OFFCURVE",
"567 73 OFFCURVE",
"523 73 CURVE SMOOTH",
"484 73 OFFCURVE",
"465 101 OFFCURVE",
"465 148 CURVE",
"470 137 OFFCURVE",
"481 135 OFFCURVE",
"492 135 CURVE SMOOTH",
"519 135 OFFCURVE",
"540 156 OFFCURVE",
"540 180 CURVE SMOOTH",
"540 208 OFFCURVE",
"523 222 OFFCURVE",
"488 222 CURVE SMOOTH",
"453 222 OFFCURVE",
"416 186 OFFCURVE",
"416 127 CURVE SMOOTH",
"416 66 OFFCURVE",
"436 -6 OFFCURVE",
"555 -6 CURVE SMOOTH",
"637 -6 OFFCURVE",
"731 36 OFFCURVE",
"731 167 CURVE SMOOTH",
"731 234 OFFCURVE",
"720 271 OFFCURVE",
"709 531 CURVE"
);
}
);
width = 1158;
}
);
},
{
glyphname = backslash;
lastChange = "2016-04-09 11:26:51 +0000";
layers = (
{
hints = (
{
place = "{42.000000, 284.000000}";
},
{
horizontal = 1;
place = "{-250.000000, 1000.000000}";
}
);
layerId = UUID0;
name = Regular;
paths = (
{
closed = 1;
nodes = (
"326 -250 LINE",
"114 750 LINE",
"42 750 LINE",
"254 -250 LINE"
);
}
);
width = 362;
}
);
unicode = 005C;
},
{
glyphname = bar;
lastChange = "2016-04-09 11:26:51 +0000";
layers = (
{
hints = (
{
place = "{219.000000, 93.000000}";
},
{
horizontal = 1;
place = "{-250.000000, 1001.000000}";
}
);
layerId = UUID0;
name = Regular;
paths = (
{
closed = 1;
nodes = (
"312 -250 LINE",
"312 751 LINE",
"219 751 LINE",
"219 -250 LINE"
);
}
);
width = 532;
}
);
unicode = 007C;
},
{
glyphname = braceleft;
lastChange = "2016-04-09 11:26:51 +0000";
layers = (
{
hints = (
{
place = "{30.000000, 66.000000}";
},
{
place = "{187.000000, 53.000000}";
},
{
place = "{150.000000, 65.000000}";
},
{
horizontal = 1;
place = "{-249.000000, 45.000000}";
},
{
horizontal = 1;
place = "{228.000000, 51.000000}";
},
{
horizontal = 1;
place = "{700.000000, 50.000000}";
}
);
layerId = UUID0;
name = Regular;
paths = (
{
closed = 1;
nodes = (
"172 -249 LINE",
"181 -204 LINE",
"118 -204 OFFCURVE",
"96 -172 OFFCURVE",
"96 -124 CURVE SMOOTH",
"96 -25 OFFCURVE",
"215 130 OFFCURVE",
"215 218 CURVE SMOOTH",
"215 233 OFFCURVE",
"211 245 OFFCURVE",
"203 254 CURVE",
"227 274 OFFCURVE",
"240 306 OFFCURVE",
"243 365 CURVE",
"237 536 LINE",
"238 591 OFFCURVE",
"247 634 OFFCURVE",
"283 674 CURVE SMOOTH",
"306 698 OFFCURVE",
"333 700 OFFCURVE",
"374 700 CURVE",
"383 750 LINE",
"340 750 LINE SMOOTH",
"221 750 OFFCURVE",
"180 625 OFFCURVE",
"180 549 CURVE SMOOTH",
"180 498 OFFCURVE",
"187 446 OFFCURVE",
"187 390 CURVE SMOOTH",
"187 342 OFFCURVE",
"184 279 OFFCURVE",
"120 279 CURVE SMOOTH",
"111 279 OFFCURVE",
"101 280 OFFCURVE",
"89 282 CURVE",
"77 225 LINE",
"90 227 OFFCURVE",
"100 228 OFFCURVE",
"109 228 CURVE SMOOTH",
"141 228 OFFCURVE",
"150 216 OFFCURVE",
"150 197 CURVE SMOOTH",
"150 190 OFFCURVE",
"149 183 OFFCURVE",
"147 175 CURVE SMOOTH",
"121 62 OFFCURVE",
"30 -47 OFFCURVE",
"30 -140 CURVE SMOOTH",
"30 -163 OFFCURVE",
"34 -186 OFFCURVE",
"49 -207 CURVE SMOOTH",
"76 -247 OFFCURVE",
"103 -249 OFFCURVE",
"163 -249 CURVE SMOOTH"
);
}
);
width = 352;
}
);
unicode = 007B;
},
{
glyphname = braceright;
lastChange = "2016-04-09 11:26:51 +0000";
layers = (
{
hints = (
{
place = "{173.000000, 53.000000}";
},
{
place = "{317.000000, 66.000000}";
},
{
place = "{198.000000, 65.000000}";
},
{
horizontal = 1;
place = "{-249.000000, 50.000000}";
},
{
horizontal = 1;
place = "{222.000000, 51.000000}";
},
{
horizontal = 1;
place = "{705.000000, 45.000000}";
}
);
layerId = UUID0;
name = Regular;
paths = (
{
closed = 1;
nodes = (
"73 -249 LINE SMOOTH",
"192 -249 OFFCURVE",
"233 -124 OFFCURVE",
"233 -48 CURVE SMOOTH",
"233 3 OFFCURVE",
"226 55 OFFCURVE",
"226 111 CURVE SMOOTH",
"226 159 OFFCURVE",
"229 222 OFFCURVE",
"293 222 CURVE SMOOTH",
"302 222 OFFCURVE",
"312 221 OFFCURVE",
"324 219 CURVE",
"336 276 LINE",
"323 274 OFFCURVE",
"312 273 OFFCURVE",
"304 273 CURVE SMOOTH",
"272 273 OFFCURVE",
"263 285 OFFCURVE",
"263 304 CURVE SMOOTH",
"263 311 OFFCURVE",
"264 318 OFFCURVE",
"266 326 CURVE SMOOTH",
"292 439 OFFCURVE",
"383 548 OFFCURVE",
"383 641 CURVE SMOOTH",
"383 664 OFFCURVE",
"379 687 OFFCURVE",
"364 708 CURVE SMOOTH",
"337 748 OFFCURVE",
"310 750 OFFCURVE",
"250 750 CURVE SMOOTH",
"241 750 LINE",
"232 705 LINE",
"295 705 OFFCURVE",
"317 673 OFFCURVE",
"317 625 CURVE SMOOTH",
"317 524 OFFCURVE",
"198 371 OFFCURVE",
"198 283 CURVE SMOOTH",
"198 268 OFFCURVE",
"202 256 OFFCURVE",
"210 247 CURVE",
"186 227 OFFCURVE",
"173 195 OFFCURVE",
"170 136 CURVE",
"176 -35 LINE",
"175 -90 OFFCURVE",
"166 -133 OFFCURVE",
"130 -173 CURVE SMOOTH",
"107 -197 OFFCURVE",
"80 -199 OFFCURVE",
"39 -199 CURVE",
"30 -249 LINE"
);
}
);
width = 352;
}
);
unicode = 007D;
},
{
glyphname = bracketleft;
lastChange = "2016-04-09 11:26:51 +0000";
layers = (
{
hints = (
{
place = "{-24.000000, 405.000000}";
},
{
horizontal = 1;
place = "{-250.000000, 62.000000}";
},
{
horizontal = 1;
place = "{688.000000, 62.000000}";
}
);
layerId = UUID0;
name = Regular;
paths = (
{
closed = 1;
nodes = (
"169 -250 LINE",
"182 -188 LINE",
"61 -188 LINE",
"247 688 LINE",
"368 688 LINE",
"381 750 LINE",
"188 750 LINE",
"-24 -250 LINE"
);
}
);
width = 400;
}
);
unicode = 005B;
},
{
glyphname = bracketright;
lastChange = "2016-04-09 11:26:51 +0000";
layers = (
{
hints = (
{
place = "{-24.000000, 405.000000}";
},
{
horizontal = 1;
place = "{-250.000000, 62.000000}";
},
{
horizontal = 1;
place = "{688.000000, 62.000000}";
}
);
layerId = UUID0;
name = Regular;
paths = (
{
closed = 1;
nodes = (
"169 -250 LINE",
"381 750 LINE",
"188 750 LINE",
"175 688 LINE",
"296 688 LINE",
"110 -188 LINE",
"-11 -188 LINE",
"-24 -250 LINE"
);
}
);
width = 400;
}
);
unicode = 005D;
},
{
glyphname = brokenbar;
lastChange = "2016-04-09 11:26:51 +0000";
layers = (
{
hints = (
{
place = "{219.000000, 93.000000}";
},
{
horizontal = 1;
place = "{-250.000000, 1001.000000}";
}
);
layerId = UUID0;
name = Regular;
paths = (
{
closed = 1;
nodes = (
"312 -250 LINE",
"312 222 LINE",
"219 222 LINE",
"219 -250 LINE"
);
},
{
closed = 1;
nodes = (
"312 301 LINE",
"312 751 LINE",
"219 751 LINE",
"219 301 LINE"
);
}
);
width = 532;
}
);
unicode = 00A6;
},
{
glyphname = bullet;
lastChange = "2016-04-09 11:26:51 +0000";
layers = (
{
hints = (
{
place = "{120.000000, 193.000000}";
},
{
horizontal = 1;
place = "{171.000000, 193.000000}";
}
);
layerId = UUID0;
name = Regular;
paths = (
{
closed = 1;
nodes = (
"313 320 OFFCURVE",
"269 364 OFFCURVE",
"216 364 CURVE SMOOTH",
"163 364 OFFCURVE",
"120 320 OFFCURVE",
"120 267 CURVE SMOOTH",
"120 214 OFFCURVE",
"163 171 OFFCURVE",
"216 171 CURVE SMOOTH",
"269 171 OFFCURVE",
"313 214 OFFCURVE",
"313 267 CURVE SMOOTH"
);
}
);
width = 434;
}
);
unicode = 2022;
},
{
glyphname = c;
lastChange = "2016-04-09 11:26:51 +0000";
layers = (
{
hints = (
{
place = "{-13.000000, 148.000000}";
},
{
place = "{291.000000, 76.000000}";
},
{
horizontal = 1;
place = "{-6.000000, 84.000000}";
},
{
horizontal = 1;
place = "{456.000000, 53.000000}";
}
);
layerId = UUID0;
name = Regular;
paths = (
{
closed = 1;
nodes = (
"384 179 LINE",
"333 123 OFFCURVE",
"286 78 OFFCURVE",
"207 78 CURVE SMOOTH",
"159 78 OFFCURVE",
"135 94 OFFCURVE",
"135 162 CURVE SMOOTH",
"135 273 OFFCURVE",
"200 456 OFFCURVE",
"263 456 CURVE SMOOTH",
"282 456 OFFCURVE",
"291 440 OFFCURVE",
"291 415 CURVE SMOOTH",
"291 398 OFFCURVE",
"287 378 OFFCURVE",
"279 356 CURVE",
"291 348 OFFCURVE",
"303 344 OFFCURVE",
"314 344 CURVE SMOOTH",
"343 344 OFFCURVE",
"367 368 OFFCURVE",
"367 417 CURVE SMOOTH",
"367 462 OFFCURVE",
"344 509 OFFCURVE",
"256 509 CURVE SMOOTH",
"53 509 OFFCURVE",
"-13 269 OFFCURVE",
"-13 153 CURVE SMOOTH",
"-13 40 OFFCURVE",
"48 -6 OFFCURVE",
"143 -6 CURVE SMOOTH",
"275 -6 OFFCURVE",
"362 86 OFFCURVE",
"418 179 CURVE"
);
}
);
width = 384;
}
);
unicode = 0063;
},
{
glyphname = c.end;
lastChange = "2016-04-09 11:26:51 +0000";
layers = (
{
hints = (
{
place = "{-20.000000, 148.000000}";
},
{
place = "{284.000000, 76.000000}";
},
{
horizontal = 1;
place = "{-6.000000, 93.000000}";
},
{
horizontal = 1;
place = "{456.000000, 53.000000}";
}
);
layerId = UUID0;
name = Regular;
paths = (
{
closed = 1;
nodes = (
"277 116 OFFCURVE",
"227 87 OFFCURVE",
"188 87 CURVE SMOOTH",
"153 87 OFFCURVE",
"128 107 OFFCURVE",
"128 170 CURVE SMOOTH",
"128 269 OFFCURVE",
"193 456 OFFCURVE",
"257 456 CURVE SMOOTH",
"276 456 OFFCURVE",
"284 439 OFFCURVE",
"284 415 CURVE SMOOTH",
"284 396 OFFCURVE",
"280 377 OFFCURVE",
"272 356 CURVE",
"283 348 OFFCURVE",
"294 344 OFFCURVE",
"307 344 CURVE SMOOTH",
"334 344 OFFCURVE",
"360 365 OFFCURVE",
"360 416 CURVE SMOOTH",
"360 463 OFFCURVE",
"337 509 OFFCURVE",
"249 509 CURVE SMOOTH",
"46 509 OFFCURVE",
"-20 269 OFFCURVE",
"-20 153 CURVE SMOOTH",
"-20 40 OFFCURVE",
"42 -6 OFFCURVE",
"135 -6 CURVE SMOOTH",
"216 -6 OFFCURVE",
"287 27 OFFCURVE",
"308 142 CURVE"
);
}
);
width = 341;
}
);
},
{
glyphname = c_x;
lastChange = "2016-04-09 11:26:51 +0000";
layers = (
{
hints = (
{
place = "{-20.000000, 148.000000}";
},
{
place = "{284.000000, 76.000000}";
},
{
place = "{681.000000, 59.000000}";
},
{
horizontal = 1;
place = "{-6.000000, 97.000000}";
},
{
horizontal = 1;
place = "{453.000000, 103.000000}";
},
{
horizontal = 1;
place = "{-6.000000, 82.000000}";
},
{
horizontal = 1;
place = "{456.000000, 53.000000}";
}
);
layerId = UUID0;
name = Regular;
paths = (
{
closed = 1;
nodes = (
"755 179 LINE",
"740 128 OFFCURVE",
"704 91 OFFCURVE",
"665 91 CURVE SMOOTH",
"620 91 OFFCURVE",
"614 142 OFFCURVE",
"606 179 CURVE",
"597 228 LINE",
"698 337 OFFCURVE",
"740 404 OFFCURVE",
"740 469 CURVE SMOOTH",
"740 517 OFFCURVE",
"717 556 OFFCURVE",
"670 556 CURVE SMOOTH",
"639 556 OFFCURVE",
"616 540 OFFCURVE",
"616 505 CURVE SMOOTH",
"616 480 OFFCURVE",
"627 453 OFFCURVE",
"662 453 CURVE SMOOTH",
"669 453 OFFCURVE",
"673 454 OFFCURVE",
"680 455 CURVE",
"681 452 OFFCURVE",
"681 448 OFFCURVE",
"681 443 CURVE SMOOTH",
"681 407 OFFCURVE",
"646 348 OFFCURVE",
"586 284 CURVE",
"547 500 LINE",
"406 500 LINE",
"463 190 LINE",
"396 115 OFFCURVE",
"301 76 OFFCURVE",
"229 76 CURVE SMOOTH",
"173 76 OFFCURVE",
"128 100 OFFCURVE",
"128 175 CURVE SMOOTH",
"128 266 OFFCURVE",
"193 456 OFFCURVE",
"257 456 CURVE SMOOTH",
"276 456 OFFCURVE",
"284 439 OFFCURVE",
"284 415 CURVE SMOOTH",
"284 396 OFFCURVE",
"280 377 OFFCURVE",
"272 356 CURVE",
"283 348 OFFCURVE",
"294 344 OFFCURVE",
"307 344 CURVE SMOOTH",
"334 344 OFFCURVE",
"360 365 OFFCURVE",
"360 416 CURVE SMOOTH",
"360 463 OFFCURVE",
"337 509 OFFCURVE",
"249 509 CURVE SMOOTH",
"45 509 OFFCURVE",
"-20 266 OFFCURVE",
"-20 158 CURVE SMOOTH",
"-20 37 OFFCURVE",
"61 -6 OFFCURVE",
"158 -6 CURVE SMOOTH",
"265 -6 OFFCURVE",
"389 47 OFFCURVE",
"474 132 CURVE",
"495 35 OFFCURVE",
"526 -6 OFFCURVE",
"594 -6 CURVE SMOOTH",
"644 -6 OFFCURVE",
"741 16 OFFCURVE",
"797 179 CURVE"
);
}
);
width = 755;
}
);
},
{
glyphname = c_z;
lastChange = "2016-04-09 11:26:51 +0000";
layers = (
{
components = (
{
name = c.end;
}
);
hints = (
{
place = "{416.000000, 100.000000}";
},
{
place = "{628.000000, 100.000000}";
},
{
horizontal = 1;
place = "{0.000000, 65.000000}";
},
{
horizontal = 1;
place = "{446.000000, 54.000000}";
},
{
horizontal = 1;
place = "{91.000000, 64.000000}";
}
);
layerId = UUID0;
name = Regular;
paths = (
{
closed = 1;
nodes = (
"606 0 LINE SMOOTH",
"683 0 OFFCURVE",
"728 61 OFFCURVE",
"728 107 CURVE SMOOTH",
"728 134 OFFCURVE",
"715 155 OFFCURVE",
"684 155 CURVE SMOOTH",
"647 155 OFFCURVE",
"628 131 OFFCURVE",
"628 112 CURVE SMOOTH",
"628 101 OFFCURVE",
"634 92 OFFCURVE",
"647 91 CURVE",
"643 71 OFFCURVE",
"631 65 OFFCURVE",
"615 65 CURVE SMOOTH",
"586 65 OFFCURVE",
"561 77 OFFCURVE",
"524 77 CURVE",
"769 500 LINE",
"532 500 LINE SMOOTH",
"460 500 OFFCURVE",
"416 440 OFFCURVE",
"416 399 CURVE SMOOTH",
"416 370 OFFCURVE",
"439 355 OFFCURVE",
"462 355 CURVE SMOOTH",
"489 355 OFFCURVE",
"516 371 OFFCURVE",
"516 408 CURVE SMOOTH",
"516 431 OFFCURVE",
"505 424 OFFCURVE",
"505 430 CURVE SMOOTH",
"505 445 OFFCURVE",
"529 446 OFFCURVE",
"560 446 CURVE SMOOTH",
"596 446 LINE",
"341 0 LINE"
);
}
);
width = 769;
}
);
},
{
glyphname = caron;
lastChange = "2016-04-09 11:26:51 +0000";
layers = (
{
hints = (
{
place = "{100.000000, 293.000000}";
},
{
horizontal = 1;
place = "{561.000000, 189.000000}";
}
);
layerId = UUID0;
name = Regular;
paths = (
{
closed = 1;
nodes = (
"393 750 LINE",
"349 750 LINE",
"192 670 LINE",
"132 750 LINE",
"100 750 LINE",
"160 561 LINE",
"181 561 LINE"
);
}
);
width = 294;
}
);
unicode = 02C7;
},
{
glyphname = cedilla;
lastChange = "2016-04-09 11:26:51 +0000";
layers = (
{
hints = (
{
place = "{144.000000, 83.000000}";
},
{
horizontal = 1;
place = "{-218.000000, 33.000000}";
},
{
horizontal = 1;
place = "{-107.000000, 49.000000}";
}
);
layerId = UUID0;
name = Regular;
paths = (
{
closed = 1;
nodes = (
"53 -119 LINE",
"64 -114 OFFCURVE",
"78 -107 OFFCURVE",
"105 -107 CURVE SMOOTH",
"133 -107 OFFCURVE",
"144 -124 OFFCURVE",
"144 -143 CURVE SMOOTH",
"144 -164 OFFCURVE",
"131 -185 OFFCURVE",
"114 -185 CURVE SMOOTH",
"85 -185 OFFCURVE",
"80 -158 OFFCURVE",
"40 -158 CURVE SMOOTH",
"21 -158 OFFCURVE",
"9 -174 OFFCURVE",
"0 -190 CURVE",
"29 -205 OFFCURVE",
"56 -218 OFFCURVE",
"107 -218 CURVE SMOOTH",
"166 -218 OFFCURVE",
"227 -180 OFFCURVE",
"227 -108 CURVE SMOOTH",
"227 -77 OFFCURVE",
"208 -58 OFFCURVE",
"165 -58 CURVE SMOOTH",
"151 -58 OFFCURVE",
"133 -61 OFFCURVE",
"112 -66 CURVE",
"141 6 LINE",
"106 29 LINE"
);
}
);
width = 227;
}
);
unicode = 00B8;
},
{
glyphname = cent;
lastChange = "2016-04-09 11:26:51 +0000";
layers = (
{
hints = (
{
place = "{31.000000, 105.000000}";
},
{
place = "{325.000000, 57.000000}";
},
{
horizontal = 1;
place = "{557.000000, 39.000000}";
}
);
layerId = UUID0;
name = Regular;
paths = (
{
closed = 1;
nodes = (
"154 -27 LINE",
"192 145 LINE",
"291 149 OFFCURVE",
"339 197 OFFCURVE",
"354 281 CURVE",
"315 246 OFFCURVE",
"275 213 OFFCURVE",
"222 213 CURVE SMOOTH",
"215 213 OFFCURVE",
"210 213 OFFCURVE",
"207 214 CURVE",
"283 557 LINE",
"288 557 LINE SMOOTH",
"311 557 OFFCURVE",
"325 547 OFFCURVE",
"325 523 CURVE SMOOTH",
"325 516 OFFCURVE",
"323 507 OFFCURVE",
"320 495 CURVE",
"377 495 LINE",
"381 508 OFFCURVE",
"382 517 OFFCURVE",
"382 528 CURVE SMOOTH",
"382 576 OFFCURVE",
"339 593 OFFCURVE",
"292 596 CURVE",
"319 718 LINE",
"261 718 LINE",
"239 595 LINE",
"104 576 OFFCURVE",
"31 451 OFFCURVE",
"31 316 CURVE SMOOTH",
"31 214 OFFCURVE",
"89 157 OFFCURVE",
"158 146 CURVE",
"127 -27 LINE"
);
},
{
closed = 1;
nodes = (
"173 229 LINE",
"146 249 OFFCURVE",
"136 286 OFFCURVE",
"136 319 CURVE SMOOTH",
"136 400 OFFCURVE",
"175 491 OFFCURVE",
"228 534 CURVE"
);
}
);
width = 403;
}
);
unicode = 00A2;
},
{
glyphname = circumflex;
lastChange = "2016-04-09 11:26:51 +0000";
layers = (
{
hints = (
{
place = "{0.000000, 293.000000}";
},
{
horizontal = 1;
place = "{561.000000, 189.000000}";
}
);
layerId = UUID0;
name = Regular;
paths = (
{
closed = 1;
nodes = (
"293 561 LINE",
"233 750 LINE",
"212 750 LINE",
"0 561 LINE",
"44 561 LINE",
"201 641 LINE",
"261 561 LINE"
);
}
);
width = 293;
}
);
unicode = 02C6;
},
{
glyphname = circunflex;
lastChange = "2016-04-09 11:26:51 +0000";
layers = (
{
hints = (
{
place = "{0.000000, 293.000000}";
},
{
horizontal = 1;
place = "{561.000000, 189.000000}";
}
);
layerId = UUID0;
name = Regular;
paths = (
{
closed = 1;
nodes = (
"293 561 LINE",
"233 750 LINE",
"212 750 LINE",
"0 561 LINE",
"44 561 LINE",
"201 641 LINE",
"261 561 LINE"
);
}
);
width = 293;
}
);
},
{
glyphname = colon;
lastChange = "2016-04-09 11:26:51 +0000";
layers = (
{
hints = (
{
place = "{41.000000, 159.000000}";
},
{
place = "{91.000000, 159.000000}";
},
{
horizontal = 1;
place = "{56.000000, 159.000000}";
},
{
horizontal = 1;
place = "{296.000000, 159.000000}";
}
);
layerId = UUID0;
name = Regular;
paths = (
{
closed = 1;
nodes = (
"200 179 OFFCURVE",
"164 215 OFFCURVE",
"120 215 CURVE SMOOTH",
"76 215 OFFCURVE",
"41 179 OFFCURVE",
"41 135 CURVE SMOOTH",
"41 91 OFFCURVE",
"76 56 OFFCURVE",
"120 56 CURVE SMOOTH",
"164 56 OFFCURVE",
"200 91 OFFCURVE",
"200 135 CURVE SMOOTH"
);
},
{
closed = 1;
nodes = (
"250 419 OFFCURVE",
"214 455 OFFCURVE",
"170 455 CURVE SMOOTH",
"126 455 OFFCURVE",
"91 419 OFFCURVE",
"91 375 CURVE SMOOTH",
"91 331 OFFCURVE",
"126 296 OFFCURVE",
"170 296 CURVE SMOOTH",
"214 296 OFFCURVE",
"250 331 OFFCURVE",
"250 375 CURVE SMOOTH"
);
}
);
width = 267;
}
);
unicode = 003A;
},
{
glyphname = comma;
lastChange = "2016-04-09 11:26:51 +0000";
layers = (
{
hints = (
{
place = "{32.000000, 9.000000}";
},
{
place = "{24.000000, 147.000000}";
},
{
horizontal = 1;
place = "{-126.000000, 281.000000}";
}
);
layerId = UUID0;
name = Regular;
paths = (
{
closed = 1;
nodes = (
"123 -70 OFFCURVE",
"171 20 OFFCURVE",
"171 79 CURVE SMOOTH",
"171 123 OFFCURVE",
"147 155 OFFCURVE",
"103 155 CURVE SMOOTH",
"59 155 OFFCURVE",
"24 119 OFFCURVE",
"24 75 CURVE SMOOTH",
"24 42 OFFCURVE",
"44 19 OFFCURVE",
"71 2 CURVE SMOOTH",
"80 -4 OFFCURVE",
"84 -11 OFFCURVE",
"84 -18 CURVE SMOOTH",
"84 -55 OFFCURVE",
"32 -73 OFFCURVE",
"32 -109 CURVE SMOOTH",
"32 -116 OFFCURVE",
"35 -122 OFFCURVE",
"41 -126 CURVE"
);
}
);
width = 216;
}
);
unicode = 002C;
},
{
glyphname = copyright;
lastChange = "2016-04-09 11:26:51 +0000";
layers = (
{
hints = (
{
place = "{51.000000, 46.000000}";
},
{
place = "{152.000000, 55.000000}";
},
{
place = "{492.000000, 43.000000}";
},
{
horizontal = 1;
place = "{76.000000, 42.000000}";
},
{
horizontal = 1;
place = "{182.000000, 52.000000}";
},
{
horizontal = 1;
place = "{432.000000, 52.000000}";
},
{
horizontal = 1;
place = "{544.000000, 43.000000}";
}
);
layerId = UUID0;
name = Regular;
paths = (
{
closed = 1;
nodes = (
"377 279 LINE",
"362 251 OFFCURVE",
"333 234 OFFCURVE",
"302 234 CURVE SMOOTH",
"249 234 OFFCURVE",
"207 281 OFFCURVE",
"207 341 CURVE SMOOTH",
"207 402 OFFCURVE",
"251 432 OFFCURVE",
"302 432 CURVE SMOOTH",
"359 432 OFFCURVE",
"369 395 OFFCURVE",
"377 371 CURVE",
"424 389 LINE",
"411 442 OFFCURVE",
"363 481 OFFCURVE",
"300 484 CURVE",
"219 484 OFFCURVE",
"152 421 OFFCURVE",
"152 336 CURVE SMOOTH",
"152 253 OFFCURVE",
"217 182 OFFCURVE",
"298 182 CURVE SMOOTH",
"347 182 OFFCURVE",
"393 207 OFFCURVE",
"421 250 CURVE"
);
},
{
closed = 1;
nodes = (
"424 76 OFFCURVE",
"535 189 OFFCURVE",
"535 332 CURVE SMOOTH",
"535 476 OFFCURVE",
"424 587 OFFCURVE",
"293 587 CURVE SMOOTH",
"160 587 OFFCURVE",
"51 474 OFFCURVE",
"51 331 CURVE SMOOTH",
"51 190 OFFCURVE",
"160 76 OFFCURVE",
"293 76 CURVE SMOOTH"
);
},
{
closed = 1;
nodes = (
"186 118 OFFCURVE",
"97 211 OFFCURVE",
"97 331 CURVE SMOOTH",
"97 451 OFFCURVE",
"186 544 OFFCURVE",
"295 544 CURVE SMOOTH",
"403 544 OFFCURVE",
"492 451 OFFCURVE",
"492 331 CURVE SMOOTH",
"492 211 OFFCURVE",
"403 118 OFFCURVE",
"295 118 CURVE SMOOTH"
);
}
);
width = 587;
}
);
unicode = 00A9;
},
{
glyphname = currency;
lastChange = "2016-04-09 11:26:51 +0000";
layers = (
{
hints = (
{
place = "{96.000000, 57.000000}";
},
{
place = "{353.000000, 56.000000}";
},
{
horizontal = 1;
place = "{190.000000, 56.000000}";
},
{
horizontal = 1;
place = "{446.000000, 56.000000}";
}
);
layerId = UUID0;
name = Regular;
paths = (
{
closed = 1;
nodes = (
"398 164 LINE",
"434 200 LINE",
"379 255 LINE",
"399 282 OFFCURVE",
"409 313 OFFCURVE",
"409 346 CURVE SMOOTH",
"409 380 OFFCURVE",
"399 411 OFFCURVE",
"379 438 CURVE",
"434 493 LINE",
"398 529 LINE",
"342 473 LINE",
"317 492 OFFCURVE",
"286 502 OFFCURVE",
"253 502 CURVE SMOOTH",
"220 502 OFFCURVE",
"189 492 OFFCURVE",
"162 472 CURVE",
"106 528 LINE",
"68 492 LINE",
"125 435 LINE",
"106 410 OFFCURVE",
"96 380 OFFCURVE",
"96 345 CURVE SMOOTH",
"96 312 OFFCURVE",
"106 281 OFFCURVE",
"125 256 CURVE",
"69 200 LINE",
"105 164 LINE",
"161 220 LINE",
"188 200 OFFCURVE",
"219 190 OFFCURVE",
"253 190 CURVE SMOOTH",
"288 190 OFFCURVE",
"318 200 OFFCURVE",
"343 219 CURVE"
);
},
{
closed = 1;
nodes = (
"353 290 OFFCURVE",
"309 246 OFFCURVE",
"253 246 CURVE SMOOTH",
"197 246 OFFCURVE",
"153 290 OFFCURVE",
"153 346 CURVE SMOOTH",
"153 402 OFFCURVE",
"197 446 OFFCURVE",
"253 446 CURVE SMOOTH",
"309 446 OFFCURVE",
"353 402 OFFCURVE",
"353 346 CURVE SMOOTH"
);
}
);
width = 500;
}
);
unicode = 00A4;
},
{
glyphname = d;
lastChange = "2016-04-09 11:26:51 +0000";
layers = (
{
hints = (
{
place = "{-13.000000, 148.000000}";
},
{
place = "{268.000000, 135.000000}";
},
{
horizontal = 1;
place = "{0.000000, 91.000000}";
},
{
horizontal = 1;
place = "{443.000000, 62.000000}";
},
{
horizontal = 1;
place = "{-6.000000, 97.000000}";
},
{
horizontal = 1;
place = "{0.000000, 21.000000}";
target = up;
type = BottomGhost;
}
);
layerId = UUID0;
name = Regular;
paths = (
{
closed = 1;
nodes = (
"525 179 LINE",
"510 128 OFFCURVE",
"483 91 OFFCURVE",
"444 91 CURVE SMOOTH",
"416 91 OFFCURVE",
"403 100 OFFCURVE",
"403 128 CURVE SMOOTH",
"403 138 OFFCURVE",
"404 149 OFFCURVE",
"407 160 CURVE",
"522 700 LINE",
"374 680 LINE",
"325 450 LINE",
"325 454 LINE SMOOTH",
"325 483 OFFCURVE",
"301 505 OFFCURVE",
"244 505 CURVE SMOOTH",
"70 505 OFFCURVE",
"-13 291 OFFCURVE",
"-13 155 CURVE SMOOTH",
"-13 36 OFFCURVE",
"52 -6 OFFCURVE",
"120 -6 CURVE SMOOTH",
"191 -6 OFFCURVE",
"239 41 OFFCURVE",
"268 86 CURVE",
"276 30 OFFCURVE",
"311 0 OFFCURVE",
"366 0 CURVE SMOOTH",
"419 0 OFFCURVE",
"511 16 OFFCURVE",
"567 179 CURVE"
);
},
{
closed = 1;
nodes = (
"267 174 LINE",
"254 118 OFFCURVE",
"213 91 OFFCURVE",
"185 91 CURVE SMOOTH",
"167 91 OFFCURVE",
"135 93 OFFCURVE",
"135 169 CURVE SMOOTH",
"135 263 OFFCURVE",
"190 443 OFFCURVE",
"275 443 CURVE SMOOTH",
"306 443 OFFCURVE",
"313 420 OFFCURVE",
"316 408 CURVE",
"267 179 LINE"
);
}
);
width = 525;
vertWidth = 4;
}
);
unicode = 0064;
},
{
glyphname = d.end;
lastChange = "2016-04-09 11:26:51 +0000";
layers = (
{
hints = (
{
place = "{-13.000000, 148.000000}";
},
{
horizontal = 1;
place = "{-6.000000, 97.000000}";
},
{
horizontal = 1;
place = "{443.000000, 62.000000}";
}
);
layerId = UUID0;
name = Regular;
paths = (
{
closed = 1;
nodes = (
"325 450 LINE",
"325 454 LINE SMOOTH",
"325 483 OFFCURVE",
"301 505 OFFCURVE",
"244 505 CURVE SMOOTH",
"70 505 OFFCURVE",
"-13 291 OFFCURVE",
"-13 155 CURVE SMOOTH",
"-13 36 OFFCURVE",
"52 -6 OFFCURVE",
"120 -6 CURVE SMOOTH",
"187 -6 OFFCURVE",
"231 34 OFFCURVE",
"262 77 CURVE",
"274 18 OFFCURVE",
"315 -6 OFFCURVE",
"366 -6 CURVE SMOOTH",
"419 -6 OFFCURVE",
"471 26 OFFCURVE",
"476 97 CURVE",
"469 94 OFFCURVE",
"463 91 OFFCURVE",
"444 91 CURVE SMOOTH",
"413 91 OFFCURVE",
"403 108 OFFCURVE",
"403 131 CURVE SMOOTH",
"403 140 OFFCURVE",
"404 149 OFFCURVE",
"407 160 CURVE",
"522 700 LINE",
"374 680 LINE"
);
},
{
closed = 1;
nodes = (
"263 163 LINE",
"248 115 OFFCURVE",
"212 91 OFFCURVE",
"185 91 CURVE SMOOTH",
"167 91 OFFCURVE",
"135 93 OFFCURVE",
"135 169 CURVE SMOOTH",
"135 263 OFFCURVE",
"190 443 OFFCURVE",
"275 443 CURVE SMOOTH",
"306 443 OFFCURVE",
"313 420 OFFCURVE",
"316 408 CURVE",
"267 179 LINE"
);
}
);
width = 476;
vertWidth = 4;
}
);
},
{
glyphname = dagger;
lastChange = "2016-04-09 11:26:51 +0000";
layers = (
{
hints = (
{
place = "{68.000000, 392.000000}";
},
{
horizontal = 1;
place = "{316.000000, 112.000000}";
}
);
layerId = UUID0;
name = Regular;
paths = (
{
closed = 1;
nodes = (
"166 -250 LINE",
"286 316 LINE",
"437 316 LINE",
"460 428 LINE",
"309 428 LINE",
"378 750 LINE",
"306 750 LINE",
"237 428 LINE",
"92 428 LINE",
"68 316 LINE",
"214 316 LINE",
"94 -250 LINE"
);
}
);
width = 495;
}
);
unicode = 2020;
},
{
glyphname = daggerdbl;
lastChange = "2016-04-09 11:26:51 +0000";
layers = (
{
hints = (
{
place = "{24.000000, 436.000000}";
},
{
horizontal = 1;
place = "{101.000000, 112.000000}";
},
{
horizontal = 1;
place = "{316.000000, 112.000000}";
}
);
layerId = UUID0;
name = Regular;
paths = (
{
closed = 1;
nodes = (
"166 -250 LINE",
"240 101 LINE",
"393 101 LINE",
"416 213 LINE",
"264 213 LINE",
"286 316 LINE",
"437 316 LINE",
"460 428 LINE",
"309 428 LINE",
"378 750 LINE",
"306 750 LINE",
"237 428 LINE",
"92 428 LINE",
"68 316 LINE",
"214 316 LINE",
"192 213 LINE",
"48 213 LINE",
"24 101 LINE",
"168 101 LINE",
"94 -250 LINE"
);
}
);
width = 495;
}
);
unicode = 2021;
},
{
glyphname = degree;
lastChange = "2016-04-09 11:26:51 +0000";
layers = (
{
hints = (
{
place = "{37.000000, 72.000000}";
},
{
place = "{221.000000, 60.000000}";
},
{
horizontal = 1;
place = "{374.000000, 37.000000}";
},
{
horizontal = 1;
place = "{667.000000, 35.000000}";
}
);
layerId = UUID0;
name = Regular;
paths = (
{
closed = 1;
nodes = (
"229 374 OFFCURVE",
"281 504 OFFCURVE",
"281 589 CURVE SMOOTH",
"281 662 OFFCURVE",
"258 702 OFFCURVE",
"199 702 CURVE SMOOTH",
"98 702 OFFCURVE",
"37 605 OFFCURVE",
"37 488 CURVE SMOOTH",
"37 416 OFFCURVE",
"55 374 OFFCURVE",
"133 374 CURVE SMOOTH"
);
},
{
closed = 1;
nodes = (
"113 411 OFFCURVE",
"109 444 OFFCURVE",
"109 476 CURVE SMOOTH",
"109 492 OFFCURVE",
"110 507 OFFCURVE",
"111 519 CURVE SMOOTH",
"119 616 OFFCURVE",
"168 667 OFFCURVE",
"196 667 CURVE SMOOTH",
"217 667 OFFCURVE",
"221 639 OFFCURVE",
"221 604 CURVE SMOOTH",
"221 503 OFFCURVE",
"188 411 OFFCURVE",
"136 411 CURVE SMOOTH"
);
}
);
width = 314;
}
);
unicode = 00B0;
},
{
glyphname = dieresis;
lastChange = "2016-04-09 11:26:51 +0000";
layers = (
{
hints = (
{
place = "{56.000000, 122.000000}";
},
{
place = "{236.000000, 122.000000}";
},
{
horizontal = 1;
place = "{573.000000, 122.000000}";
}
);
layerId = UUID0;
name = Regular;
paths = (
{
closed = 1;
nodes = (
"150 573 OFFCURVE",
"178 599 OFFCURVE",
"178 634 CURVE SMOOTH",
"178 667 OFFCURVE",
"150 695 OFFCURVE",
"117 695 CURVE SMOOTH",
"82 695 OFFCURVE",
"56 667 OFFCURVE",
"56 634 CURVE SMOOTH",
"56 599 OFFCURVE",
"82 573 OFFCURVE",
"117 573 CURVE SMOOTH"
);
},
{
closed = 1;
nodes = (
"330 573 OFFCURVE",
"358 599 OFFCURVE",
"358 634 CURVE SMOOTH",
"358 667 OFFCURVE",
"330 695 OFFCURVE",
"297 695 CURVE SMOOTH",
"262 695 OFFCURVE",
"236 667 OFFCURVE",
"236 634 CURVE SMOOTH",
"236 599 OFFCURVE",
"262 573 OFFCURVE",
"297 573 CURVE SMOOTH"
);
}
);
width = 392;
}
);
unicode = 00A8;
},
{
glyphname = divide;
lastChange = "2016-04-09 11:26:51 +0000";
layers = (
{
components = (
{
name = minus;
transform = "{1, 0, 0, 1, 32, -16}";
}
);
hints = (
{
place = "{147.000000, 159.000000}";
},
{
place = "{207.000000, 159.000000}";
},
{
horizontal = 1;
place = "{1.000000, 159.000000}";
},
{
horizontal = 1;
place = "{336.000000, 159.000000}";
}
);
layerId = UUID0;
name = Regular;
paths = (
{
closed = 1;
nodes = (
"306 124 OFFCURVE",
"270 160 OFFCURVE",
"226 160 CURVE SMOOTH",
"182 160 OFFCURVE",
"147 124 OFFCURVE",
"147 80 CURVE SMOOTH",
"147 36 OFFCURVE",
"182 1 OFFCURVE",
"226 1 CURVE SMOOTH",
"270 1 OFFCURVE",
"306 36 OFFCURVE",
"306 80 CURVE SMOOTH"
);
},
{
closed = 1;
nodes = (
"366 459 OFFCURVE",
"330 495 OFFCURVE",
"286 495 CURVE SMOOTH",
"242 495 OFFCURVE",
"207 459 OFFCURVE",
"207 415 CURVE SMOOTH",
"207 371 OFFCURVE",
"242 336 OFFCURVE",
"286 336 CURVE SMOOTH",
"330 336 OFFCURVE",
"366 371 OFFCURVE",
"366 415 CURVE SMOOTH"
);
}
);
width = 472;
}
);
unicode = 00F7;
},
{
glyphname = dollar;
lastChange = "2016-04-09 11:26:51 +0000";
layers = (
{
hints = (
{
place = "{24.000000, 75.000000}";
},
{
place = "{241.000000, 105.000000}";
},
{
place = "{71.000000, 95.000000}";
},
{
place = "{301.000000, 63.000000}";
},
{
horizontal = 1;
place = "{-27.000000, 745.000000}";
},
{
horizontal = 1;
place = "{283.000000, 25.000000}";
}
);
layerId = UUID0;
name = Regular;
paths = (
{
closed = 1;
nodes = (
"137 -27 LINE",
"166 107 LINE",
"270 110 OFFCURVE",
"346 159 OFFCURVE",
"346 255 CURVE SMOOTH",
"346 338 OFFCURVE",
"284 371 OFFCURVE",
"233 408 CURVE",
"269 569 LINE",
"292 560 OFFCURVE",
"301 540 OFFCURVE",
"301 525 CURVE SMOOTH",
"301 504 OFFCURVE",
"294 484 OFFCURVE",
"277 473 CURVE",
"290 457 OFFCURVE",
"300 450 OFFCURVE",
"316 450 CURVE SMOOTH",
"347 450 OFFCURVE",
"364 479 OFFCURVE",
"364 526 CURVE SMOOTH",
"364 583 OFFCURVE",
"319 601 OFFCURVE",
"277 609 CURVE",
"302 718 LINE",
"244 718 LINE",
"225 612 LINE",
"150 609 OFFCURVE",
"71 555 OFFCURVE",
"71 481 CURVE SMOOTH",
"71 417 OFFCURVE",
"129 384 OFFCURVE",
"177 344 CURVE",
"141 148 LINE",
"118 159 OFFCURVE",
"99 180 OFFCURVE",
"99 209 CURVE SMOOTH",
"99 249 OFFCURVE",
"111 278 OFFCURVE",
"139 283 CURVE",
"139 296 OFFCURVE",
"124 308 OFFCURVE",
"96 308 CURVE SMOOTH",
"57 308 OFFCURVE",
"24 274 OFFCURVE",
"24 222 CURVE SMOOTH",
"24 143 OFFCURVE",
"73 113 OFFCURVE",
"134 108 CURVE",
"110 -27 LINE"
);
},
{
closed = 1;
nodes = (
"212 310 LINE",
"229 289 OFFCURVE",
"241 265 OFFCURVE",
"241 234 CURVE SMOOTH",
"241 190 OFFCURVE",
"223 151 OFFCURVE",
"175 144 CURVE"
);
},
{
closed = 1;
nodes = (
"194 439 LINE",
"177 456 OFFCURVE",
"166 475 OFFCURVE",
"166 500 CURVE SMOOTH",
"166 531 OFFCURVE",
"179 566 OFFCURVE",
"218 574 CURVE"
);
}
);
width = 403;
}
);
unicode = 0024;
},
{
glyphname = dotlessi;
lastChange = "2016-04-09 11:26:51 +0000";
layers = (
{
hints = (
{
place = "{-8.000000, 317.000000}";
},
{
place = "{-8.000000, 144.000000}";
},
{
horizontal = 1;
place = "{-6.000000, 97.000000}";
}
);
layerId = UUID0;
name = Regular;
paths = (
{
closed = 1;
nodes = (
"267 179 LINE",
"252 128 OFFCURVE",
"216 91 OFFCURVE",
"177 91 CURVE SMOOTH",
"149 91 OFFCURVE",
"136 100 OFFCURVE",
"136 128 CURVE SMOOTH",
"136 138 OFFCURVE",
"137 149 OFFCURVE",
"140 160 CURVE",
"212 500 LINE",
"68 500 LINE",
"0 179 LINE SMOOTH",
"-5 154 OFFCURVE",
"-8 132 OFFCURVE",
"-8 114 CURVE SMOOTH",
"-8 30 OFFCURVE",
"39 -6 OFFCURVE",
"99 -6 CURVE SMOOTH",
"152 -6 OFFCURVE",
"253 16 OFFCURVE",
"309 179 CURVE"
);
}
);
width = 267;
}
);
unicode = 0131;
},
{
glyphname = dotlessi.end;
lastChange = "2016-04-09 11:26:51 +0000";
layers = (
{
hints = (
{
place = "{-8.000000, 144.000000}";
},
{
horizontal = 1;
place = "{-6.000000, 506.000000}";
},
{
horizontal = 1;
place = "{-6.000000, 97.000000}";
}
);
layerId = UUID0;
name = Regular;
paths = (
{
closed = 1;
nodes = (
"0 179 LINE SMOOTH",
"-5 154 OFFCURVE",
"-8 132 OFFCURVE",
"-8 114 CURVE SMOOTH",
"-8 30 OFFCURVE",
"39 -6 OFFCURVE",
"99 -6 CURVE SMOOTH",
"152 -6 OFFCURVE",
"204 26 OFFCURVE",
"209 97 CURVE",
"202 94 OFFCURVE",
"196 91 OFFCURVE",
"177 91 CURVE SMOOTH",
"149 91 OFFCURVE",
"136 100 OFFCURVE",
"136 128 CURVE SMOOTH",
"136 138 OFFCURVE",
"137 149 OFFCURVE",
"140 160 CURVE",
"212 500 LINE",
"68 500 LINE"
);
}
);
width = 209;
}
);
},
{
glyphname = e;
lastChange = "2016-04-09 11:26:51 +0000";
layers = (
{
hints = (
{
place = "{-13.000000, 148.000000}";
},
{
place = "{290.000000, 77.000000}";
},
{
horizontal = 1;
place = "{-6.000000, 84.000000}";
},
{
horizontal = 1;
place = "{456.000000, 53.000000}";
}
);
layerId = UUID0;
name = Regular;
paths = (
{
closed = 1;
nodes = (
"384 179 LINE",
"333 123 OFFCURVE",
"286 78 OFFCURVE",
"207 78 CURVE SMOOTH",
"159 78 OFFCURVE",
"135 94 OFFCURVE",
"135 162 CURVE SMOOTH",
"135 174 OFFCURVE",
"136 187 OFFCURVE",
"137 202 CURVE",
"257 210 OFFCURVE",
"367 297 OFFCURVE",
"367 413 CURVE SMOOTH",
"367 463 OFFCURVE",
"346 509 OFFCURVE",
"257 509 CURVE SMOOTH",
"52 509 OFFCURVE",
"-13 268 OFFCURVE",
"-13 153 CURVE SMOOTH",
"-13 40 OFFCURVE",
"48 -6 OFFCURVE",
"143 -6 CURVE SMOOTH",
"275 -6 OFFCURVE",
"362 86 OFFCURVE",
"418 179 CURVE"
);
},
{
closed = 1;
nodes = (
"164 349 OFFCURVE",
"215 456 OFFCURVE",
"265 456 CURVE SMOOTH",
"284 456 OFFCURVE",
"290 440 OFFCURVE",
"290 415 CURVE SMOOTH",
"290 332 OFFCURVE",
"221 255 OFFCURVE",
"145 250 CURVE"
);
}
);
width = 384;
}
);
unicode = 0065;
},
{
glyphname = e.end;
lastChange = "2016-04-09 11:26:51 +0000";
layers = (
{
hints = (
{
place = "{-14.000000, 148.000000}";
},
{
place = "{289.000000, 77.000000}";
},
{
horizontal = 1;
place = "{-6.000000, 95.000000}";
},
{
horizontal = 1;
place = "{456.000000, 53.000000}";
}
);
layerId = UUID0;
name = Regular;
paths = (
{
closed = 1;
nodes = (
"282 114 OFFCURVE",
"235 89 OFFCURVE",
"196 89 CURVE SMOOTH",
"161 89 OFFCURVE",
"134 108 OFFCURVE",
"134 172 CURVE SMOOTH",
"134 181 OFFCURVE",
"135 191 OFFCURVE",
"136 202 CURVE",
"256 210 OFFCURVE",
"366 297 OFFCURVE",
"366 413 CURVE SMOOTH",
"366 463 OFFCURVE",
"345 509 OFFCURVE",
"256 509 CURVE SMOOTH",
"51 509 OFFCURVE",
"-14 268 OFFCURVE",
"-14 153 CURVE SMOOTH",
"-14 40 OFFCURVE",
"48 -6 OFFCURVE",
"141 -6 CURVE SMOOTH",
"222 -6 OFFCURVE",
"293 27 OFFCURVE",
"314 142 CURVE"
);
},
{
closed = 1;
nodes = (
"164 345 OFFCURVE",
"214 456 OFFCURVE",
"264 456 CURVE SMOOTH",
"283 456 OFFCURVE",
"289 440 OFFCURVE",
"289 415 CURVE SMOOTH",
"289 332 OFFCURVE",
"220 253 OFFCURVE",
"143 250 CURVE"
);
}
);
width = 366;
}
);
},
{
glyphname = e_x;
lastChange = "2016-04-09 11:26:51 +0000";
layers = (
{
hints = (
{
place = "{-13.000000, 148.000000}";
},
{
place = "{290.000000, 77.000000}";
},
{
place = "{688.000000, 59.000000}";
},
{
horizontal = 1;
place = "{-6.000000, 97.000000}";
},
{
horizontal = 1;
place = "{202.000000, 48.000000}";
},
{
horizontal = 1;
place = "{453.000000, 103.000000}";
},
{
horizontal = 1;
place = "{-6.000000, 82.000000}";
},
{
horizontal = 1;
place = "{456.000000, 53.000000}";
}
);
layerId = UUID0;
name = Regular;
paths = (
{
closed = 1;
nodes = (
"762 179 LINE",
"747 128 OFFCURVE",
"711 91 OFFCURVE",
"672 91 CURVE SMOOTH",
"627 91 OFFCURVE",
"621 142 OFFCURVE",
"613 179 CURVE",
"604 228 LINE",
"705 337 OFFCURVE",
"747 404 OFFCURVE",
"747 469 CURVE SMOOTH",
"747 517 OFFCURVE",
"724 556 OFFCURVE",
"677 556 CURVE SMOOTH",
"646 556 OFFCURVE",
"623 540 OFFCURVE",
"623 505 CURVE SMOOTH",
"623 480 OFFCURVE",
"634 453 OFFCURVE",
"669 453 CURVE SMOOTH",
"676 453 OFFCURVE",
"680 454 OFFCURVE",
"687 455 CURVE",
"688 452 OFFCURVE",
"688 448 OFFCURVE",
"688 443 CURVE SMOOTH",
"688 407 OFFCURVE",
"653 348 OFFCURVE",
"593 284 CURVE",
"554 500 LINE",
"413 500 LINE",
"470 190 LINE",
"403 115 OFFCURVE",
"307 76 OFFCURVE",
"235 76 CURVE SMOOTH",
"179 76 OFFCURVE",
"135 100 OFFCURVE",
"135 175 CURVE SMOOTH",
"135 183 OFFCURVE",
"135 193 OFFCURVE",
"136 202 CURVE",
"257 210 OFFCURVE",
"367 297 OFFCURVE",
"367 413 CURVE SMOOTH",
"367 463 OFFCURVE",
"346 509 OFFCURVE",
"257 509 CURVE SMOOTH",
"52 509 OFFCURVE",
"-13 266 OFFCURVE",
"-13 157 CURVE SMOOTH",
"-13 36 OFFCURVE",
"68 -6 OFFCURVE",
"165 -6 CURVE SMOOTH",
"277 -6 OFFCURVE",
"401 50 OFFCURVE",
"481 133 CURVE",
"505 32 OFFCURVE",
"534 -6 OFFCURVE",
"601 -6 CURVE SMOOTH",
"651 -6 OFFCURVE",
"748 16 OFFCURVE",
"804 179 CURVE"
);
},
{
closed = 1;
nodes = (
"163 343 OFFCURVE",
"215 456 OFFCURVE",
"265 456 CURVE SMOOTH",
"284 456 OFFCURVE",
"290 440 OFFCURVE",
"290 415 CURVE SMOOTH",
"290 332 OFFCURVE",
"221 253 OFFCURVE",
"144 250 CURVE"
);
}
);
width = 762;
}
);
},
{
glyphname = e_x.end;
lastChange = "2016-04-09 11:26:51 +0000";
layers = (
{
hints = (
{
place = "{-13.000000, 148.000000}";
},
{
place = "{290.000000, 77.000000}";
},
{
place = "{688.000000, 59.000000}";
},
{
horizontal = 1;
place = "{-6.000000, 82.000000}";
},
{
horizontal = 1;
place = "{202.000000, 48.000000}";
},
{
horizontal = 1;
place = "{456.000000, 53.000000}";
},
{
horizontal = 1;
place = "{453.000000, 103.000000}";
},
{
horizontal = 1;
place = "{-6.000000, 97.000000}";
}
);
layerId = UUID0;
name = Regular;
paths = (
{
closed = 1;
nodes = (
"604 228 LINE",
"705 337 OFFCURVE",
"747 404 OFFCURVE",
"747 469 CURVE SMOOTH",
"747 517 OFFCURVE",
"724 556 OFFCURVE",
"677 556 CURVE SMOOTH",
"646 556 OFFCURVE",
"623 540 OFFCURVE",
"623 505 CURVE SMOOTH",
"623 480 OFFCURVE",
"634 453 OFFCURVE",
"669 453 CURVE SMOOTH",
"676 453 OFFCURVE",
"680 454 OFFCURVE",
"687 455 CURVE",
"688 452 OFFCURVE",
"688 448 OFFCURVE",
"688 443 CURVE SMOOTH",
"688 407 OFFCURVE",
"653 348 OFFCURVE",
"593 284 CURVE",
"554 500 LINE",
"413 500 LINE",
"470 190 LINE",
"403 115 OFFCURVE",
"307 76 OFFCURVE",
"235 76 CURVE SMOOTH",
"179 76 OFFCURVE",
"135 100 OFFCURVE",
"135 175 CURVE SMOOTH",
"135 183 OFFCURVE",
"135 193 OFFCURVE",
"136 202 CURVE",
"257 210 OFFCURVE",
"367 297 OFFCURVE",
"367 413 CURVE SMOOTH",
"367 463 OFFCURVE",
"346 509 OFFCURVE",
"257 509 CURVE SMOOTH",
"52 509 OFFCURVE",
"-13 266 OFFCURVE",
"-13 157 CURVE SMOOTH",
"-13 36 OFFCURVE",
"68 -6 OFFCURVE",
"165 -6 CURVE SMOOTH",
"277 -6 OFFCURVE",
"401 50 OFFCURVE",
"481 133 CURVE",
"504 33 OFFCURVE",
"534 -6 OFFCURVE",
"598 -6 CURVE SMOOTH",
"651 -6 OFFCURVE",
"703 26 OFFCURVE",
"708 97 CURVE",
"701 94 OFFCURVE",
"695 91 OFFCURVE",
"676 91 CURVE SMOOTH",
"632 91 OFFCURVE",
"624 119 OFFCURVE",
"613 179 CURVE SMOOTH"
);
},
{
closed = 1;
nodes = (
"163 343 OFFCURVE",
"215 456 OFFCURVE",
"265 456 CURVE SMOOTH",
"284 456 OFFCURVE",
"290 440 OFFCURVE",
"290 415 CURVE SMOOTH",
"290 332 OFFCURVE",
"221 253 OFFCURVE",
"144 250 CURVE"
);
}
);
width = 747;
}
);
},
{
glyphname = eacute_x;
lastChange = "2016-04-09 11:26:51 +0000";
layers = (
{
components = (
{
name = acute;
transform = "{1, 0, 0, 1, 104, 0}";
}
);
hints = (
{
place = "{-15.000000, 148.000000}";
},
{
place = "{288.000000, 77.000000}";
},
{
place = "{686.000000, 59.000000}";
},
{
horizontal = 1;
place = "{-6.000000, 97.000000}";
},
{
horizontal = 1;
place = "{453.000000, 103.000000}";
},
{
horizontal = 1;
place = "{-6.000000, 82.000000}";
},
{
horizontal = 1;
place = "{456.000000, 53.000000}";
}
);
layerId = UUID0;
name = Regular;
paths = (
{
closed = 1;
nodes = (
"760 179 LINE",
"745 128 OFFCURVE",
"709 91 OFFCURVE",
"670 91 CURVE SMOOTH",
"625 91 OFFCURVE",
"619 142 OFFCURVE",
"611 179 CURVE",
"602 229 LINE",
"701 333 OFFCURVE",
"745 402 OFFCURVE",
"745 467 CURVE SMOOTH",
"745 516 OFFCURVE",
"722 556 OFFCURVE",
"677 556 CURVE SMOOTH",
"646 556 OFFCURVE",
"621 540 OFFCURVE",
"621 509 CURVE SMOOTH",
"621 478 OFFCURVE",
"633 453 OFFCURVE",
"668 453 CURVE SMOOTH",
"673 453 OFFCURVE",
"678 454 OFFCURVE",
"685 455 CURVE",
"686 452 OFFCURVE",
"686 448 OFFCURVE",
"686 443 CURVE SMOOTH",
"686 407 OFFCURVE",
"651 348 OFFCURVE",
"591 284 CURVE",
"552 500 LINE",
"411 500 LINE",
"468 190 LINE",
"402 116 OFFCURVE",
"304 76 OFFCURVE",
"236 76 CURVE SMOOTH",
"176 76 OFFCURVE",
"133 102 OFFCURVE",
"133 170 CURVE SMOOTH",
"133 181 OFFCURVE",
"134 191 OFFCURVE",
"135 202 CURVE",
"255 210 OFFCURVE",
"365 298 OFFCURVE",
"365 410 CURVE SMOOTH",
"365 463 OFFCURVE",
"345 509 OFFCURVE",
"256 509 CURVE SMOOTH",
"50 509 OFFCURVE",
"-15 270 OFFCURVE",
"-15 154 CURVE SMOOTH",
"-15 37 OFFCURVE",
"66 -6 OFFCURVE",
"166 -6 CURVE SMOOTH",
"269 -6 OFFCURVE",
"400 48 OFFCURVE",
"479 133 CURVE",
"502 34 OFFCURVE",
"532 -6 OFFCURVE",
"596 -6 CURVE SMOOTH",
"650 -6 OFFCURVE",
"746 16 OFFCURVE",
"802 179 CURVE"
);
},
{
closed = 1;
nodes = (
"163 346 OFFCURVE",
"211 456 OFFCURVE",
"264 456 CURVE SMOOTH",
"283 456 OFFCURVE",
"288 440 OFFCURVE",
"288 412 CURVE SMOOTH",
"288 333 OFFCURVE",
"219 255 OFFCURVE",
"142 250 CURVE"
);
}
);
width = 760;
}
);
},
{
glyphname = eight;
lastChange = "2016-04-09 11:26:51 +0000";
layers = (
{
hints = (
{
place = "{-8.000000, 145.000000}";
},
{
place = "{323.000000, 157.000000}";
},
{
place = "{87.000000, 131.000000}";
},
{
place = "{372.000000, 127.000000}";
},
{
horizontal = 1;
place = "{-5.000000, 72.000000}";
},
{
horizontal = 1;
place = "{701.000000, 48.000000}";
}
);
layerId = UUID0;
name = Regular;
paths = (
{
closed = 1;
nodes = (
"304 344 OFFCURVE",
"323 290 OFFCURVE",
"323 235 CURVE SMOOTH",
"323 149 OFFCURVE",
"276 67 OFFCURVE",
"208 67 CURVE SMOOTH",
"161 67 OFFCURVE",
"137 107 OFFCURVE",
"137 163 CURVE SMOOTH",
"137 235 OFFCURVE",
"177 327 OFFCURVE",
"260 383 CURVE"
);
},
{
closed = 1;
nodes = (
"452 462 OFFCURVE",
"499 536 OFFCURVE",
"499 604 CURVE SMOOTH",
"499 682 OFFCURVE",
"435 749 OFFCURVE",
"310 749 CURVE SMOOTH",
"178 749 OFFCURVE",
"87 649 OFFCURVE",
"87 553 CURVE SMOOTH",
"87 501 OFFCURVE",
"112 452 OFFCURVE",
"172 417 CURVE",
"50 383 OFFCURVE",
"-8 287 OFFCURVE",
"-8 196 CURVE SMOOTH",
"-8 93 OFFCURVE",
"66 -5 OFFCURVE",
"203 -5 CURVE SMOOTH",
"364 -5 OFFCURVE",
"480 139 OFFCURVE",
"480 261 CURVE SMOOTH",
"480 329 OFFCURVE",
"444 390 OFFCURVE",
"359 417 CURVE"
);
},
{
closed = 1;
nodes = (
"235 482 OFFCURVE",
"218 526 OFFCURVE",
"218 570 CURVE SMOOTH",
"218 637 OFFCURVE",
"256 701 OFFCURVE",
"323 701 CURVE SMOOTH",
"355 701 OFFCURVE",
"372 671 OFFCURVE",
"372 631 CURVE SMOOTH",
"372 575 OFFCURVE",
"338 494 OFFCURVE",
"271 451 CURVE"
);
}
);
width = 499;
}
);
unicode = 0038;
},
{
glyphname = ellipsis;
lastChange = "2016-04-09 11:26:51 +0000";
layers = (
{
hints = (
{
place = "{31.000000, 159.000000}";
},
{
place = "{266.000000, 159.000000}";
},
{
place = "{511.000000, 159.000000}";
},
{
horizontal = 1;
place = "{-4.000000, 159.000000}";
}
);
layerId = UUID0;
name = Regular;
paths = (
{
closed = 1;
nodes = (
"190 119 OFFCURVE",
"154 155 OFFCURVE",
"110 155 CURVE SMOOTH",
"66 155 OFFCURVE",
"31 119 OFFCURVE",
"31 75 CURVE SMOOTH",
"31 31 OFFCURVE",
"66 -4 OFFCURVE",
"110 -4 CURVE SMOOTH",
"154 -4 OFFCURVE",
"190 31 OFFCURVE",
"190 75 CURVE SMOOTH"
);
},
{
closed = 1;
nodes = (
"425 119 OFFCURVE",
"389 155 OFFCURVE",
"345 155 CURVE SMOOTH",
"301 155 OFFCURVE",
"266 119 OFFCURVE",
"266 75 CURVE SMOOTH",
"266 31 OFFCURVE",
"301 -4 OFFCURVE",
"345 -4 CURVE SMOOTH",
"389 -4 OFFCURVE",
"425 31 OFFCURVE",
"425 75 CURVE SMOOTH"
);
},
{
closed = 1;
nodes = (
"670 119 OFFCURVE",
"634 155 OFFCURVE",
"590 155 CURVE SMOOTH",
"546 155 OFFCURVE",
"511 119 OFFCURVE",
"511 75 CURVE SMOOTH",
"511 31 OFFCURVE",
"546 -4 OFFCURVE",
"590 -4 CURVE SMOOTH",
"634 -4 OFFCURVE",
"670 31 OFFCURVE",
"670 75 CURVE SMOOTH"
);
}
);
width = 702;
}
);
unicode = 2026;
},
{
glyphname = emdash;
lastChange = "2016-04-09 11:26:51 +0000";
layers = (
{
hints = (
{
place = "{19.000000, 368.000000}";
},
{
horizontal = 1;
place = "{222.000000, 79.000000}";
}
);
layerId = UUID0;
name = Regular;
paths = (
{
closed = 1;
nodes = (
"370 222 LINE",
"387 301 LINE",
"37 301 LINE",
"19 222 LINE"
);
}
);
width = 444;
}
);
unicode = 2014;
},
{
glyphname = endash;
lastChange = "2016-04-09 11:26:51 +0000";
layers = (
{
hints = (
{
place = "{19.000000, 278.000000}";
},
{
horizontal = 1;
place = "{222.000000, 79.000000}";
}
);
layerId = UUID0;
name = Regular;
paths = (
{
closed = 1;
nodes = (
"280 222 LINE",
"297 301 LINE",
"37 301 LINE",
"19 222 LINE"
);
}
);
width = 352;
}
);
unicode = 2013;
},
{
glyphname = eogonek;
lastChange = "2016-04-09 11:26:51 +0000";
layers = (
{
hints = (
{
place = "{-13.000000, 148.000000}";
},
{
place = "{290.000000, 77.000000}";
},
{
place = "{118.000000, 83.000000}";
},
{
horizontal = 1;
place = "{-193.000000, 59.000000}";
},
{
horizontal = 1;
place = "{-6.000000, 84.000000}";
},
{
horizontal = 1;
place = "{456.000000, 53.000000}";
}
);
layerId = UUID0;
name = Regular;
paths = (
{
closed = 1;
nodes = (
"384 179 LINE",
"333 123 OFFCURVE",
"286 78 OFFCURVE",
"207 78 CURVE SMOOTH",
"159 78 OFFCURVE",
"135 94 OFFCURVE",
"135 162 CURVE SMOOTH",
"135 174 OFFCURVE",
"136 187 OFFCURVE",
"137 202 CURVE",
"257 210 OFFCURVE",
"367 297 OFFCURVE",
"367 413 CURVE SMOOTH",
"367 463 OFFCURVE",
"346 509 OFFCURVE",
"257 509 CURVE SMOOTH",
"52 509 OFFCURVE",
"-13 268 OFFCURVE",
"-13 153 CURVE SMOOTH",
"-13 40 OFFCURVE",
"48 -6 OFFCURVE",
"143 -6 CURVE SMOOTH",
"158 -6 OFFCURVE",
"172 -5 OFFCURVE",
"185 -3 CURVE",
"141 -40 OFFCURVE",
"118 -80 OFFCURVE",
"118 -115 CURVE SMOOTH",
"118 -150 OFFCURVE",
"142 -193 OFFCURVE",
"197 -193 CURVE SMOOTH",
"247 -193 OFFCURVE",
"283 -154 OFFCURVE",
"306 -131 CURVE",
"306 -119 OFFCURVE",
"307 -112 OFFCURVE",
"308 -100 CURVE",
"288 -113 OFFCURVE",
"264 -134 OFFCURVE",
"240 -134 CURVE SMOOTH",
"212 -134 OFFCURVE",
"201 -107 OFFCURVE",
"201 -84 CURVE SMOOTH",
"201 32 OFFCURVE",
"314 -1 OFFCURVE",
"418 179 CURVE"
);
},
{
closed = 1;
nodes = (
"164 349 OFFCURVE",
"215 456 OFFCURVE",
"265 456 CURVE SMOOTH",
"284 456 OFFCURVE",
"290 440 OFFCURVE",
"290 415 CURVE SMOOTH",
"290 332 OFFCURVE",
"221 255 OFFCURVE",
"145 250 CURVE"
);
}
);
width = 384;
}
);
unicode = 0119;
},
{
glyphname = equal;
lastChange = "2016-04-09 11:26:51 +0000";
layers = (
{
hints = (
{
place = "{32.000000, 436.000000}";
},
{
horizontal = 1;
place = "{101.000000, 112.000000}";
},
{
horizontal = 1;
place = "{316.000000, 112.000000}";
}
);
layerId = UUID0;
name = Regular;
paths = (
{
closed = 1;
nodes = (
"445 316 LINE",
"468 428 LINE",
"100 428 LINE",
"76 316 LINE"
);
},
{
closed = 1;
nodes = (
"401 101 LINE",
"424 213 LINE",
"56 213 LINE",
"32 101 LINE"
);
}
);
width = 515;
}
);
unicode = 003D;
},
{
glyphname = eth;
lastChange = "2016-04-09 11:26:51 +0000";
layers = (
{
hints = (
{
place = "{-1.000000, 148.000000}";
},
{
place = "{281.000000, 135.000000}";
},
{
place = "{356.000000, 129.000000}";
},
{
horizontal = 1;
place = "{0.000000, 91.000000}";
},
{
horizontal = 1;
place = "{443.000000, 62.000000}";
},
{
horizontal = 1;
place = "{561.000000, 40.000000}";
},
{
horizontal = 1;
place = "{-6.000000, 97.000000}";
},
{
horizontal = 1;
place = "{0.000000, 21.000000}";
target = up;
type = BottomGhost;
}
);
layerId = UUID0;
name = Regular;
paths = (
{
closed = 1;
nodes = (
"538 179 LINE",
"523 128 OFFCURVE",
"496 91 OFFCURVE",
"457 91 CURVE SMOOTH",
"429 91 OFFCURVE",
"416 100 OFFCURVE",
"416 128 CURVE SMOOTH",
"416 138 OFFCURVE",
"417 149 OFFCURVE",
"420 160 CURVE",
"474 415 LINE",
"481 452 OFFCURVE",
"485 483 OFFCURVE",
"485 508 CURVE SMOOTH",
"485 527 OFFCURVE",
"483 545 OFFCURVE",
"479 561 CURVE",
"521 561 LINE",
"529 601 LINE",
"466 601 LINE",
"443 649 OFFCURVE",
"402 676 OFFCURVE",
"359 700 CURVE",
"314 700 LINE",
"338 668 OFFCURVE",
"352 635 OFFCURVE",
"356 601 CURVE",
"287 601 LINE",
"279 561 LINE",
"356 561 LINE",
"355 538 OFFCURVE",
"352 513 OFFCURVE",
"345 485 CURVE SMOOTH",
"337 448 LINE",
"337 454 LINE SMOOTH",
"337 483 OFFCURVE",
"313 505 OFFCURVE",
"256 505 CURVE SMOOTH",
"82 505 OFFCURVE",
"-1 291 OFFCURVE",
"-1 155 CURVE SMOOTH",
"-1 36 OFFCURVE",
"64 -6 OFFCURVE",
"132 -6 CURVE SMOOTH",
"203 -6 OFFCURVE",
"251 41 OFFCURVE",
"281 87 CURVE",
"289 30 OFFCURVE",
"324 0 OFFCURVE",
"379 0 CURVE SMOOTH",
"432 0 OFFCURVE",
"524 16 OFFCURVE",
"580 179 CURVE"
);
},
{
closed = 1;
nodes = (
"280 179 LINE",
"267 120 OFFCURVE",
"227 91 OFFCURVE",
"197 91 CURVE SMOOTH",
"179 91 OFFCURVE",
"147 93 OFFCURVE",
"147 169 CURVE SMOOTH",
"147 263 OFFCURVE",
"202 443 OFFCURVE",
"287 443 CURVE SMOOTH",
"319 443 OFFCURVE",
"328 416 OFFCURVE",
"328 405 CURVE"
);
}
);
width = 538;
vertWidth = 4;
}
);
unicode = 00F0;
},
{
glyphname = exclam;
lastChange = "2016-04-09 11:26:51 +0000";
layers = (
{
hints = (
{
place = "{34.000000, 159.000000}";
},
{
horizontal = 1;
place = "{0.000000, 159.000000}";
}
);
layerId = UUID0;
name = Regular;
paths = (
{
closed = 1;
nodes = (
"183 231 LINE",
"313 700 LINE",
"169 700 LINE",
"98 231 LINE"
);
},
{
closed = 1;
nodes = (
"158 0 OFFCURVE",
"193 36 OFFCURVE",
"193 80 CURVE SMOOTH",
"193 124 OFFCURVE",
"158 159 OFFCURVE",
"114 159 CURVE SMOOTH",
"70 159 OFFCURVE",
"34 124 OFFCURVE",
"34 80 CURVE SMOOTH",
"34 36 OFFCURVE",
"70 0 OFFCURVE",
"114 0 CURVE SMOOTH"
);
}
);
width = 257;
}
);
unicode = 0021;
},
{
glyphname = exclamdown;
lastChange = "2016-04-09 11:26:51 +0000";
layers = (
{
hints = (
{
place = "{59.000000, 159.000000}";
},
{
horizontal = 1;
place = "{293.000000, 159.000000}";
}
);
layerId = UUID0;
name = Regular;
paths = (
{
closed = 1;
nodes = (
"83 -248 LINE",
"154 221 LINE",
"69 221 LINE",
"-61 -248 LINE"
);
},
{
closed = 1;
nodes = (
"218 416 OFFCURVE",
"182 452 OFFCURVE",
"138 452 CURVE SMOOTH",
"94 452 OFFCURVE",
"59 416 OFFCURVE",
"59 372 CURVE SMOOTH",
"59 328 OFFCURVE",
"94 293 OFFCURVE",
"138 293 CURVE SMOOTH",
"182 293 OFFCURVE",
"218 328 OFFCURVE",
"218 372 CURVE SMOOTH"
);
}
);
width = 219;
}
);
unicode = 00A1;
},
{
glyphname = f;
lastChange = "2016-04-09 11:26:51 +0000";
layers = (
{
hints = (
{
place = "{-208.000000, 55.000000}";
},
{
place = "{337.000000, 48.000000}";
},
{
horizontal = 1;
place = "{-250.000000, 89.000000}";
},
{
horizontal = 1;
place = "{460.000000, 40.000000}";
},
{
horizontal = 1;
place = "{661.000000, 88.000000}";
}
);
layerId = UUID0;
name = Regular;
paths = (
{
closed = 1;
nodes = (
"-36 8 LINE",
"-131 -21 OFFCURVE",
"-208 -50 OFFCURVE",
"-208 -142 CURVE SMOOTH",
"-208 -207 OFFCURVE",
"-150 -250 OFFCURVE",
"-90 -250 CURVE SMOOTH",
"-25 -250 OFFCURVE",
"60 -223 OFFCURVE",
"89 -80 CURVE",
"204 460 LINE",
"278 460 LINE",
"285 500 LINE",
"212 500 LINE",
"229 579 LINE",
"242 646 OFFCURVE",
"278 661 OFFCURVE",
"299 661 CURVE SMOOTH",
"319 661 OFFCURVE",
"337 650 OFFCURVE",
"337 627 CURVE SMOOTH",
"337 618 OFFCURVE",
"336 611 OFFCURVE",
"335 600 CURVE",
"382 600 LINE",
"384 612 OFFCURVE",
"385 626 OFFCURVE",
"385 641 CURVE SMOOTH",
"385 706 OFFCURVE",
"327 749 OFFCURVE",
"267 749 CURVE SMOOTH",
"202 749 OFFCURVE",
"114 722 OFFCURVE",
"85 579 CURVE"
);
},
{
closed = 1;
nodes = (
"-56 -83 LINE",
"-69 -143 OFFCURVE",
"-92 -161 OFFCURVE",
"-113 -161 CURVE SMOOTH",
"-136 -161 OFFCURVE",
"-153 -143 OFFCURVE",
"-153 -128 CURVE SMOOTH",
"-153 -74 OFFCURVE",
"-106 -46 OFFCURVE",
"-43 -25 CURVE"
);
}
);
width = 267;
}
);
unicode = 0066;
},
{
glyphname = ff;
lastChange = "2016-04-09 11:26:51 +0000";
layers = (
{
hints = (
{
place = "{-209.000000, 61.000000}";
},
{
place = "{580.000000, 48.000000}";
},
{
horizontal = 1;
place = "{-250.000000, 89.000000}";
},
{
horizontal = 1;
place = "{460.000000, 40.000000}";
},
{
horizontal = 1;
place = "{661.000000, 88.000000}";
}
);
layerId = UUID0;
name = Regular;
paths = (
{
closed = 1;
nodes = (
"547 460 LINE",
"556 500 LINE",
"456 500 LINE",
"474 582 LINE",
"490 649 OFFCURVE",
"520 661 OFFCURVE",
"542 661 CURVE SMOOTH",
"562 661 OFFCURVE",
"580 650 OFFCURVE",
"580 627 CURVE SMOOTH",
"580 618 OFFCURVE",
"579 611 OFFCURVE",
"578 600 CURVE",
"625 600 LINE",
"627 612 OFFCURVE",
"628 626 OFFCURVE",
"628 641 CURVE SMOOTH",
"628 706 OFFCURVE",
"570 749 OFFCURVE",
"510 749 CURVE SMOOTH",
"466 749 OFFCURVE",
"413 737 OFFCURVE",
"373 686 CURVE",
"354 725 OFFCURVE",
"311 749 OFFCURVE",
"266 749 CURVE SMOOTH",
"201 749 OFFCURVE",
"113 722 OFFCURVE",
"84 579 CURVE",
"-36 8 LINE",
"-132 -21 OFFCURVE",
"-209 -50 OFFCURVE",
"-209 -142 CURVE SMOOTH",
"-209 -207 OFFCURVE",
"-151 -250 OFFCURVE",
"-91 -250 CURVE SMOOTH",
"-47 -250 OFFCURVE",
"6 -238 OFFCURVE",
"45 -187 CURVE",
"61 -226 OFFCURVE",
"96 -250 OFFCURVE",
"153 -250 CURVE SMOOTH",
"218 -250 OFFCURVE",
"306 -223 OFFCURVE",
"335 -80 CURVE",
"448 460 LINE"
);
},
{
closed = 1;
nodes = (
"218 55 LINE",
"115 37 LINE",
"204 460 LINE",
"303 460 LINE"
);
},
{
closed = 1;
nodes = (
"189 -83 LINE",
"176 -143 OFFCURVE",
"151 -161 OFFCURVE",
"130 -161 CURVE SMOOTH",
"103 -161 OFFCURVE",
"81 -157 OFFCURVE",
"72 -141 CURVE",
"79 -124 OFFCURVE",
"86 -103 OFFCURVE",
"91 -80 CURVE SMOOTH",
"110 12 LINE",
"213 31 LINE"
);
},
{
closed = 1;
nodes = (
"311 500 LINE",
"212 500 LINE",
"230 582 LINE",
"246 649 OFFCURVE",
"276 661 OFFCURVE",
"298 661 CURVE SMOOTH",
"318 661 OFFCURVE",
"336 650 OFFCURVE",
"336 627 CURVE SMOOTH",
"336 619 OFFCURVE",
"335 613 OFFCURVE",
"334 605 CURVE",
"328 579 LINE"
);
},
{
closed = 1;
nodes = (
"-49 -83 LINE",
"-62 -143 OFFCURVE",
"-87 -161 OFFCURVE",
"-108 -161 CURVE SMOOTH",
"-131 -161 OFFCURVE",
"-148 -143 OFFCURVE",
"-148 -128 CURVE SMOOTH",
"-148 -74 OFFCURVE",
"-100 -46 OFFCURVE",
"-37 -25 CURVE"
);
}
);
width = 508;
}
);
unicode = FB00;
},
{
glyphname = ffi;
lastChange = "2016-04-09 11:26:51 +0000";
layers = (
{
components = (
{
name = dotlessi;
transform = "{1, 0, 0, 1, 497, 0}";
}
);
hints = (
{
place = "{-209.000000, 61.000000}";
},
{
place = "{622.000000, 97.000000}";
},
{
horizontal = 1;
place = "{-250.000000, 89.000000}";
},
{
horizontal = 1;
place = "{460.000000, 40.000000}";
},
{
horizontal = 1;
place = "{553.000000, 103.000000}";
},
{
horizontal = 1;
place = "{695.000000, 54.000000}";
},
{
horizontal = 1;
place = "{676.000000, 73.000000}";
},
{
horizontal = 1;
place = "{-250.000000, 75.000000}";
}
);
layerId = UUID0;
name = Regular;
paths = (
{
closed = 1;
nodes = (
"566 460 LINE",
"574 500 LINE",
"444 500 LINE",
"461 582 LINE SMOOTH",
"472 639 OFFCURVE",
"503 695 OFFCURVE",
"567 695 CURVE SMOOTH",
"599 695 OFFCURVE",
"621 682 OFFCURVE",
"622 655 CURVE",
"621 656 OFFCURVE",
"617 656 OFFCURVE",
"614 656 CURVE SMOOTH",
"593 656 OFFCURVE",
"580 630 OFFCURVE",
"580 607 CURVE SMOOTH",
"580 564 OFFCURVE",
"611 553 OFFCURVE",
"640 553 CURVE SMOOTH",
"681 553 OFFCURVE",
"719 574 OFFCURVE",
"719 634 CURVE SMOOTH",
"719 730 OFFCURVE",
"620 749 OFFCURVE",
"540 749 CURVE SMOOTH",
"491 749 OFFCURVE",
"436 740 OFFCURVE",
"389 697 CURVE",
"362 732 OFFCURVE",
"321 749 OFFCURVE",
"266 749 CURVE SMOOTH",
"201 749 OFFCURVE",
"113 722 OFFCURVE",
"84 579 CURVE",
"-36 8 LINE",
"-132 -21 OFFCURVE",
"-209 -50 OFFCURVE",
"-209 -142 CURVE SMOOTH",
"-209 -207 OFFCURVE",
"-151 -250 OFFCURVE",
"-91 -250 CURVE SMOOTH",
"-50 -250 OFFCURVE",
"-2 -240 OFFCURVE",
"37 -197 CURVE",
"57 -230 OFFCURVE",
"97 -250 OFFCURVE",
"146 -250 CURVE SMOOTH",
"209 -250 OFFCURVE",
"293 -219 OFFCURVE",
"322 -80 CURVE SMOOTH",
"436 460 LINE"
);
},
{
closed = 1;
nodes = (
"204 51 LINE",
"116 36 LINE",
"206 460 LINE",
"290 460 LINE"
);
},
{
closed = 1;
nodes = (
"176 -83 LINE",
"161 -151 OFFCURVE",
"135 -175 OFFCURVE",
"108 -175 CURVE SMOOTH",
"97 -175 OFFCURVE",
"75 -170 OFFCURVE",
"71 -143 CURVE",
"80 -124 OFFCURVE",
"86 -103 OFFCURVE",
"91 -80 CURVE SMOOTH",
"110 8 LINE",
"199 26 LINE"
);
},
{
closed = 1;
nodes = (
"299 500 LINE",
"214 500 LINE",
"230 582 LINE SMOOTH",
"238 626 OFFCURVE",
"260 676 OFFCURVE",
"316 676 CURVE SMOOTH",
"335 676 OFFCURVE",
"347 670 OFFCURVE",
"356 659 CURVE",
"335 628 OFFCURVE",
"317 589 OFFCURVE",
"306 534 CURVE SMOOTH"
);
},
{
closed = 1;
nodes = (
"-49 -83 LINE",
"-61 -143 OFFCURVE",
"-88 -161 OFFCURVE",
"-108 -161 CURVE SMOOTH",
"-131 -161 OFFCURVE",
"-148 -143 OFFCURVE",
"-148 -128 CURVE SMOOTH",
"-148 -74 OFFCURVE",
"-100 -46 OFFCURVE",
"-37 -25 CURVE"
);
}
);
width = 764;
}
);
unicode = FB03;
},
{
glyphname = ffl;
lastChange = "2016-04-09 11:26:51 +0000";
layers = (
{
hints = (
{
place = "{-209.000000, 61.000000}";
},
{
place = "{505.000000, 144.000000}";
},
{
horizontal = 1;
place = "{-6.000000, 97.000000}";
},
{
horizontal = 1;
place = "{460.000000, 40.000000}";
},
{
horizontal = 1;
place = "{686.000000, 63.000000}";
},
{
horizontal = 1;
place = "{-250.000000, 89.000000}";
},
{
horizontal = 1;
place = "{676.000000, 73.000000}";
},
{
horizontal = 1;
place = "{-250.000000, 75.000000}";
}
);
layerId = UUID0;
name = Regular;
paths = (
{
closed = 1;
nodes = (
"780 179 LINE",
"765 128 OFFCURVE",
"729 91 OFFCURVE",
"690 91 CURVE SMOOTH",
"662 91 OFFCURVE",
"649 100 OFFCURVE",
"649 128 CURVE SMOOTH",
"649 138 OFFCURVE",
"650 149 OFFCURVE",
"653 160 CURVE",
"763 680 LINE",
"672 716 OFFCURVE",
"589 749 OFFCURVE",
"498 749 CURVE SMOOTH",
"461 749 OFFCURVE",
"417 740 OFFCURVE",
"381 707 CURVE",
"354 735 OFFCURVE",
"315 749 OFFCURVE",
"266 749 CURVE SMOOTH",
"201 749 OFFCURVE",
"113 722 OFFCURVE",
"84 579 CURVE",
"-36 8 LINE",
"-132 -21 OFFCURVE",
"-209 -50 OFFCURVE",
"-209 -142 CURVE SMOOTH",
"-209 -207 OFFCURVE",
"-151 -250 OFFCURVE",
"-91 -250 CURVE SMOOTH",
"-50 -250 OFFCURVE",
"-2 -239 OFFCURVE",
"37 -196 CURVE",
"57 -231 OFFCURVE",
"95 -250 OFFCURVE",
"146 -250 CURVE SMOOTH",
"209 -250 OFFCURVE",
"293 -219 OFFCURVE",
"322 -80 CURVE SMOOTH",
"437 460 LINE",
"530 460 LINE",
"538 500 LINE",
"445 500 LINE",
"467 607 LINE SMOOTH",
"480 674 OFFCURVE",
"513 686 OFFCURVE",
"535 686 CURVE SMOOTH",
"548 686 OFFCURVE",
"590 681 OFFCURVE",
"617 670 CURVE",
"513 179 LINE SMOOTH",
"508 154 OFFCURVE",
"505 132 OFFCURVE",
"505 114 CURVE SMOOTH",
"505 30 OFFCURVE",
"552 -6 OFFCURVE",
"612 -6 CURVE SMOOTH",
"665 -6 OFFCURVE",
"766 16 OFFCURVE",
"822 179 CURVE"
);
},
{
closed = 1;
nodes = (
"204 51 LINE",
"116 36 LINE",
"206 460 LINE",
"291 460 LINE"
);
},
{
closed = 1;
nodes = (
"176 -83 LINE",
"161 -151 OFFCURVE",
"135 -175 OFFCURVE",
"108 -175 CURVE SMOOTH",
"99 -175 OFFCURVE",
"74 -170 OFFCURVE",
"71 -142 CURVE",
"80 -123 OFFCURVE",
"86 -102 OFFCURVE",
"91 -80 CURVE SMOOTH",
"110 8 LINE",
"199 26 LINE"
);
},
{
closed = 1;
nodes = (
"299 500 LINE",
"214 500 LINE",
"230 582 LINE SMOOTH",
"238 626 OFFCURVE",
"260 676 OFFCURVE",
"316 676 CURVE SMOOTH",
"329 676 OFFCURVE",
"339 673 OFFCURVE",
"348 666 CURVE",
"335 643 OFFCURVE",
"323 615 OFFCURVE",
"316 579 CURVE SMOOTH"
);
},
{
closed = 1;
nodes = (
"-49 -83 LINE",
"-61 -143 OFFCURVE",
"-88 -161 OFFCURVE",
"-108 -161 CURVE SMOOTH",
"-131 -161 OFFCURVE",
"-148 -143 OFFCURVE",
"-148 -128 CURVE SMOOTH",
"-148 -74 OFFCURVE",
"-100 -46 OFFCURVE",
"-37 -25 CURVE"
);
}
);
width = 780;
}
);
unicode = FB04;
},
{
glyphname = f_f_t;
lastChange = "2016-04-09 11:26:51 +0000";
layers = (
{
hints = (
{
place = "{-209.000000, 61.000000}";
},
{
place = "{505.000000, 144.000000}";
},
{
horizontal = 1;
place = "{-6.000000, 97.000000}";
},
{
horizontal = 1;
place = "{460.000000, 40.000000}";
},
{
horizontal = 1;
place = "{686.000000, 63.000000}";
},
{
horizontal = 1;
place = "{-250.000000, 89.000000}";
},
{
horizontal = 1;
place = "{676.000000, 73.000000}";
},
{
horizontal = 1;
place = "{-250.000000, 75.000000}";
}
);
layerId = UUID0;
name = Regular;
paths = (
{
closed = 1;
nodes = (
"780 179 LINE",
"765 128 OFFCURVE",
"729 91 OFFCURVE",
"690 91 CURVE SMOOTH",
"662 91 OFFCURVE",
"649 100 OFFCURVE",
"649 128 CURVE SMOOTH",
"649 138 OFFCURVE",
"650 149 OFFCURVE",
"653 160 CURVE",
"716 460 LINE",
"777 460 LINE",
"785 500 LINE",
"725 500 LINE",
"763 680 LINE",
"672 716 OFFCURVE",
"589 749 OFFCURVE",
"498 749 CURVE SMOOTH",
"461 749 OFFCURVE",
"417 740 OFFCURVE",
"381 707 CURVE",
"354 735 OFFCURVE",
"315 749 OFFCURVE",
"266 749 CURVE SMOOTH",
"201 749 OFFCURVE",
"113 722 OFFCURVE",
"84 579 CURVE",
"-36 8 LINE",
"-132 -21 OFFCURVE",
"-209 -50 OFFCURVE",
"-209 -142 CURVE SMOOTH",
"-209 -207 OFFCURVE",
"-151 -250 OFFCURVE",
"-91 -250 CURVE SMOOTH",
"-50 -250 OFFCURVE",
"-2 -239 OFFCURVE",
"37 -196 CURVE",
"57 -231 OFFCURVE",
"95 -250 OFFCURVE",
"146 -250 CURVE SMOOTH",
"209 -250 OFFCURVE",
"293 -219 OFFCURVE",
"322 -80 CURVE SMOOTH",
"437 460 LINE",
"572 460 LINE",
"513 179 LINE SMOOTH",
"508 154 OFFCURVE",
"505 132 OFFCURVE",
"505 114 CURVE SMOOTH",
"505 30 OFFCURVE",
"552 -6 OFFCURVE",
"612 -6 CURVE SMOOTH",
"665 -6 OFFCURVE",
"766 16 OFFCURVE",
"822 179 CURVE"
);
},
{
closed = 1;
nodes = (
"204 51 LINE",
"116 36 LINE",
"206 460 LINE",
"291 460 LINE"
);
},
{
closed = 1;
nodes = (
"581 500 LINE",
"445 500 LINE",
"467 607 LINE SMOOTH",
"480 674 OFFCURVE",
"513 686 OFFCURVE",
"535 686 CURVE SMOOTH",
"548 686 OFFCURVE",
"590 681 OFFCURVE",
"617 670 CURVE"
);
},
{
closed = 1;
nodes = (
"176 -83 LINE",
"161 -151 OFFCURVE",
"135 -175 OFFCURVE",
"108 -175 CURVE SMOOTH",
"99 -175 OFFCURVE",
"74 -170 OFFCURVE",
"71 -142 CURVE",
"80 -123 OFFCURVE",
"86 -102 OFFCURVE",
"91 -80 CURVE SMOOTH",
"110 8 LINE",
"199 26 LINE"
);
},
{
closed = 1;
nodes = (
"299 500 LINE",
"214 500 LINE",
"230 582 LINE SMOOTH",
"238 626 OFFCURVE",
"260 676 OFFCURVE",
"316 676 CURVE SMOOTH",
"329 676 OFFCURVE",
"339 673 OFFCURVE",
"348 666 CURVE",
"335 643 OFFCURVE",
"323 615 OFFCURVE",
"316 579 CURVE SMOOTH"
);
},
{
closed = 1;
nodes = (
"-49 -83 LINE",
"-61 -143 OFFCURVE",
"-88 -161 OFFCURVE",
"-108 -161 CURVE SMOOTH",
"-131 -161 OFFCURVE",
"-148 -143 OFFCURVE",
"-148 -128 CURVE SMOOTH",
"-148 -74 OFFCURVE",
"-100 -46 OFFCURVE",
"-37 -25 CURVE"
);
}
);
width = 780;
}
);
},
{
glyphname = fi;
lastChange = "2016-04-09 11:26:51 +0000";
layers = (
{
components = (
{
name = dotlessi;
transform = "{1, 0, 0, 1, 267, 0}";
}
);
hints = (
{
place = "{-207.000000, 55.000000}";
},
{
place = "{393.000000, 97.000000}";
},
{
horizontal = 1;
place = "{-250.000000, 89.000000}";
},
{
horizontal = 1;
place = "{460.000000, 40.000000}";
},
{
horizontal = 1;
place = "{553.000000, 103.000000}";
},
{
horizontal = 1;
place = "{695.000000, 54.000000}";
}
);
layerId = UUID0;
name = Regular;
paths = (
{
closed = 1;
nodes = (
"-34 8 LINE",
"-119 -19 OFFCURVE",
"-207 -49 OFFCURVE",
"-207 -138 CURVE SMOOTH",
"-207 -207 OFFCURVE",
"-156 -250 OFFCURVE",
"-83 -250 CURVE SMOOTH",
"-20 -250 OFFCURVE",
"64 -219 OFFCURVE",
"93 -80 CURVE SMOOTH",
"207 460 LINE",
"287 460 LINE",
"295 500 LINE",
"215 500 LINE",
"232 582 LINE SMOOTH",
"243 639 OFFCURVE",
"274 695 OFFCURVE",
"338 695 CURVE SMOOTH",
"370 695 OFFCURVE",
"392 682 OFFCURVE",
"393 655 CURVE",
"392 656 OFFCURVE",
"388 656 OFFCURVE",
"385 656 CURVE SMOOTH",
"364 656 OFFCURVE",
"351 630 OFFCURVE",
"351 607 CURVE SMOOTH",
"351 564 OFFCURVE",
"382 553 OFFCURVE",
"411 553 CURVE SMOOTH",
"452 553 OFFCURVE",
"490 574 OFFCURVE",
"490 634 CURVE SMOOTH",
"490 730 OFFCURVE",
"391 749 OFFCURVE",
"311 749 CURVE SMOOTH",
"225 749 OFFCURVE",
"117 718 OFFCURVE",
"77 534 CURVE"
);
},
{
closed = 1;
nodes = (
"-53 -83 LINE",
"-65 -140 OFFCURVE",
"-91 -161 OFFCURVE",
"-111 -161 CURVE SMOOTH",
"-122 -161 OFFCURVE",
"-152 -155 OFFCURVE",
"-152 -121 CURVE SMOOTH",
"-152 -78 OFFCURVE",
"-105 -45 OFFCURVE",
"-41 -25 CURVE"
);
}
);
width = 534;
}
);
unicode = FB01;
},
{
glyphname = fi.end;
lastChange = "2016-04-09 11:26:51 +0000";
layers = (
{
components = (
{
name = dotlessi.end;
transform = "{1, 0, 0, 1, 267, 0}";
}
);
hints = (
{
place = "{-207.000000, 55.000000}";
},
{
place = "{393.000000, 97.000000}";
},
{
horizontal = 1;
place = "{-250.000000, 89.000000}";
},
{
horizontal = 1;
place = "{460.000000, 40.000000}";
},
{
horizontal = 1;
place = "{553.000000, 103.000000}";
},
{
horizontal = 1;
place = "{695.000000, 54.000000}";
}
);
layerId = UUID0;
name = Regular;
paths = (
{
closed = 1;
nodes = (
"-53 -83 LINE",
"-65 -140 OFFCURVE",
"-91 -161 OFFCURVE",
"-111 -161 CURVE SMOOTH",
"-122 -161 OFFCURVE",
"-152 -155 OFFCURVE",
"-152 -121 CURVE SMOOTH",
"-152 -78 OFFCURVE",
"-105 -45 OFFCURVE",
"-41 -25 CURVE"
);
},
{
closed = 1;
nodes = (
"-34 8 LINE",
"-119 -19 OFFCURVE",
"-207 -49 OFFCURVE",
"-207 -138 CURVE SMOOTH",
"-207 -207 OFFCURVE",
"-156 -250 OFFCURVE",
"-83 -250 CURVE SMOOTH",
"-20 -250 OFFCURVE",
"64 -219 OFFCURVE",
"93 -80 CURVE SMOOTH",
"207 460 LINE",
"287 460 LINE",
"295 500 LINE",
"215 500 LINE",
"232 582 LINE SMOOTH",
"243 639 OFFCURVE",
"274 695 OFFCURVE",
"338 695 CURVE SMOOTH",
"370 695 OFFCURVE",
"392 682 OFFCURVE",
"393 655 CURVE",
"392 656 OFFCURVE",
"388 656 OFFCURVE",
"385 656 CURVE SMOOTH",
"364 656 OFFCURVE",
"351 630 OFFCURVE",
"351 607 CURVE SMOOTH",
"351 564 OFFCURVE",
"382 553 OFFCURVE",
"411 553 CURVE SMOOTH",
"452 553 OFFCURVE",
"490 574 OFFCURVE",
"490 634 CURVE SMOOTH",
"490 730 OFFCURVE",
"391 749 OFFCURVE",
"311 749 CURVE SMOOTH",
"225 749 OFFCURVE",
"117 718 OFFCURVE",
"77 534 CURVE"
);
}
);
width = 479;
}
);
},
{
glyphname = f_i_x;
lastChange = "2016-04-09 11:26:51 +0000";
layers = (
{
hints = (
{
place = "{-207.000000, 55.000000}";
},
{
place = "{393.000000, 97.000000}";
},
{
place = "{824.000000, 59.000000}";
},
{
place = "{259.000000, 144.000000}";
},
{
horizontal = 1;
place = "{-250.000000, 89.000000}";
},
{
horizontal = 1;
place = "{-6.000000, 98.000000}";
},
{
horizontal = 1;
place = "{460.000000, 40.000000}";
},
{
horizontal = 1;
place = "{553.000000, 103.000000}";
},
{
horizontal = 1;
place = "{695.000000, 54.000000}";
},
{
horizontal = 1;
place = "{453.000000, 103.000000}";
}
);
layerId = UUID0;
name = Regular;
paths = (
{
closed = 1;
nodes = (
"-34 8 LINE",
"-119 -19 OFFCURVE",
"-207 -49 OFFCURVE",
"-207 -138 CURVE SMOOTH",
"-207 -207 OFFCURVE",
"-156 -250 OFFCURVE",
"-83 -250 CURVE SMOOTH",
"-20 -250 OFFCURVE",
"64 -219 OFFCURVE",
"93 -80 CURVE SMOOTH",
"207 460 LINE",
"287 460 LINE",
"295 500 LINE",
"215 500 LINE",
"232 582 LINE SMOOTH",
"243 639 OFFCURVE",
"274 695 OFFCURVE",
"338 695 CURVE SMOOTH",
"370 695 OFFCURVE",
"392 682 OFFCURVE",
"393 655 CURVE",
"392 656 OFFCURVE",
"388 656 OFFCURVE",
"385 656 CURVE SMOOTH",
"364 656 OFFCURVE",
"351 630 OFFCURVE",
"351 607 CURVE SMOOTH",
"351 564 OFFCURVE",
"382 553 OFFCURVE",
"411 553 CURVE SMOOTH",
"452 553 OFFCURVE",
"490 574 OFFCURVE",
"490 634 CURVE SMOOTH",
"490 730 OFFCURVE",
"391 749 OFFCURVE",
"311 749 CURVE SMOOTH",
"225 749 OFFCURVE",
"117 718 OFFCURVE",
"77 534 CURVE"
);
},
{
closed = 1;
nodes = (
"898 179 LINE",
"883 128 OFFCURVE",
"847 91 OFFCURVE",
"808 91 CURVE SMOOTH",
"763 91 OFFCURVE",
"757 142 OFFCURVE",
"749 179 CURVE",
"740 229 LINE",
"839 333 OFFCURVE",
"883 402 OFFCURVE",
"883 467 CURVE SMOOTH",
"883 516 OFFCURVE",
"860 556 OFFCURVE",
"815 556 CURVE SMOOTH",
"784 556 OFFCURVE",
"759 540 OFFCURVE",
"759 509 CURVE SMOOTH",
"759 478 OFFCURVE",
"771 453 OFFCURVE",
"806 453 CURVE SMOOTH",
"811 453 OFFCURVE",
"816 454 OFFCURVE",
"823 455 CURVE",
"824 452 OFFCURVE",
"824 448 OFFCURVE",
"824 443 CURVE SMOOTH",
"824 407 OFFCURVE",
"789 348 OFFCURVE",
"729 284 CURVE",
"690 500 LINE",
"549 500 LINE",
"606 186 LINE",
"564 131 OFFCURVE",
"496 92 OFFCURVE",
"447 92 CURVE SMOOTH",
"420 92 OFFCURVE",
"403 103 OFFCURVE",
"403 128 CURVE SMOOTH",
"403 138 OFFCURVE",
"404 149 OFFCURVE",
"407 160 CURVE",
"479 500 LINE",
"335 500 LINE",
"267 179 LINE",
"262 152 OFFCURVE",
"259 130 OFFCURVE",
"259 113 CURVE SMOOTH",
"259 30 OFFCURVE",
"304 -6 OFFCURVE",
"365 -6 CURVE SMOOTH",
"457 -6 OFFCURVE",
"554 60 OFFCURVE",
"618 132 CURVE",
"641 35 OFFCURVE",
"670 -6 OFFCURVE",
"734 -6 CURVE SMOOTH",
"788 -6 OFFCURVE",
"884 16 OFFCURVE",
"940 179 CURVE"
);
},
{
closed = 1;
nodes = (
"-53 -83 LINE",
"-65 -140 OFFCURVE",
"-91 -161 OFFCURVE",
"-111 -161 CURVE SMOOTH",
"-122 -161 OFFCURVE",
"-152 -155 OFFCURVE",
"-152 -121 CURVE SMOOTH",
"-152 -78 OFFCURVE",
"-105 -45 OFFCURVE",
"-41 -25 CURVE"
);
}
);
width = 898;
}
);
},
{
glyphname = f_i_z;
lastChange = "2016-04-09 11:26:51 +0000";
layers = (
{
components = (
{
name = dotlessi.end;
transform = "{1, 0, 0, 1, 267, 0}";
},
{
name = z;
transform = "{1, 0, 0, 1, 476, 0}";
}
);
hints = (
{
place = "{-207.000000, 55.000000}";
},
{
place = "{393.000000, 97.000000}";
},
{
horizontal = 1;
place = "{-250.000000, 89.000000}";
},
{
horizontal = 1;
place = "{460.000000, 40.000000}";
},
{
horizontal = 1;
place = "{553.000000, 103.000000}";
},
{
horizontal = 1;
place = "{695.000000, 54.000000}";
}
);
layerId = UUID0;
name = Regular;
paths = (
{
closed = 1;
nodes = (
"-53 -83 LINE",
"-65 -140 OFFCURVE",
"-91 -161 OFFCURVE",
"-111 -161 CURVE SMOOTH",
"-122 -161 OFFCURVE",
"-152 -155 OFFCURVE",
"-152 -121 CURVE SMOOTH",
"-152 -78 OFFCURVE",
"-105 -45 OFFCURVE",
"-41 -25 CURVE"
);
},
{
closed = 1;
nodes = (
"-34 8 LINE",
"-119 -19 OFFCURVE",
"-207 -49 OFFCURVE",
"-207 -138 CURVE SMOOTH",
"-207 -207 OFFCURVE",
"-156 -250 OFFCURVE",
"-83 -250 CURVE SMOOTH",
"-20 -250 OFFCURVE",
"64 -219 OFFCURVE",
"93 -80 CURVE SMOOTH",
"207 460 LINE",
"287 460 LINE",
"295 500 LINE",
"215 500 LINE",
"232 582 LINE SMOOTH",
"243 639 OFFCURVE",
"274 695 OFFCURVE",
"338 695 CURVE SMOOTH",
"370 695 OFFCURVE",
"392 682 OFFCURVE",
"393 655 CURVE",
"392 656 OFFCURVE",
"388 656 OFFCURVE",
"385 656 CURVE SMOOTH",
"364 656 OFFCURVE",
"351 630 OFFCURVE",
"351 607 CURVE SMOOTH",
"351 564 OFFCURVE",
"382 553 OFFCURVE",
"411 553 CURVE SMOOTH",
"452 553 OFFCURVE",
"490 574 OFFCURVE",
"490 634 CURVE SMOOTH",
"490 730 OFFCURVE",
"391 749 OFFCURVE",
"311 749 CURVE SMOOTH",
"225 749 OFFCURVE",
"117 718 OFFCURVE",
"77 534 CURVE"
);
}
);
width = 904;
}
);
},
{
glyphname = fl;
lastChange = "2016-04-09 11:26:51 +0000";
layers = (
{
hints = (
{
place = "{-209.000000, 55.000000}";
},
{
place = "{273.000000, 144.000000}";
},
{
horizontal = 1;
place = "{-250.000000, 89.000000}";
},
{
horizontal = 1;
place = "{-6.000000, 97.000000}";
},
{
horizontal = 1;
place = "{460.000000, 40.000000}";
},
{
horizontal = 1;
place = "{686.000000, 63.000000}";
}
);
layerId = UUID0;
name = Regular;
paths = (
{
closed = 1;
nodes = (
"-55 -83 LINE",
"-67 -143 OFFCURVE",
"-94 -161 OFFCURVE",
"-114 -161 CURVE SMOOTH",
"-137 -161 OFFCURVE",
"-154 -143 OFFCURVE",
"-154 -128 CURVE SMOOTH",
"-154 -74 OFFCURVE",
"-106 -46 OFFCURVE",
"-43 -25 CURVE"
);
},
{
closed = 1;
nodes = (
"548 179 LINE",
"533 128 OFFCURVE",
"497 91 OFFCURVE",
"458 91 CURVE SMOOTH",
"430 91 OFFCURVE",
"417 100 OFFCURVE",
"417 128 CURVE SMOOTH",
"417 138 OFFCURVE",
"418 149 OFFCURVE",
"421 160 CURVE",
"531 680 LINE",
"440 716 OFFCURVE",
"357 749 OFFCURVE",
"266 749 CURVE SMOOTH",
"202 749 OFFCURVE",
"113 722 OFFCURVE",
"84 579 CURVE",
"-36 8 LINE",
"-132 -21 OFFCURVE",
"-209 -50 OFFCURVE",
"-209 -142 CURVE SMOOTH",
"-209 -207 OFFCURVE",
"-151 -250 OFFCURVE",
"-91 -250 CURVE SMOOTH",
"-26 -250 OFFCURVE",
"62 -223 OFFCURVE",
"91 -80 CURVE",
"205 460 LINE",
"298 460 LINE",
"306 500 LINE",
"213 500 LINE",
"235 607 LINE SMOOTH",
"248 674 OFFCURVE",
"281 686 OFFCURVE",
"303 686 CURVE SMOOTH",
"316 686 OFFCURVE",
"358 681 OFFCURVE",
"385 670 CURVE",
"281 179 LINE SMOOTH",
"276 154 OFFCURVE",
"273 132 OFFCURVE",
"273 114 CURVE SMOOTH",
"273 30 OFFCURVE",
"320 -6 OFFCURVE",
"380 -6 CURVE SMOOTH",
"433 -6 OFFCURVE",
"534 16 OFFCURVE",
"590 179 CURVE"
);
}
);
width = 548;
}
);
unicode = FB02;
},
{
glyphname = fl.end;
lastChange = "2016-04-09 11:26:51 +0000";
layers = (
{
hints = (
{
place = "{-209.000000, 55.000000}";
},
{
place = "{273.000000, 144.000000}";
},
{
horizontal = 1;
place = "{-250.000000, 89.000000}";
},
{
horizontal = 1;
place = "{-6.000000, 97.000000}";
},
{
horizontal = 1;
place = "{460.000000, 40.000000}";
},
{
horizontal = 1;
place = "{686.000000, 63.000000}";
}
);
layerId = UUID0;
name = Regular;
paths = (
{
closed = 1;
nodes = (
"-55 -83 LINE",
"-67 -143 OFFCURVE",
"-94 -161 OFFCURVE",
"-114 -161 CURVE SMOOTH",
"-137 -161 OFFCURVE",
"-154 -143 OFFCURVE",
"-154 -128 CURVE SMOOTH",
"-154 -74 OFFCURVE",
"-106 -46 OFFCURVE",
"-43 -25 CURVE"
);
},
{
closed = 1;
nodes = (
"281 179 LINE",
"276 154 OFFCURVE",
"273 132 OFFCURVE",
"273 114 CURVE SMOOTH",
"273 30 OFFCURVE",
"320 -6 OFFCURVE",
"380 -6 CURVE SMOOTH",
"433 -6 OFFCURVE",
"485 26 OFFCURVE",
"490 97 CURVE",
"483 94 OFFCURVE",
"477 91 OFFCURVE",
"458 91 CURVE SMOOTH",
"430 91 OFFCURVE",
"417 100 OFFCURVE",
"417 128 CURVE SMOOTH",
"417 138 OFFCURVE",
"418 149 OFFCURVE",
"421 160 CURVE",
"531 680 LINE",
"440 716 OFFCURVE",
"357 749 OFFCURVE",
"266 749 CURVE SMOOTH",
"202 749 OFFCURVE",
"113 722 OFFCURVE",
"84 579 CURVE",
"-36 8 LINE",
"-132 -21 OFFCURVE",
"-209 -50 OFFCURVE",
"-209 -142 CURVE SMOOTH",
"-209 -207 OFFCURVE",
"-151 -250 OFFCURVE",
"-91 -250 CURVE SMOOTH",
"-26 -250 OFFCURVE",
"62 -223 OFFCURVE",
"91 -80 CURVE",
"205 460 LINE",
"298 460 LINE",
"306 500 LINE",
"213 500 LINE",
"235 607 LINE SMOOTH",
"248 674 OFFCURVE",
"281 686 OFFCURVE",
"303 686 CURVE SMOOTH",
"316 686 OFFCURVE",
"358 681 OFFCURVE",
"385 670 CURVE"
);
}
);
width = 490;
}
);
},
{
glyphname = f_l_x;
lastChange = "2016-04-09 11:26:51 +0000";
layers = (
{
hints = (
{
place = "{-209.000000, 55.000000}";
},
{
place = "{273.000000, 144.000000}";
},
{
place = "{838.000000, 59.000000}";
},
{
horizontal = 1;
place = "{-6.000000, 98.000000}";
},
{
horizontal = 1;
place = "{460.000000, 40.000000}";
},
{
horizontal = 1;
place = "{-250.000000, 89.000000}";
},
{
horizontal = 1;
place = "{453.000000, 103.000000}";
},
{
horizontal = 1;
place = "{686.000000, 63.000000}";
}
);
layerId = UUID0;
name = Regular;
paths = (
{
closed = 1;
nodes = (
"912 179 LINE",
"897 128 OFFCURVE",
"861 91 OFFCURVE",
"822 91 CURVE SMOOTH",
"777 91 OFFCURVE",
"771 142 OFFCURVE",
"763 179 CURVE",
"754 229 LINE",
"853 333 OFFCURVE",
"897 402 OFFCURVE",
"897 467 CURVE SMOOTH",
"897 516 OFFCURVE",
"874 556 OFFCURVE",
"829 556 CURVE SMOOTH",
"798 556 OFFCURVE",
"773 540 OFFCURVE",
"773 509 CURVE SMOOTH",
"773 478 OFFCURVE",
"785 453 OFFCURVE",
"820 453 CURVE SMOOTH",
"825 453 OFFCURVE",
"830 454 OFFCURVE",
"837 455 CURVE",
"838 452 OFFCURVE",
"838 448 OFFCURVE",
"838 443 CURVE SMOOTH",
"838 407 OFFCURVE",
"803 348 OFFCURVE",
"743 284 CURVE",
"704 500 LINE",
"563 500 LINE",
"620 186 LINE",
"578 131 OFFCURVE",
"510 92 OFFCURVE",
"461 92 CURVE SMOOTH",
"434 92 OFFCURVE",
"417 103 OFFCURVE",
"417 128 CURVE SMOOTH",
"417 138 OFFCURVE",
"418 149 OFFCURVE",
"421 160 CURVE",
"531 680 LINE",
"440 716 OFFCURVE",
"357 749 OFFCURVE",
"266 749 CURVE SMOOTH",
"202 749 OFFCURVE",
"113 722 OFFCURVE",
"84 579 CURVE",
"-36 8 LINE",
"-132 -21 OFFCURVE",
"-209 -50 OFFCURVE",
"-209 -142 CURVE SMOOTH",
"-209 -207 OFFCURVE",
"-151 -250 OFFCURVE",
"-91 -250 CURVE SMOOTH",
"-26 -250 OFFCURVE",
"62 -223 OFFCURVE",
"91 -80 CURVE",
"205 460 LINE",
"298 460 LINE",
"306 500 LINE",
"213 500 LINE",
"235 607 LINE SMOOTH",
"248 674 OFFCURVE",
"281 686 OFFCURVE",
"303 686 CURVE SMOOTH",
"316 686 OFFCURVE",
"358 681 OFFCURVE",
"385 670 CURVE",
"281 179 LINE",
"276 152 OFFCURVE",
"273 130 OFFCURVE",
"273 113 CURVE SMOOTH",
"273 30 OFFCURVE",
"318 -6 OFFCURVE",
"379 -6 CURVE SMOOTH",
"471 -6 OFFCURVE",
"568 60 OFFCURVE",
"632 132 CURVE",
"655 35 OFFCURVE",
"684 -6 OFFCURVE",
"748 -6 CURVE SMOOTH",
"802 -6 OFFCURVE",
"898 16 OFFCURVE",
"954 179 CURVE"
);
},
{
closed = 1;
nodes = (
"-55 -83 LINE",
"-68 -143 OFFCURVE",
"-93 -161 OFFCURVE",
"-114 -161 CURVE SMOOTH",
"-137 -161 OFFCURVE",
"-154 -143 OFFCURVE",
"-154 -128 CURVE SMOOTH",
"-154 -74 OFFCURVE",
"-106 -46 OFFCURVE",
"-43 -25 CURVE"
);
}
);
width = 912;
}
);
},
{
glyphname = f_t;
lastChange = "2016-04-09 11:26:51 +0000";
layers = (
{
hints = (
{
place = "{-209.000000, 55.000000}";
},
{
place = "{273.000000, 144.000000}";
},
{
horizontal = 1;
place = "{-250.000000, 89.000000}";
},
{
horizontal = 1;
place = "{-6.000000, 97.000000}";
},
{
horizontal = 1;
place = "{460.000000, 40.000000}";
},
{
horizontal = 1;
place = "{686.000000, 63.000000}";
}
);
layerId = UUID0;
name = Regular;
paths = (
{
closed = 1;
nodes = (
"548 179 LINE",
"533 128 OFFCURVE",
"497 91 OFFCURVE",
"458 91 CURVE SMOOTH",
"430 91 OFFCURVE",
"417 100 OFFCURVE",
"417 128 CURVE SMOOTH",
"417 138 OFFCURVE",
"418 149 OFFCURVE",
"421 160 CURVE",
"484 460 LINE",
"545 460 LINE",
"553 500 LINE",
"493 500 LINE",
"531 680 LINE",
"440 716 OFFCURVE",
"357 749 OFFCURVE",
"266 749 CURVE SMOOTH",
"202 749 OFFCURVE",
"113 722 OFFCURVE",
"84 579 CURVE",
"-36 8 LINE",
"-132 -21 OFFCURVE",
"-209 -50 OFFCURVE",
"-209 -142 CURVE SMOOTH",
"-209 -207 OFFCURVE",
"-151 -250 OFFCURVE",
"-91 -250 CURVE SMOOTH",
"-26 -250 OFFCURVE",
"62 -223 OFFCURVE",
"91 -80 CURVE",
"205 460 LINE",
"340 460 LINE",
"281 179 LINE SMOOTH",
"276 154 OFFCURVE",
"273 132 OFFCURVE",
"273 114 CURVE SMOOTH",
"273 30 OFFCURVE",
"320 -6 OFFCURVE",
"380 -6 CURVE SMOOTH",
"433 -6 OFFCURVE",
"534 16 OFFCURVE",
"590 179 CURVE"
);
},
{
closed = 1;
nodes = (
"349 500 LINE",
"213 500 LINE",
"235 607 LINE SMOOTH",
"248 674 OFFCURVE",
"281 686 OFFCURVE",
"303 686 CURVE SMOOTH",
"316 686 OFFCURVE",
"358 681 OFFCURVE",
"385 670 CURVE"
);
},
{
closed = 1;
nodes = (
"-55 -83 LINE",
"-68 -143 OFFCURVE",
"-93 -161 OFFCURVE",
"-114 -161 CURVE SMOOTH",
"-137 -161 OFFCURVE",
"-154 -143 OFFCURVE",
"-154 -128 CURVE SMOOTH",
"-154 -74 OFFCURVE",
"-106 -46 OFFCURVE",
"-43 -25 CURVE"
);
}
);
width = 548;
}
);
},
{
glyphname = f_u;
lastChange = "2016-04-09 11:26:51 +0000";
layers = (
{
components = (
{
name = u;
transform = "{1, 0, 0, 1, 267, 0}";
}
);
hints = (
{
place = "{-208.000000, 55.000000}";
},
{
place = "{337.000000, 48.000000}";
},
{
horizontal = 1;
place = "{-250.000000, 89.000000}";
},
{
horizontal = 1;
place = "{460.000000, 40.000000}";
},
{
horizontal = 1;
place = "{661.000000, 88.000000}";
}
);
layerId = UUID0;
name = Regular;
paths = (
{
closed = 1;
nodes = (
"-36 8 LINE",
"-131 -21 OFFCURVE",
"-208 -50 OFFCURVE",
"-208 -142 CURVE SMOOTH",
"-208 -207 OFFCURVE",
"-150 -250 OFFCURVE",
"-90 -250 CURVE SMOOTH",
"-25 -250 OFFCURVE",
"60 -223 OFFCURVE",
"89 -80 CURVE",
"204 460 LINE",
"398 460 LINE",
"405 500 LINE",
"212 500 LINE",
"229 579 LINE",
"242 646 OFFCURVE",
"278 661 OFFCURVE",
"299 661 CURVE SMOOTH",
"319 661 OFFCURVE",
"337 650 OFFCURVE",
"337 627 CURVE SMOOTH",
"337 618 OFFCURVE",
"336 611 OFFCURVE",
"335 600 CURVE",
"382 600 LINE",
"384 612 OFFCURVE",
"385 626 OFFCURVE",
"385 641 CURVE SMOOTH",
"385 706 OFFCURVE",
"327 749 OFFCURVE",
"267 749 CURVE SMOOTH",
"202 749 OFFCURVE",
"114 722 OFFCURVE",
"85 579 CURVE"
);
},
{
closed = 1;
nodes = (
"-56 -83 LINE",
"-69 -143 OFFCURVE",
"-92 -161 OFFCURVE",
"-113 -161 CURVE SMOOTH",
"-136 -161 OFFCURVE",
"-153 -143 OFFCURVE",
"-153 -128 CURVE SMOOTH",
"-153 -74 OFFCURVE",
"-106 -46 OFFCURVE",
"-43 -25 CURVE"
);
}
);
width = 772;
}
);
},
{
glyphname = f_u.end;
lastChange = "2016-04-09 11:26:51 +0000";
layers = (
{
components = (
{
name = u.end;
transform = "{1, 0, 0, 1, 267, 0}";
}
);
hints = (
{
place = "{-208.000000, 55.000000}";
},
{
place = "{337.000000, 48.000000}";
},
{
horizontal = 1;
place = "{-250.000000, 89.000000}";
},
{
horizontal = 1;
place = "{460.000000, 40.000000}";
},
{
horizontal = 1;
place = "{661.000000, 88.000000}";
}
);
layerId = UUID0;
name = Regular;
paths = (
{
closed = 1;
nodes = (
"-36 8 LINE",
"-131 -21 OFFCURVE",
"-208 -50 OFFCURVE",
"-208 -142 CURVE SMOOTH",
"-208 -207 OFFCURVE",
"-150 -250 OFFCURVE",
"-90 -250 CURVE SMOOTH",
"-25 -250 OFFCURVE",
"60 -223 OFFCURVE",
"89 -80 CURVE",
"204 460 LINE",
"398 460 LINE",
"405 500 LINE",
"212 500 LINE",
"229 579 LINE",
"242 646 OFFCURVE",
"278 661 OFFCURVE",
"299 661 CURVE SMOOTH",
"319 661 OFFCURVE",
"337 650 OFFCURVE",
"337 627 CURVE SMOOTH",
"337 618 OFFCURVE",
"336 611 OFFCURVE",
"335 600 CURVE",
"382 600 LINE",
"384 612 OFFCURVE",
"385 626 OFFCURVE",
"385 641 CURVE SMOOTH",
"385 706 OFFCURVE",
"327 749 OFFCURVE",
"267 749 CURVE SMOOTH",
"202 749 OFFCURVE",
"114 722 OFFCURVE",
"85 579 CURVE"
);
},
{
closed = 1;
nodes = (
"-56 -83 LINE",
"-69 -143 OFFCURVE",
"-92 -161 OFFCURVE",
"-113 -161 CURVE SMOOTH",
"-136 -161 OFFCURVE",
"-153 -143 OFFCURVE",
"-153 -128 CURVE SMOOTH",
"-153 -74 OFFCURVE",
"-106 -46 OFFCURVE",
"-43 -25 CURVE"
);
}
);
width = 724;
}
);
},
{
glyphname = f_x;
lastChange = "2016-04-09 11:26:51 +0000";
layers = (
{
hints = (
{
place = "{-208.000000, 52.000000}";
},
{
place = "{213.000000, 68.000000}";
},
{
place = "{337.000000, 48.000000}";
},
{
place = "{589.000000, 59.000000}";
},
{
horizontal = 1;
place = "{-6.000000, 97.000000}";
},
{
horizontal = 1;
place = "{460.000000, 40.000000}";
},
{
horizontal = 1;
place = "{453.000000, 103.000000}";
},
{
horizontal = 1;
place = "{-250.000000, 89.000000}";
},
{
horizontal = 1;
place = "{-29.000000, 104.000000}";
},
{
horizontal = 1;
place = "{661.000000, 88.000000}";
}
);
layerId = UUID0;
name = Regular;
paths = (
{
closed = 1;
nodes = (
"663 179 LINE",
"648 128 OFFCURVE",
"612 91 OFFCURVE",
"573 91 CURVE SMOOTH",
"528 91 OFFCURVE",
"522 142 OFFCURVE",
"514 179 CURVE",
"502 245 LINE",
"605 337 OFFCURVE",
"648 400 OFFCURVE",
"648 467 CURVE SMOOTH",
"648 516 OFFCURVE",
"625 556 OFFCURVE",
"580 556 CURVE SMOOTH",
"549 556 OFFCURVE",
"524 540 OFFCURVE",
"524 509 CURVE SMOOTH",
"524 478 OFFCURVE",
"536 453 OFFCURVE",
"571 453 CURVE SMOOTH",
"576 453 OFFCURVE",
"581 454 OFFCURVE",
"588 455 CURVE",
"589 452 OFFCURVE",
"589 448 OFFCURVE",
"589 443 CURVE SMOOTH",
"589 404 OFFCURVE",
"554 358 OFFCURVE",
"491 302 CURVE",
"455 500 LINE",
"212 500 LINE",
"229 579 LINE",
"242 646 OFFCURVE",
"278 661 OFFCURVE",
"299 661 CURVE SMOOTH",
"319 661 OFFCURVE",
"337 650 OFFCURVE",
"337 627 CURVE SMOOTH",
"337 618 OFFCURVE",
"336 611 OFFCURVE",
"335 600 CURVE",
"382 600 LINE",
"384 612 OFFCURVE",
"385 626 OFFCURVE",
"385 641 CURVE SMOOTH",
"385 706 OFFCURVE",
"327 749 OFFCURVE",
"267 749 CURVE SMOOTH",
"202 749 OFFCURVE",
"114 722 OFFCURVE",
"85 579 CURVE",
"-36 8 LINE",
"-131 -21 OFFCURVE",
"-208 -50 OFFCURVE",
"-208 -142 CURVE SMOOTH",
"-208 -207 OFFCURVE",
"-150 -250 OFFCURVE",
"-90 -250 CURVE SMOOTH",
"-25 -250 OFFCURVE",
"60 -223 OFFCURVE",
"89 -80 CURVE",
"204 460 LINE",
"321 460 LINE",
"361 242 LINE",
"289 194 OFFCURVE",
"213 109 OFFCURVE",
"213 42 CURVE SMOOTH",
"213 -1 OFFCURVE",
"234 -29 OFFCURVE",
"279 -29 CURVE SMOOTH",
"312 -29 OFFCURVE",
"335 -13 OFFCURVE",
"335 26 CURVE SMOOTH",
"335 49 OFFCURVE",
"329 75 OFFCURVE",
"294 75 CURVE SMOOTH",
"289 75 OFFCURVE",
"284 75 OFFCURVE",
"281 74 CURVE",
"281 115 OFFCURVE",
"325 154 OFFCURVE",
"371 186 CURVE",
"373 179 LINE",
"397 48 OFFCURVE",
"426 -6 OFFCURVE",
"499 -6 CURVE SMOOTH",
"553 -6 OFFCURVE",
"649 16 OFFCURVE",
"705 179 CURVE"
);
},
{
closed = 1;
nodes = (
"-59 -83 LINE",
"-72 -143 OFFCURVE",
"-95 -161 OFFCURVE",
"-116 -161 CURVE SMOOTH",
"-139 -161 OFFCURVE",
"-156 -143 OFFCURVE",
"-156 -128 CURVE SMOOTH",
"-156 -74 OFFCURVE",
"-109 -46 OFFCURVE",
"-46 -25 CURVE"
);
}
);
width = 663;
}
);
},
{
glyphname = five;
lastChange = "2016-04-09 11:26:51 +0000";
layers = (
{
hints = (
{
place = "{15.000000, 111.000000}";
},
{
place = "{335.000000, 146.000000}";
},
{
horizontal = 1;
place = "{-5.000000, 67.000000}";
},
{
horizontal = 1;
place = "{230.000000, 51.000000}";
},
{
horizontal = 1;
place = "{391.000000, 84.000000}";
},
{
horizontal = 1;
place = "{600.000000, 117.000000}";
}
);
layerId = UUID0;
name = Regular;
paths = (
{
closed = 1;
nodes = (
"76 335 LINE",
"115 359 OFFCURVE",
"170 391 OFFCURVE",
"225 391 CURVE SMOOTH",
"293 391 OFFCURVE",
"335 342 OFFCURVE",
"335 246 CURVE SMOOTH",
"335 159 OFFCURVE",
"292 62 OFFCURVE",
"208 62 CURVE SMOOTH",
"171 62 OFFCURVE",
"126 75 OFFCURVE",
"126 134 CURVE SMOOTH",
"126 194 OFFCURVE",
"164 223 OFFCURVE",
"216 230 CURVE",
"209 264 OFFCURVE",
"186 281 OFFCURVE",
"145 281 CURVE SMOOTH",
"85 281 OFFCURVE",
"15 244 OFFCURVE",
"15 139 CURVE SMOOTH",
"15 15 OFFCURVE",
"113 -5 OFFCURVE",
"191 -5 CURVE SMOOTH",
"395 -5 OFFCURVE",
"481 129 OFFCURVE",
"481 268 CURVE SMOOTH",
"481 380 OFFCURVE",
"426 475 OFFCURVE",
"305 475 CURVE SMOOTH",
"268 475 OFFCURVE",
"227 467 OFFCURVE",
"180 444 CURVE",
"220 625 LINE",
"260 620 OFFCURVE",
"334 600 OFFCURVE",
"387 600 CURVE SMOOTH",
"472 600 OFFCURVE",
"502 652 OFFCURVE",
"502 716 CURVE SMOOTH",
"502 727 OFFCURVE",
"501 738 OFFCURVE",
"500 749 CURVE",
"439 725 OFFCURVE",
"389 717 OFFCURVE",
"338 717 CURVE SMOOTH",
"282 717 OFFCURVE",
"229 726 OFFCURVE",
"158 734 CURVE"
);
}
);
width = 517;
}
);
unicode = 0035;
},
{
glyphname = florin;
lastChange = "2016-04-09 11:26:51 +0000";
layers = (
{
hints = (
{
place = "{-202.000000, 55.000000}";
},
{
place = "{343.000000, 48.000000}";
},
{
horizontal = 1;
place = "{-250.000000, 89.000000}";
},
{
horizontal = 1;
place = "{460.000000, 40.000000}";
},
{
horizontal = 1;
place = "{661.000000, 88.000000}";
}
);
layerId = UUID0;
name = Regular;
paths = (
{
closed = 1;
nodes = (
"-30 8 LINE",
"-125 -21 OFFCURVE",
"-202 -50 OFFCURVE",
"-202 -142 CURVE SMOOTH",
"-202 -207 OFFCURVE",
"-144 -250 OFFCURVE",
"-84 -250 CURVE SMOOTH",
"-19 -250 OFFCURVE",
"66 -223 OFFCURVE",
"95 -80 CURVE",
"209 460 LINE",
"284 460 LINE",
"292 500 LINE",
"218 500 LINE",
"235 579 LINE",
"248 646 OFFCURVE",
"284 661 OFFCURVE",
"305 661 CURVE SMOOTH",
"325 661 OFFCURVE",
"343 650 OFFCURVE",
"343 627 CURVE SMOOTH",
"343 618 OFFCURVE",
"342 611 OFFCURVE",
"341 600 CURVE",
"388 600 LINE",
"390 612 OFFCURVE",
"391 626 OFFCURVE",
"391 641 CURVE SMOOTH",
"391 706 OFFCURVE",
"333 749 OFFCURVE",
"273 749 CURVE SMOOTH",
"208 749 OFFCURVE",
"120 722 OFFCURVE",
"91 579 CURVE",
"74 500 LINE",
"14 500 LINE",
"6 460 LINE",
"66 460 LINE"
);
},
{
closed = 1;
nodes = (
"-50 -83 LINE",
"-63 -143 OFFCURVE",
"-86 -161 OFFCURVE",
"-107 -161 CURVE SMOOTH",
"-130 -161 OFFCURVE",
"-147 -143 OFFCURVE",
"-147 -128 CURVE SMOOTH",
"-147 -74 OFFCURVE",
"-100 -46 OFFCURVE",
"-37 -25 CURVE"
);
}
);
width = 271;
}
);
unicode = 0192;
},
{
glyphname = four;
lastChange = "2016-04-09 11:26:51 +0000";
layers = (
{
hints = (
{
place = "{154.000000, 104.000000}";
},
{
horizontal = 1;
place = "{0.000000, 21.000000}";
target = up;
type = BottomGhost;
},
{
horizontal = 1;
place = "{275.000000, 74.000000}";
}
);
layerId = UUID0;
name = Regular;
paths = (
{
closed = 1;
nodes = (
"337 0 LINE",
"395 275 LINE",
"455 275 LINE",
"475 349 LINE",
"411 349 LINE",
"497 750 LINE",
"349 730 LINE",
"268 349 LINE",
"112 349 LINE",
"163 445 OFFCURVE",
"258 527 OFFCURVE",
"258 655 CURVE SMOOTH",
"258 718 OFFCURVE",
"206 750 OFFCURVE",
"147 750 CURVE",
"152 731 OFFCURVE",
"154 711 OFFCURVE",
"154 690 CURVE SMOOTH",
"154 544 OFFCURVE",
"43 385 OFFCURVE",
"8 275 CURVE",
"252 275 LINE",
"193 0 LINE"
);
}
);
width = 476;
}
);
unicode = 0034;
},
{
glyphname = g;
lastChange = "2016-04-09 11:26:51 +0000";
layers = (
{
hints = (
{
place = "{65.000000, 55.000000}";
},
{
place = "{-13.000000, 148.000000}";
},
{
horizontal = 1;
place = "{-250.000000, 78.000000}";
},
{
horizontal = 1;
place = "{-6.000000, 97.000000}";
},
{
horizontal = 1;
place = "{443.000000, 62.000000}";
}
);
layerId = UUID0;
name = Regular;
paths = (
{
closed = 1;
nodes = (
"372 -8 LINE",
"434 8 OFFCURVE",
"509 47 OFFCURVE",
"549 179 CURVE",
"507 179 LINE",
"479 92 OFFCURVE",
"442 57 OFFCURVE",
"381 36 CURVE",
"480 500 LINE",
"336 500 LINE",
"325 448 LINE",
"325 454 LINE SMOOTH",
"325 483 OFFCURVE",
"301 505 OFFCURVE",
"244 505 CURVE SMOOTH",
"70 505 OFFCURVE",
"-13 291 OFFCURVE",
"-13 155 CURVE SMOOTH",
"-13 36 OFFCURVE",
"52 -6 OFFCURVE",
"120 -6 CURVE SMOOTH",
"172 -6 OFFCURVE",
"211 18 OFFCURVE",
"240 49 CURVE",
"228 -4 LINE",
"153 -28 OFFCURVE",
"65 -69 OFFCURVE",
"65 -153 CURVE SMOOTH",
"65 -218 OFFCURVE",
"116 -250 OFFCURVE",
"177 -250 CURVE SMOOTH",
"243 -250 OFFCURVE",
"328 -223 OFFCURVE",
"357 -80 CURVE SMOOTH"
);
},
{
closed = 1;
nodes = (
"265 169 LINE",
"252 118 OFFCURVE",
"212 91 OFFCURVE",
"185 91 CURVE SMOOTH",
"167 91 OFFCURVE",
"135 93 OFFCURVE",
"135 169 CURVE SMOOTH",
"135 263 OFFCURVE",
"190 443 OFFCURVE",
"275 443 CURVE SMOOTH",
"307 443 OFFCURVE",
"316 418 OFFCURVE",
"316 406 CURVE"
);
},
{
closed = 1;
nodes = (
"212 -83 LINE",
"199 -143 OFFCURVE",
"175 -172 OFFCURVE",
"154 -172 CURVE SMOOTH",
"131 -172 OFFCURVE",
"120 -154 OFFCURVE",
"120 -139 CURVE SMOOTH",
"120 -99 OFFCURVE",
"166 -73 OFFCURVE",
"218 -54 CURVE"
);
}
);
width = 507;
}
);
unicode = 0067;
},
{
glyphname = g.end;
lastChange = "2016-04-09 11:26:51 +0000";
layers = (
{
hints = (
{
place = "{58.000000, 55.000000}";
},
{
place = "{-13.000000, 148.000000}";
},
{
horizontal = 1;
place = "{-250.000000, 89.000000}";
},
{
horizontal = 1;
place = "{-6.000000, 97.000000}";
},
{
horizontal = 1;
place = "{443.000000, 62.000000}";
}
);
layerId = UUID0;
name = Regular;
paths = (
{
closed = 1;
nodes = (
"231 8 LINE",
"135 -21 OFFCURVE",
"58 -48 OFFCURVE",
"58 -142 CURVE SMOOTH",
"58 -207 OFFCURVE",
"116 -250 OFFCURVE",
"176 -250 CURVE SMOOTH",
"241 -250 OFFCURVE",
"329 -223 OFFCURVE",
"358 -80 CURVE",
"480 500 LINE",
"335 500 LINE",
"325 452 LINE",
"325 454 LINE SMOOTH",
"325 483 OFFCURVE",
"301 505 OFFCURVE",
"244 505 CURVE SMOOTH",
"70 505 OFFCURVE",
"-13 291 OFFCURVE",
"-13 155 CURVE SMOOTH",
"-13 36 OFFCURVE",
"52 -6 OFFCURVE",
"120 -6 CURVE SMOOTH",
"172 -6 OFFCURVE",
"211 19 OFFCURVE",
"240 50 CURVE"
);
},
{
closed = 1;
nodes = (
"265 166 LINE",
"250 115 OFFCURVE",
"212 91 OFFCURVE",
"185 91 CURVE SMOOTH",
"167 91 OFFCURVE",
"135 93 OFFCURVE",
"135 169 CURVE SMOOTH",
"135 263 OFFCURVE",
"190 443 OFFCURVE",
"275 443 CURVE SMOOTH",
"306 443 OFFCURVE",
"313 421 OFFCURVE",
"316 408 CURVE"
);
},
{
closed = 1;
nodes = (
"212 -83 LINE",
"199 -143 OFFCURVE",
"174 -161 OFFCURVE",
"153 -161 CURVE SMOOTH",
"130 -161 OFFCURVE",
"113 -143 OFFCURVE",
"113 -128 CURVE SMOOTH",
"113 -74 OFFCURVE",
"161 -45 OFFCURVE",
"224 -24 CURVE"
);
}
);
width = 480;
}
);
},
{
glyphname = g_p;
lastChange = "2016-04-09 11:26:51 +0000";
layers = (
{
hints = (
{
place = "{65.000000, 55.000000}";
},
{
place = "{813.000000, 137.000000}";
},
{
place = "{-13.000000, 148.000000}";
},
{
horizontal = 1;
place = "{-250.000000, 78.000000}";
},
{
horizontal = 1;
place = "{-6.000000, 82.000000}";
},
{
horizontal = 1;
place = "{443.000000, 62.000000}";
},
{
horizontal = 1;
place = "{2.000000, 58.000000}";
},
{
horizontal = 1;
place = "{433.000000, 104.000000}";
},
{
horizontal = 1;
place = "{-6.000000, 97.000000}";
}
);
layerId = UUID0;
name = Regular;
paths = (
{
closed = 1;
nodes = (
"567 -214 LINE",
"612 -3 LINE",
"640 -5 OFFCURVE",
"671 -6 OFFCURVE",
"704 -6 CURVE SMOOTH",
"898 -6 OFFCURVE",
"950 212 OFFCURVE",
"950 347 CURVE SMOOTH",
"950 466 OFFCURVE",
"896 505 OFFCURVE",
"828 505 CURVE SMOOTH",
"777 505 OFFCURVE",
"740 487 OFFCURVE",
"711 462 CURVE",
"727 537 LINE",
"583 537 LINE",
"482 60 LINE",
"449 55 OFFCURVE",
"417 49 OFFCURVE",
"382 41 CURVE",
"480 500 LINE",
"336 500 LINE",
"325 448 LINE",
"325 454 LINE SMOOTH",
"325 483 OFFCURVE",
"301 505 OFFCURVE",
"244 505 CURVE SMOOTH",
"70 505 OFFCURVE",
"-13 291 OFFCURVE",
"-13 155 CURVE SMOOTH",
"-13 36 OFFCURVE",
"52 -6 OFFCURVE",
"120 -6 CURVE SMOOTH",
"172 -6 OFFCURVE",
"211 18 OFFCURVE",
"240 49 CURVE",
"229 1 LINE",
"153 -23 OFFCURVE",
"65 -71 OFFCURVE",
"65 -153 CURVE SMOOTH",
"65 -218 OFFCURVE",
"116 -250 OFFCURVE",
"177 -250 CURVE SMOOTH",
"243 -250 OFFCURVE",
"328 -223 OFFCURVE",
"357 -80 CURVE SMOOTH",
"372 -9 LINE",
"407 -2 OFFCURVE",
"438 1 OFFCURVE",
"469 2 CURVE",
"416 -250 LINE"
);
},
{
closed = 1;
nodes = (
"694 384 LINE",
"713 416 OFFCURVE",
"740 433 OFFCURVE",
"763 433 CURVE SMOOTH",
"781 433 OFFCURVE",
"813 427 OFFCURVE",
"813 350 CURVE SMOOTH",
"813 256 OFFCURVE",
"778 76 OFFCURVE",
"673 76 CURVE SMOOTH",
"658 76 OFFCURVE",
"644 76 OFFCURVE",
"629 75 CURVE"
);
},
{
closed = 1;
nodes = (
"265 169 LINE",
"252 118 OFFCURVE",
"212 91 OFFCURVE",
"185 91 CURVE SMOOTH",
"167 91 OFFCURVE",
"135 93 OFFCURVE",
"135 169 CURVE SMOOTH",
"135 263 OFFCURVE",
"190 443 OFFCURVE",
"275 443 CURVE SMOOTH",
"307 443 OFFCURVE",
"316 418 OFFCURVE",
"316 406 CURVE"
);
},
{
closed = 1;
nodes = (
"212 -83 LINE",
"199 -143 OFFCURVE",
"175 -172 OFFCURVE",
"154 -172 CURVE SMOOTH",
"131 -172 OFFCURVE",
"120 -154 OFFCURVE",
"120 -139 CURVE SMOOTH",
"120 -99 OFFCURVE",
"166 -73 OFFCURVE",
"218 -54 CURVE"
);
}
);
width = 975;
}
);
},
{
glyphname = g_x;
lastChange = "2016-04-09 11:26:51 +0000";
layers = (
{
hints = (
{
place = "{65.000000, 55.000000}";
},
{
place = "{818.000000, 59.000000}";
},
{
place = "{-13.000000, 148.000000}";
},
{
horizontal = 1;
place = "{-250.000000, 78.000000}";
},
{
horizontal = 1;
place = "{-6.000000, 97.000000}";
},
{
horizontal = 1;
place = "{443.000000, 62.000000}";
},
{
horizontal = 1;
place = "{453.000000, 103.000000}";
}
);
layerId = UUID0;
name = Regular;
paths = (
{
closed = 1;
nodes = (
"892 179 LINE",
"877 128 OFFCURVE",
"841 91 OFFCURVE",
"802 91 CURVE SMOOTH",
"757 91 OFFCURVE",
"751 142 OFFCURVE",
"743 179 CURVE",
"734 229 LINE",
"833 333 OFFCURVE",
"877 402 OFFCURVE",
"877 467 CURVE SMOOTH",
"877 516 OFFCURVE",
"854 556 OFFCURVE",
"809 556 CURVE SMOOTH",
"778 556 OFFCURVE",
"753 540 OFFCURVE",
"753 509 CURVE SMOOTH",
"753 478 OFFCURVE",
"765 453 OFFCURVE",
"800 453 CURVE SMOOTH",
"805 453 OFFCURVE",
"810 454 OFFCURVE",
"817 455 CURVE",
"818 452 OFFCURVE",
"818 448 OFFCURVE",
"818 443 CURVE SMOOTH",
"818 407 OFFCURVE",
"783 348 OFFCURVE",
"723 284 CURVE",
"684 500 LINE",
"543 500 LINE",
"599 192 LINE",
"520 100 OFFCURVE",
"450 62 OFFCURVE",
"382 39 CURVE",
"480 500 LINE",
"336 500 LINE",
"325 447 LINE",
"325 454 LINE SMOOTH",
"325 483 OFFCURVE",
"301 505 OFFCURVE",
"244 505 CURVE SMOOTH",
"70 505 OFFCURVE",
"-13 291 OFFCURVE",
"-13 155 CURVE SMOOTH",
"-13 36 OFFCURVE",
"52 -6 OFFCURVE",
"120 -6 CURVE SMOOTH",
"172 -6 OFFCURVE",
"211 19 OFFCURVE",
"240 50 CURVE",
"228 -7 LINE",
"153 -31 OFFCURVE",
"65 -68 OFFCURVE",
"65 -153 CURVE SMOOTH",
"65 -218 OFFCURVE",
"116 -250 OFFCURVE",
"177 -250 CURVE SMOOTH",
"243 -250 OFFCURVE",
"328 -223 OFFCURVE",
"357 -80 CURVE SMOOTH",
"372 -7 LINE",
"445 15 OFFCURVE",
"539 50 OFFCURVE",
"612 131 CURVE",
"635 34 OFFCURVE",
"664 -6 OFFCURVE",
"728 -6 CURVE SMOOTH",
"782 -6 OFFCURVE",
"878 16 OFFCURVE",
"934 179 CURVE"
);
},
{
closed = 1;
nodes = (
"266 172 LINE",
"253 117 OFFCURVE",
"213 91 OFFCURVE",
"185 91 CURVE SMOOTH",
"167 91 OFFCURVE",
"135 93 OFFCURVE",
"135 169 CURVE SMOOTH",
"135 263 OFFCURVE",
"190 443 OFFCURVE",
"275 443 CURVE SMOOTH",
"307 443 OFFCURVE",
"316 417 OFFCURVE",
"316 405 CURVE",
"268 179 LINE"
);
},
{
closed = 1;
nodes = (
"212 -83 LINE",
"199 -143 OFFCURVE",
"175 -172 OFFCURVE",
"154 -172 CURVE SMOOTH",
"131 -172 OFFCURVE",
"120 -154 OFFCURVE",
"120 -139 CURVE SMOOTH",
"120 -98 OFFCURVE",
"166 -72 OFFCURVE",
"218 -53 CURVE"
);
}
);
width = 892;
}
);
},
{
glyphname = germandbls;
lastChange = "2016-04-09 11:26:51 +0000";
layers = (
{
hints = (
{
place = "{304.000000, 101.000000}";
},
{
place = "{333.000000, 67.000000}";
},
{
horizontal = 1;
place = "{0.000000, 61.000000}";
},
{
horizontal = 1;
place = "{612.000000, 88.000000}";
}
);
layerId = UUID0;
name = Regular;
paths = (
{
closed = 1;
nodes = (
"66 -214 LINE",
"225 530 LINE",
"238 597 OFFCURVE",
"274 612 OFFCURVE",
"295 612 CURVE SMOOTH",
"322 612 OFFCURVE",
"333 601 OFFCURVE",
"333 562 CURVE SMOOTH",
"333 503 OFFCURVE",
"291 468 OFFCURVE",
"250 451 CURVE",
"232 393 LINE",
"287 378 OFFCURVE",
"304 350 OFFCURVE",
"304 306 CURVE SMOOTH",
"304 215 OFFCURVE",
"278 61 OFFCURVE",
"195 61 CURVE",
"182 2 LINE",
"193 1 OFFCURVE",
"204 0 OFFCURVE",
"215 0 CURVE SMOOTH",
"287 0 OFFCURVE",
"405 81 OFFCURVE",
"405 285 CURVE SMOOTH",
"405 345 OFFCURVE",
"379 403 OFFCURVE",
"308 427 CURVE",
"368 455 OFFCURVE",
"400 516 OFFCURVE",
"400 573 CURVE SMOOTH",
"400 640 OFFCURVE",
"355 700 OFFCURVE",
"263 700 CURVE SMOOTH",
"198 700 OFFCURVE",
"110 673 OFFCURVE",
"81 530 CURVE",
"-85 -250 LINE"
);
}
);
width = 450;
}
);
unicode = 00DF;
},
{
glyphname = grave;
lastChange = "2016-04-09 11:26:51 +0000";
layers = (
{
hints = (
{
place = "{24.000000, 134.000000}";
},
{
horizontal = 1;
place = "{561.000000, 189.000000}";
}
);
layerId = UUID0;
name = Regular;
paths = (
{
closed = 1;
nodes = (
"158 561 LINE",
"129 750 LINE",
"24 750 LINE",
"83 561 LINE"
);
}
);
width = 201;
}
);
unicode = 0060;
},
{
glyphname = greater;
lastChange = "2016-04-09 11:26:51 +0000";
layers = (
{
hints = (
{
place = "{15.000000, 315.000000}";
},
{
horizontal = 1;
place = "{101.000000, 328.000000}";
}
);
layerId = UUID0;
name = Regular;
paths = (
{
closed = 1;
nodes = (
"319 225 LINE",
"330 279 LINE",
"84 429 LINE",
"75 374 LINE",
"269 254 LINE",
"29 158 LINE",
"15 101 LINE"
);
}
);
width = 344;
}
);
unicode = 003E;
},
{
glyphname = guillemotleft;
lastChange = "2016-04-09 11:26:51 +0000";
layers = (
{
hints = (
{
place = "{20.000000, 526.000000}";
},
{
horizontal = 1;
place = "{101.000000, 328.000000}";
}
);
layerId = UUID0;
name = Regular;
paths = (
{
closed = 1;
nodes = (
"267 101 LINE",
"279 158 LINE",
"85 254 LINE",
"326 374 LINE",
"336 429 LINE",
"29 279 LINE",
"20 238 LINE"
);
},
{
closed = 1;
nodes = (
"477 101 LINE",
"489 158 LINE",
"295 254 LINE",
"536 374 LINE",
"546 429 LINE",
"239 279 LINE",
"230 238 LINE"
);
}
);
width = 589;
}
);
unicode = 00AB;
},
{
glyphname = guillemotright;
lastChange = "2016-04-09 11:26:51 +0000";
layers = (
{
hints = (
{
place = "{15.000000, 537.000000}";
},
{
horizontal = 1;
place = "{101.000000, 328.000000}";
}
);
layerId = UUID0;
name = Regular;
paths = (
{
closed = 1;
nodes = (
"319 225 LINE",
"330 279 LINE",
"84 429 LINE",
"75 374 LINE",
"269 254 LINE",
"29 158 LINE",
"15 101 LINE"
);
},
{
closed = 1;
nodes = (
"541 225 LINE",
"552 279 LINE",
"306 429 LINE",
"297 374 LINE",
"491 254 LINE",
"251 158 LINE",
"237 101 LINE"
);
}
);
width = 586;
}
);
unicode = 00BB;
},
{
glyphname = guilsinglleft;
lastChange = "2016-04-09 11:26:51 +0000";
layers = (
{
hints = (
{
place = "{20.000000, 316.000000}";
},
{
horizontal = 1;
place = "{81.000000, 368.000000}";
}
);
layerId = UUID0;
name = Regular;
paths = (
{
closed = 1;
nodes = (
"267 81 LINE",
"279 138 LINE",
"85 254 LINE",
"326 394 LINE",
"336 449 LINE",
"29 279 LINE",
"20 238 LINE"
);
}
);
width = 359;
}
);
unicode = 2039;
},
{
glyphname = guilsinglright;
lastChange = "2016-04-09 11:26:51 +0000";
layers = (
{
hints = (
{
place = "{15.000000, 315.000000}";
},
{
horizontal = 1;
place = "{81.000000, 368.000000}";
}
);
layerId = UUID0;
name = Regular;
paths = (
{
closed = 1;
nodes = (
"319 225 LINE",
"330 279 LINE",
"84 449 LINE",
"75 394 LINE",
"269 254 LINE",
"29 138 LINE",
"15 81 LINE"
);
}
);
width = 344;
}
);
unicode = 203A;
},
{
glyphname = h;
lastChange = "2016-04-09 11:26:51 +0000";
layers = (
{
hints = (
{
place = "{243.000000, 138.000000}";
},
{
place = "{288.000000, 141.000000}";
},
{
horizontal = 1;
place = "{-6.000000, 97.000000}";
},
{
horizontal = 1;
place = "{413.000000, 91.000000}";
},
{
horizontal = 1;
place = "{0.000000, 21.000000}";
target = up;
type = BottomGhost;
}
);
layerId = UUID0;
name = Regular;
paths = (
{
closed = 1;
nodes = (
"505 179 LINE",
"484 127 OFFCURVE",
"464 91 OFFCURVE",
"421 91 CURVE SMOOTH",
"390 91 OFFCURVE",
"381 108 OFFCURVE",
"381 133 CURVE SMOOTH",
"381 189 OFFCURVE",
"429 310 OFFCURVE",
"429 391 CURVE SMOOTH",
"429 471 OFFCURVE",
"382 504 OFFCURVE",
"318 504 CURVE SMOOTH",
"287 504 OFFCURVE",
"244 496 OFFCURVE",
"201 448 CURVE",
"255 700 LINE",
"107 680 LINE",
"-38 0 LINE",
"106 0 LINE",
"174 321 LINE",
"189 372 OFFCURVE",
"216 413 OFFCURVE",
"252 413 CURVE SMOOTH",
"276 413 OFFCURVE",
"288 396 OFFCURVE",
"288 362 CURVE SMOOTH",
"288 298 OFFCURVE",
"243 175 OFFCURVE",
"243 107 CURVE SMOOTH",
"243 50 OFFCURVE",
"273 -6 OFFCURVE",
"361 -6 CURVE SMOOTH",
"414 -6 OFFCURVE",
"491 15 OFFCURVE",
"547 179 CURVE"
);
}
);
width = 505;
}
);
unicode = 0068;
},
{
glyphname = h.end;
lastChange = "2016-04-09 11:26:51 +0000";
layers = (
{
hints = (
{
place = "{287.000000, 141.000000}";
},
{
place = "{242.000000, 138.000000}";
},
{
horizontal = 1;
place = "{0.000000, 21.000000}";
target = up;
type = BottomGhost;
},
{
horizontal = 1;
place = "{413.000000, 91.000000}";
},
{
horizontal = 1;
place = "{-6.000000, 97.000000}";
}
);
layerId = UUID0;
name = Regular;
paths = (
{
closed = 1;
nodes = (
"105 0 LINE",
"176 333 LINE",
"191 378 OFFCURVE",
"218 413 OFFCURVE",
"251 413 CURVE SMOOTH",
"275 413 OFFCURVE",
"287 396 OFFCURVE",
"287 362 CURVE SMOOTH",
"287 298 OFFCURVE",
"242 175 OFFCURVE",
"242 107 CURVE SMOOTH",
"242 50 OFFCURVE",
"266 -6 OFFCURVE",
"343 -6 CURVE SMOOTH",
"396 -6 OFFCURVE",
"444 25 OFFCURVE",
"453 97 CURVE",
"447 93 OFFCURVE",
"436 91 OFFCURVE",
"420 91 CURVE SMOOTH",
"389 91 OFFCURVE",
"380 108 OFFCURVE",
"380 133 CURVE SMOOTH",
"380 189 OFFCURVE",
"428 310 OFFCURVE",
"428 391 CURVE SMOOTH",
"428 471 OFFCURVE",
"381 504 OFFCURVE",
"317 504 CURVE SMOOTH",
"286 504 OFFCURVE",
"243 496 OFFCURVE",
"200 449 CURVE",
"254 700 LINE",
"106 680 LINE",
"-39 0 LINE"
);
}
);
width = 453;
}
);
},
{
glyphname = hyphen;
lastChange = "2016-04-09 11:26:51 +0000";
layers = (
{
hints = (
{
place = "{19.000000, 218.000000}";
},
{
horizontal = 1;
place = "{222.000000, 79.000000}";
}
);
layerId = UUID0;
name = Regular;
paths = (
{
closed = 1;
nodes = (
"220 222 LINE",
"237 301 LINE",
"37 301 LINE",
"19 222 LINE"
);
}
);
width = 290;
}
);
unicode = 002D;
},
{
glyphname = i;
lastChange = "2016-04-09 11:26:51 +0000";
layers = (
{
hints = (
{
place = "{88.000000, 159.000000}";
},
{
place = "{-8.000000, 144.000000}";
},
{
horizontal = 1;
place = "{-6.000000, 97.000000}";
},
{
horizontal = 1;
place = "{554.000000, 159.000000}";
}
);
layerId = UUID0;
name = Regular;
paths = (
{
closed = 1;
nodes = (
"247 677 OFFCURVE",
"211 713 OFFCURVE",
"167 713 CURVE SMOOTH",
"123 713 OFFCURVE",
"88 677 OFFCURVE",
"88 633 CURVE SMOOTH",
"88 589 OFFCURVE",
"123 554 OFFCURVE",
"167 554 CURVE SMOOTH",
"211 554 OFFCURVE",
"247 589 OFFCURVE",
"247 633 CURVE SMOOTH"
);
},
{
closed = 1;
nodes = (
"267 179 LINE",
"252 128 OFFCURVE",
"216 91 OFFCURVE",
"177 91 CURVE SMOOTH",
"149 91 OFFCURVE",
"136 100 OFFCURVE",
"136 128 CURVE SMOOTH",
"136 138 OFFCURVE",
"137 149 OFFCURVE",
"140 160 CURVE",
"212 500 LINE",
"68 500 LINE",
"0 179 LINE SMOOTH",
"-5 154 OFFCURVE",
"-8 132 OFFCURVE",
"-8 114 CURVE SMOOTH",
"-8 30 OFFCURVE",
"39 -6 OFFCURVE",
"99 -6 CURVE SMOOTH",
"152 -6 OFFCURVE",
"253 16 OFFCURVE",
"309 179 CURVE"
);
}
);
width = 267;
}
);
unicode = 0069;
},
{
glyphname = i.end;
lastChange = "2016-04-09 11:26:51 +0000";
layers = (
{
hints = (
{
place = "{88.000000, 159.000000}";
},
{
place = "{-8.000000, 144.000000}";
},
{
horizontal = 1;
place = "{-6.000000, 97.000000}";
},
{
horizontal = 1;
place = "{554.000000, 159.000000}";
}
);
layerId = UUID0;
name = Regular;
paths = (
{
closed = 1;
nodes = (
"247 677 OFFCURVE",
"211 713 OFFCURVE",
"167 713 CURVE SMOOTH",
"123 713 OFFCURVE",
"88 677 OFFCURVE",
"88 633 CURVE SMOOTH",
"88 589 OFFCURVE",
"123 554 OFFCURVE",
"167 554 CURVE SMOOTH",
"211 554 OFFCURVE",
"247 589 OFFCURVE",
"247 633 CURVE SMOOTH"
);
},
{
closed = 1;
nodes = (
"0 179 LINE",
"-5 154 OFFCURVE",
"-8 132 OFFCURVE",
"-8 114 CURVE SMOOTH",
"-8 30 OFFCURVE",
"39 -6 OFFCURVE",
"99 -6 CURVE SMOOTH",
"152 -6 OFFCURVE",
"204 26 OFFCURVE",
"209 97 CURVE",
"202 94 OFFCURVE",
"196 91 OFFCURVE",
"177 91 CURVE SMOOTH",
"149 91 OFFCURVE",
"136 100 OFFCURVE",
"136 128 CURVE SMOOTH",
"136 138 OFFCURVE",
"137 149 OFFCURVE",
"140 160 CURVE",
"212 500 LINE",
"68 500 LINE"
);
}
);
width = 209;
}
);
},
{
glyphname = i_x;
lastChange = "2016-04-09 11:26:51 +0000";
layers = (
{
hints = (
{
place = "{88.000000, 159.000000}";
},
{
place = "{557.000000, 59.000000}";
},
{
place = "{-8.000000, 144.000000}";
},
{
horizontal = 1;
place = "{-6.000000, 98.000000}";
},
{
horizontal = 1;
place = "{554.000000, 159.000000}";
},
{
horizontal = 1;
place = "{453.000000, 103.000000}";
}
);
layerId = UUID0;
name = Regular;
paths = (
{
closed = 1;
nodes = (
"631 179 LINE",
"616 128 OFFCURVE",
"580 91 OFFCURVE",
"541 91 CURVE SMOOTH",
"496 91 OFFCURVE",
"490 142 OFFCURVE",
"482 179 CURVE",
"473 229 LINE",
"572 333 OFFCURVE",
"616 402 OFFCURVE",
"616 467 CURVE SMOOTH",
"616 516 OFFCURVE",
"593 556 OFFCURVE",
"548 556 CURVE SMOOTH",
"517 556 OFFCURVE",
"492 540 OFFCURVE",
"492 509 CURVE SMOOTH",
"492 478 OFFCURVE",
"504 453 OFFCURVE",
"539 453 CURVE SMOOTH",
"544 453 OFFCURVE",
"549 454 OFFCURVE",
"556 455 CURVE",
"557 452 OFFCURVE",
"557 448 OFFCURVE",
"557 443 CURVE SMOOTH",
"557 407 OFFCURVE",
"522 348 OFFCURVE",
"462 284 CURVE",
"423 500 LINE",
"282 500 LINE",
"339 186 LINE",
"297 131 OFFCURVE",
"229 92 OFFCURVE",
"180 92 CURVE SMOOTH",
"153 92 OFFCURVE",
"136 103 OFFCURVE",
"136 128 CURVE SMOOTH",
"136 138 OFFCURVE",
"137 149 OFFCURVE",
"140 160 CURVE",
"212 500 LINE",
"68 500 LINE",
"0 179 LINE",
"-5 152 OFFCURVE",
"-8 130 OFFCURVE",
"-8 113 CURVE SMOOTH",
"-8 30 OFFCURVE",
"37 -6 OFFCURVE",
"98 -6 CURVE SMOOTH",
"190 -6 OFFCURVE",
"287 60 OFFCURVE",
"351 132 CURVE",
"374 35 OFFCURVE",
"403 -6 OFFCURVE",
"467 -6 CURVE SMOOTH",
"521 -6 OFFCURVE",
"617 16 OFFCURVE",
"673 179 CURVE"
);
},
{
closed = 1;
nodes = (
"247 677 OFFCURVE",
"211 713 OFFCURVE",
"167 713 CURVE SMOOTH",
"123 713 OFFCURVE",
"88 677 OFFCURVE",
"88 633 CURVE SMOOTH",
"88 589 OFFCURVE",
"123 554 OFFCURVE",
"167 554 CURVE SMOOTH",
"211 554 OFFCURVE",
"247 589 OFFCURVE",
"247 633 CURVE SMOOTH"
);
}
);
width = 631;
}
);
},
{
glyphname = i_x.end;
lastChange = "2016-04-09 11:26:51 +0000";
layers = (
{
hints = (
{
place = "{88.000000, 159.000000}";
},
{
place = "{557.000000, 59.000000}";
},
{
place = "{-8.000000, 144.000000}";
},
{
horizontal = 1;
place = "{-6.000000, 98.000000}";
},
{
horizontal = 1;
place = "{554.000000, 159.000000}";
},
{
horizontal = 1;
place = "{453.000000, 103.000000}";
}
);
layerId = UUID0;
name = Regular;
paths = (
{
closed = 1;
nodes = (
"473 229 LINE",
"572 333 OFFCURVE",
"616 402 OFFCURVE",
"616 467 CURVE SMOOTH",
"616 516 OFFCURVE",
"593 556 OFFCURVE",
"548 556 CURVE SMOOTH",
"517 556 OFFCURVE",
"492 540 OFFCURVE",
"492 509 CURVE SMOOTH",
"492 478 OFFCURVE",
"504 453 OFFCURVE",
"539 453 CURVE SMOOTH",
"544 453 OFFCURVE",
"549 454 OFFCURVE",
"556 455 CURVE",
"557 452 OFFCURVE",
"557 448 OFFCURVE",
"557 443 CURVE SMOOTH",
"557 407 OFFCURVE",
"522 348 OFFCURVE",
"462 284 CURVE",
"423 500 LINE",
"282 500 LINE",
"339 186 LINE",
"297 131 OFFCURVE",
"229 92 OFFCURVE",
"180 92 CURVE SMOOTH",
"153 92 OFFCURVE",
"136 103 OFFCURVE",
"136 128 CURVE SMOOTH",
"136 138 OFFCURVE",
"137 149 OFFCURVE",
"140 160 CURVE",
"212 500 LINE",
"68 500 LINE",
"0 179 LINE",
"-5 152 OFFCURVE",
"-8 130 OFFCURVE",
"-8 113 CURVE SMOOTH",
"-8 30 OFFCURVE",
"37 -6 OFFCURVE",
"98 -6 CURVE SMOOTH",
"189 -6 OFFCURVE",
"286 58 OFFCURVE",
"351 131 CURVE",
"374 34 OFFCURVE",
"403 -6 OFFCURVE",
"467 -6 CURVE SMOOTH",
"520 -6 OFFCURVE",
"572 26 OFFCURVE",
"577 97 CURVE",
"570 94 OFFCURVE",
"564 91 OFFCURVE",
"545 91 CURVE SMOOTH",
"501 91 OFFCURVE",
"493 119 OFFCURVE",
"482 179 CURVE SMOOTH"
);
},
{
closed = 1;
nodes = (
"247 677 OFFCURVE",
"211 713 OFFCURVE",
"167 713 CURVE SMOOTH",
"123 713 OFFCURVE",
"88 677 OFFCURVE",
"88 633 CURVE SMOOTH",
"88 589 OFFCURVE",
"123 554 OFFCURVE",
"167 554 CURVE SMOOTH",
"211 554 OFFCURVE",
"247 589 OFFCURVE",
"247 633 CURVE SMOOTH"
);
}
);
width = 616;
}
);
},
{
glyphname = iacute_x;
lastChange = "2016-04-09 11:26:51 +0000";
layers = (
{
components = (
{
name = acute;
transform = "{1, 0, 0, 1, -8, 0}";
}
);
hints = (
{
place = "{-8.000000, 144.000000}";
},
{
place = "{557.000000, 59.000000}";
},
{
horizontal = 1;
place = "{-6.000000, 98.000000}";
},
{
horizontal = 1;
place = "{453.000000, 103.000000}";
}
);
layerId = UUID0;
name = Regular;
paths = (
{
closed = 1;
nodes = (
"631 179 LINE",
"616 128 OFFCURVE",
"580 91 OFFCURVE",
"541 91 CURVE SMOOTH",
"496 91 OFFCURVE",
"490 142 OFFCURVE",
"482 179 CURVE",
"473 229 LINE",
"572 333 OFFCURVE",
"616 402 OFFCURVE",
"616 467 CURVE SMOOTH",
"616 516 OFFCURVE",
"593 556 OFFCURVE",
"548 556 CURVE SMOOTH",
"517 556 OFFCURVE",
"492 540 OFFCURVE",
"492 509 CURVE SMOOTH",
"492 478 OFFCURVE",
"504 453 OFFCURVE",
"539 453 CURVE SMOOTH",
"544 453 OFFCURVE",
"549 454 OFFCURVE",
"556 455 CURVE",
"557 452 OFFCURVE",
"557 448 OFFCURVE",
"557 443 CURVE SMOOTH",
"557 407 OFFCURVE",
"522 348 OFFCURVE",
"462 284 CURVE",
"423 500 LINE",
"282 500 LINE",
"339 186 LINE",
"297 131 OFFCURVE",
"229 92 OFFCURVE",
"180 92 CURVE SMOOTH",
"153 92 OFFCURVE",
"136 103 OFFCURVE",
"136 128 CURVE SMOOTH",
"136 138 OFFCURVE",
"137 149 OFFCURVE",
"140 160 CURVE",
"212 500 LINE",
"68 500 LINE",
"0 179 LINE",
"-5 152 OFFCURVE",
"-8 130 OFFCURVE",
"-8 113 CURVE SMOOTH",
"-8 30 OFFCURVE",
"37 -6 OFFCURVE",
"98 -6 CURVE SMOOTH",
"190 -6 OFFCURVE",
"287 60 OFFCURVE",
"351 132 CURVE",
"374 35 OFFCURVE",
"403 -6 OFFCURVE",
"467 -6 CURVE SMOOTH",
"521 -6 OFFCURVE",
"617 16 OFFCURVE",
"673 179 CURVE"
);
}
);
width = 631;
}
);
},
{
glyphname = j;
lastChange = "2016-04-09 11:26:51 +0000";
layers = (
{
hints = (
{
place = "{-202.000000, 55.000000}";
},
{
place = "{80.000000, 159.000000}";
},
{
horizontal = 1;
place = "{-250.000000, 78.000000}";
},
{
horizontal = 1;
place = "{555.000000, 159.000000}";
}
);
layerId = UUID0;
name = Regular;
paths = (
{
closed = 1;
nodes = (
"105 -8 LINE",
"167 8 OFFCURVE",
"242 47 OFFCURVE",
"282 179 CURVE",
"240 179 LINE",
"212 92 OFFCURVE",
"175 57 OFFCURVE",
"114 36 CURVE",
"213 500 LINE",
"69 500 LINE",
"-38 -4 LINE",
"-114 -28 OFFCURVE",
"-202 -70 OFFCURVE",
"-202 -153 CURVE SMOOTH",
"-202 -218 OFFCURVE",
"-151 -250 OFFCURVE",
"-90 -250 CURVE SMOOTH",
"-24 -250 OFFCURVE",
"61 -223 OFFCURVE",
"90 -80 CURVE SMOOTH"
);
},
{
closed = 1;
nodes = (
"239 678 OFFCURVE",
"203 714 OFFCURVE",
"159 714 CURVE SMOOTH",
"115 714 OFFCURVE",
"80 678 OFFCURVE",
"80 634 CURVE SMOOTH",
"80 590 OFFCURVE",
"115 555 OFFCURVE",
"159 555 CURVE SMOOTH",
"203 555 OFFCURVE",
"239 590 OFFCURVE",
"239 634 CURVE SMOOTH"
);
},
{
closed = 1;
nodes = (
"-55 -83 LINE",
"-68 -143 OFFCURVE",
"-92 -172 OFFCURVE",
"-113 -172 CURVE SMOOTH",
"-136 -172 OFFCURVE",
"-147 -154 OFFCURVE",
"-147 -139 CURVE SMOOTH",
"-147 -99 OFFCURVE",
"-101 -73 OFFCURVE",
"-49 -54 CURVE"
);
}
);
width = 240;
}
);
unicode = 006A;
},
{
glyphname = j.end;
lastChange = "2016-04-09 11:26:51 +0000";
layers = (
{
hints = (
{
place = "{-209.000000, 55.000000}";
},
{
place = "{84.000000, 159.000000}";
},
{
horizontal = 1;
place = "{-250.000000, 89.000000}";
},
{
horizontal = 1;
place = "{555.000000, 159.000000}";
}
);
layerId = UUID0;
name = Regular;
paths = (
{
closed = 1;
nodes = (
"-35 8 LINE",
"-131 -21 OFFCURVE",
"-209 -48 OFFCURVE",
"-209 -142 CURVE SMOOTH",
"-209 -207 OFFCURVE",
"-151 -250 OFFCURVE",
"-91 -250 CURVE SMOOTH",
"-26 -250 OFFCURVE",
"62 -223 OFFCURVE",
"91 -80 CURVE",
"213 500 LINE",
"68 500 LINE"
);
},
{
closed = 1;
nodes = (
"243 678 OFFCURVE",
"207 714 OFFCURVE",
"163 714 CURVE SMOOTH",
"119 714 OFFCURVE",
"84 678 OFFCURVE",
"84 634 CURVE SMOOTH",
"84 590 OFFCURVE",
"119 555 OFFCURVE",
"163 555 CURVE SMOOTH",
"207 555 OFFCURVE",
"243 590 OFFCURVE",
"243 634 CURVE SMOOTH"
);
},
{
closed = 1;
nodes = (
"-55 -83 LINE",
"-68 -143 OFFCURVE",
"-93 -161 OFFCURVE",
"-114 -161 CURVE SMOOTH",
"-137 -161 OFFCURVE",
"-154 -143 OFFCURVE",
"-154 -128 CURVE SMOOTH",
"-154 -73 OFFCURVE",
"-106 -45 OFFCURVE",
"-42 -24 CURVE"
);
}
);
width = 213;
}
);
},
{
glyphname = j_x;
lastChange = "2016-04-09 11:26:51 +0000";
layers = (
{
hints = (
{
place = "{-203.000000, 55.000000}";
},
{
place = "{79.000000, 159.000000}";
},
{
place = "{550.000000, 59.000000}";
},
{
horizontal = 1;
place = "{-250.000000, 78.000000}";
},
{
horizontal = 1;
place = "{-6.000000, 97.000000}";
},
{
horizontal = 1;
place = "{555.000000, 159.000000}";
},
{
horizontal = 1;
place = "{453.000000, 103.000000}";
}
);
layerId = UUID0;
name = Regular;
paths = (
{
closed = 1;
nodes = (
"624 179 LINE",
"609 128 OFFCURVE",
"573 91 OFFCURVE",
"534 91 CURVE SMOOTH",
"489 91 OFFCURVE",
"483 142 OFFCURVE",
"475 179 CURVE",
"466 229 LINE",
"565 333 OFFCURVE",
"609 402 OFFCURVE",
"609 467 CURVE SMOOTH",
"609 516 OFFCURVE",
"586 556 OFFCURVE",
"541 556 CURVE SMOOTH",
"510 556 OFFCURVE",
"485 540 OFFCURVE",
"485 509 CURVE SMOOTH",
"485 478 OFFCURVE",
"497 453 OFFCURVE",
"532 453 CURVE SMOOTH",
"537 453 OFFCURVE",
"542 454 OFFCURVE",
"549 455 CURVE",
"550 452 OFFCURVE",
"550 448 OFFCURVE",
"550 443 CURVE SMOOTH",
"550 407 OFFCURVE",
"515 348 OFFCURVE",
"455 284 CURVE",
"416 500 LINE",
"275 500 LINE",
"331 192 LINE",
"252 100 OFFCURVE",
"182 62 OFFCURVE",
"114 39 CURVE",
"212 500 LINE",
"68 500 LINE",
"-39 -7 LINE",
"-115 -31 OFFCURVE",
"-203 -68 OFFCURVE",
"-203 -153 CURVE SMOOTH",
"-203 -218 OFFCURVE",
"-152 -250 OFFCURVE",
"-91 -250 CURVE SMOOTH",
"-25 -250 OFFCURVE",
"60 -223 OFFCURVE",
"89 -80 CURVE SMOOTH",
"104 -7 LINE",
"177 15 OFFCURVE",
"271 50 OFFCURVE",
"344 131 CURVE",
"367 34 OFFCURVE",
"396 -6 OFFCURVE",
"460 -6 CURVE SMOOTH",
"514 -6 OFFCURVE",
"610 16 OFFCURVE",
"666 179 CURVE"
);
},
{
closed = 1;
nodes = (
"238 678 OFFCURVE",
"202 714 OFFCURVE",
"158 714 CURVE SMOOTH",
"114 714 OFFCURVE",
"79 678 OFFCURVE",
"79 634 CURVE SMOOTH",
"79 590 OFFCURVE",
"114 555 OFFCURVE",
"158 555 CURVE SMOOTH",
"202 555 OFFCURVE",
"238 590 OFFCURVE",
"238 634 CURVE SMOOTH"
);
},
{
closed = 1;
nodes = (
"-56 -83 LINE",
"-69 -143 OFFCURVE",
"-93 -172 OFFCURVE",
"-114 -172 CURVE SMOOTH",
"-137 -172 OFFCURVE",
"-148 -154 OFFCURVE",
"-148 -139 CURVE SMOOTH",
"-148 -98 OFFCURVE",
"-101 -72 OFFCURVE",
"-49 -53 CURVE"
);
}
);
width = 624;
}
);
},
{
glyphname = k;
lastChange = "2016-04-09 11:26:51 +0000";
layers = (
{
hints = (
{
place = "{250.000000, 145.000000}";
},
{
place = "{268.000000, 147.000000}";
},
{
horizontal = 1;
place = "{-6.000000, 97.000000}";
},
{
horizontal = 1;
place = "{284.000000, 81.000000}";
},
{
horizontal = 1;
place = "{0.000000, 21.000000}";
target = up;
type = BottomGhost;
}
);
layerId = UUID0;
name = Regular;
paths = (
{
closed = 1;
nodes = (
"518 179 LINE",
"497 127 OFFCURVE",
"477 91 OFFCURVE",
"434 91 CURVE SMOOTH",
"403 91 OFFCURVE",
"395 108 OFFCURVE",
"395 128 CURVE SMOOTH",
"395 139 OFFCURVE",
"397 149 OFFCURVE",
"400 160 CURVE SMOOTH",
"411 210 LINE SMOOTH",
"414 223 OFFCURVE",
"415 236 OFFCURVE",
"415 248 CURVE SMOOTH",
"415 312 OFFCURVE",
"380 365 OFFCURVE",
"305 365 CURVE SMOOTH",
"294 365 OFFCURVE",
"283 364 OFFCURVE",
"272 361 CURVE",
"472 500 LINE",
"373 500 LINE",
"180 348 LINE",
"255 700 LINE",
"107 680 LINE",
"-38 0 LINE",
"106 0 LINE",
"158 247 LINE",
"186 270 OFFCURVE",
"209 284 OFFCURVE",
"232 284 CURVE SMOOTH",
"259 284 OFFCURVE",
"268 265 OFFCURVE",
"268 236 CURVE SMOOTH",
"268 225 OFFCURVE",
"267 212 OFFCURVE",
"264 199 CURVE SMOOTH",
"256 160 LINE SMOOTH",
"252 141 OFFCURVE",
"250 123 OFFCURVE",
"250 108 CURVE SMOOTH",
"250 35 OFFCURVE",
"293 -6 OFFCURVE",
"376 -6 CURVE SMOOTH",
"421 -6 OFFCURVE",
"504 11 OFFCURVE",
"560 179 CURVE"
);
}
);
width = 518;
}
);
unicode = 006B;
},
{
glyphname = k.end;
lastChange = "2016-04-09 11:26:51 +0000";
layers = (
{
hints = (
{
place = "{268.000000, 147.000000}";
},
{
place = "{250.000000, 145.000000}";
},
{
horizontal = 1;
place = "{0.000000, 21.000000}";
target = up;
type = BottomGhost;
},
{
horizontal = 1;
place = "{284.000000, 81.000000}";
},
{
horizontal = 1;
place = "{-6.000000, 97.000000}";
}
);
layerId = UUID0;
name = Regular;
paths = (
{
closed = 1;
nodes = (
"411 210 LINE SMOOTH",
"414 223 OFFCURVE",
"415 236 OFFCURVE",
"415 248 CURVE SMOOTH",
"415 312 OFFCURVE",
"380 365 OFFCURVE",
"305 365 CURVE SMOOTH",
"294 365 OFFCURVE",
"283 364 OFFCURVE",
"272 361 CURVE",
"472 500 LINE",
"373 500 LINE",
"180 348 LINE",
"255 700 LINE",
"107 680 LINE",
"-38 0 LINE",
"106 0 LINE",
"158 247 LINE",
"186 270 OFFCURVE",
"209 284 OFFCURVE",
"232 284 CURVE SMOOTH",
"259 284 OFFCURVE",
"268 265 OFFCURVE",
"268 236 CURVE SMOOTH",
"268 225 OFFCURVE",
"267 212 OFFCURVE",
"264 199 CURVE SMOOTH",
"256 160 LINE SMOOTH",
"252 141 OFFCURVE",
"250 123 OFFCURVE",
"250 108 CURVE SMOOTH",
"250 35 OFFCURVE",
"293 -6 OFFCURVE",
"376 -6 CURVE SMOOTH",
"403 -6 OFFCURVE",
"464 26 OFFCURVE",
"469 97 CURVE",
"462 94 OFFCURVE",
"458 91 OFFCURVE",
"434 91 CURVE SMOOTH",
"403 91 OFFCURVE",
"395 108 OFFCURVE",
"395 128 CURVE SMOOTH",
"395 139 OFFCURVE",
"397 149 OFFCURVE",
"400 160 CURVE SMOOTH"
);
}
);
width = 472;
}
);
},
{
glyphname = k.salt;
lastChange = "2016-04-09 11:26:51 +0000";
layers = (
{
hints = (
{
place = "{250.000000, 145.000000}";
},
{
place = "{268.000000, 147.000000}";
},
{
horizontal = 1;
place = "{-6.000000, 97.000000}";
},
{
horizontal = 1;
place = "{284.000000, 81.000000}";
},
{
horizontal = 1;
place = "{396.000000, 110.000000}";
},
{
horizontal = 1;
place = "{0.000000, 21.000000}";
target = up;
type = BottomGhost;
}
);
layerId = UUID0;
name = Regular;
paths = (
{
closed = 1;
nodes = (
"518 179 LINE",
"497 127 OFFCURVE",
"477 91 OFFCURVE",
"434 91 CURVE SMOOTH",
"403 91 OFFCURVE",
"395 108 OFFCURVE",
"395 128 CURVE SMOOTH",
"395 139 OFFCURVE",
"397 149 OFFCURVE",
"400 160 CURVE SMOOTH",
"411 210 LINE SMOOTH",
"414 223 OFFCURVE",
"415 236 OFFCURVE",
"415 248 CURVE SMOOTH",
"415 312 OFFCURVE",
"380 365 OFFCURVE",
"305 365 CURVE SMOOTH",
"277 365 OFFCURVE",
"250 357 OFFCURVE",
"223 345 CURVE",
"276 386 OFFCURVE",
"311 410 OFFCURVE",
"340 410 CURVE SMOOTH",
"356 410 OFFCURVE",
"367 396 OFFCURVE",
"384 396 CURVE SMOOTH",
"412 396 OFFCURVE",
"449 424 OFFCURVE",
"449 456 CURVE SMOOTH",
"449 472 OFFCURVE",
"438 506 OFFCURVE",
"410 506 CURVE SMOOTH",
"355 506 OFFCURVE",
"340 490 OFFCURVE",
"183 363 CURVE",
"255 700 LINE",
"107 680 LINE",
"-38 0 LINE",
"106 0 LINE",
"158 247 LINE",
"186 270 OFFCURVE",
"209 284 OFFCURVE",
"232 284 CURVE SMOOTH",
"259 284 OFFCURVE",
"268 265 OFFCURVE",
"268 236 CURVE SMOOTH",
"268 225 OFFCURVE",
"267 212 OFFCURVE",
"264 199 CURVE SMOOTH",
"256 160 LINE SMOOTH",
"252 141 OFFCURVE",
"250 123 OFFCURVE",
"250 108 CURVE SMOOTH",
"250 35 OFFCURVE",
"293 -6 OFFCURVE",
"376 -6 CURVE SMOOTH",
"421 -6 OFFCURVE",
"504 11 OFFCURVE",
"560 179 CURVE"
);
}
);
width = 518;
}
);
},
{
glyphname = l;
lastChange = "2016-04-09 11:26:51 +0000";
layers = (
{
hints = (
{
place = "{-8.000000, 317.000000}";
},
{
place = "{-8.000000, 144.000000}";
},
{
horizontal = 1;
place = "{-6.000000, 97.000000}";
}
);
layerId = UUID0;
name = Regular;
paths = (
{
closed = 1;
nodes = (
"267 179 LINE",
"252 128 OFFCURVE",
"216 91 OFFCURVE",
"177 91 CURVE SMOOTH",
"149 91 OFFCURVE",
"136 100 OFFCURVE",
"136 128 CURVE SMOOTH",
"136 138 OFFCURVE",
"137 149 OFFCURVE",
"140 160 CURVE",
"255 700 LINE",
"107 680 LINE",
"0 179 LINE SMOOTH",
"-5 154 OFFCURVE",
"-8 132 OFFCURVE",
"-8 114 CURVE SMOOTH",
"-8 30 OFFCURVE",
"39 -6 OFFCURVE",
"99 -6 CURVE SMOOTH",
"152 -6 OFFCURVE",
"253 16 OFFCURVE",
"309 179 CURVE"
);
}
);
width = 267;
}
);
unicode = 006C;
},
{
glyphname = l.end;
lastChange = "2016-04-09 11:26:51 +0000";
layers = (
{
hints = (
{
place = "{-10.000000, 144.000000}";
},
{
horizontal = 1;
place = "{-6.000000, 708.000000}";
},
{
horizontal = 1;
place = "{-6.000000, 99.000000}";
}
);
layerId = UUID0;
name = Regular;
paths = (
{
closed = 1;
nodes = (
"-2 181 LINE SMOOTH",
"-7 156 OFFCURVE",
"-10 134 OFFCURVE",
"-10 116 CURVE SMOOTH",
"-10 31 OFFCURVE",
"37 -6 OFFCURVE",
"97 -6 CURVE SMOOTH",
"150 -6 OFFCURVE",
"202 28 OFFCURVE",
"207 99 CURVE",
"200 96 OFFCURVE",
"194 93 OFFCURVE",
"175 93 CURVE SMOOTH",
"144 93 OFFCURVE",
"134 110 OFFCURVE",
"134 133 CURVE SMOOTH",
"134 142 OFFCURVE",
"135 151 OFFCURVE",
"138 162 CURVE",
"253 702 LINE",
"105 682 LINE"
);
}
);
width = 207;
}
);
},
{
glyphname = l_x;
lastChange = "2016-04-09 11:26:51 +0000";
layers = (
{
hints = (
{
place = "{-7.000000, 144.000000}";
},
{
place = "{557.000000, 59.000000}";
},
{
horizontal = 1;
place = "{-6.000000, 98.000000}";
},
{
horizontal = 1;
place = "{453.000000, 103.000000}";
}
);
layerId = UUID0;
name = Regular;
paths = (
{
closed = 1;
nodes = (
"631 179 LINE",
"616 128 OFFCURVE",
"580 91 OFFCURVE",
"541 91 CURVE SMOOTH",
"496 91 OFFCURVE",
"490 142 OFFCURVE",
"482 179 CURVE",
"473 229 LINE",
"572 333 OFFCURVE",
"616 402 OFFCURVE",
"616 467 CURVE SMOOTH",
"616 516 OFFCURVE",
"593 556 OFFCURVE",
"548 556 CURVE SMOOTH",
"517 556 OFFCURVE",
"492 540 OFFCURVE",
"492 509 CURVE SMOOTH",
"492 478 OFFCURVE",
"504 453 OFFCURVE",
"539 453 CURVE SMOOTH",
"544 453 OFFCURVE",
"549 454 OFFCURVE",
"556 455 CURVE",
"557 452 OFFCURVE",
"557 448 OFFCURVE",
"557 443 CURVE SMOOTH",
"557 407 OFFCURVE",
"522 348 OFFCURVE",
"462 284 CURVE",
"423 500 LINE",
"282 500 LINE",
"340 185 LINE",
"296 129 OFFCURVE",
"232 92 OFFCURVE",
"181 92 CURVE SMOOTH",
"154 92 OFFCURVE",
"137 103 OFFCURVE",
"137 128 CURVE SMOOTH",
"137 138 OFFCURVE",
"138 149 OFFCURVE",
"141 160 CURVE",
"255 700 LINE",
"107 680 LINE",
"1 179 LINE",
"-4 152 OFFCURVE",
"-7 130 OFFCURVE",
"-7 113 CURVE SMOOTH",
"-7 30 OFFCURVE",
"38 -6 OFFCURVE",
"99 -6 CURVE SMOOTH",
"191 -6 OFFCURVE",
"286 58 OFFCURVE",
"351 131 CURVE",
"374 34 OFFCURVE",
"403 -6 OFFCURVE",
"467 -6 CURVE SMOOTH",
"521 -6 OFFCURVE",
"617 16 OFFCURVE",
"673 179 CURVE"
);
}
);
width = 631;
}
);
},
{
glyphname = less;
lastChange = "2016-04-09 11:26:51 +0000";
layers = (
{
hints = (
{
place = "{20.000000, 316.000000}";
},
{
horizontal = 1;
place = "{101.000000, 328.000000}";
}
);
layerId = UUID0;
name = Regular;
paths = (
{
closed = 1;
nodes = (
"267 101 LINE",
"279 158 LINE",
"85 254 LINE",
"326 374 LINE",
"336 429 LINE",
"29 279 LINE",
"20 238 LINE"
);
}
);
width = 359;
}
);
unicode = 003C;
},
{
glyphname = logicalnot;
lastChange = "2016-04-09 11:26:51 +0000";
layers = (
{
hints = (
{
place = "{19.000000, 380.000000}";
},
{
horizontal = 1;
place = "{222.000000, 79.000000}";
}
);
layerId = UUID0;
name = Regular;
paths = (
{
closed = 1;
nodes = (
"348 51 LINE",
"399 301 LINE",
"37 301 LINE",
"19 222 LINE",
"270 222 LINE",
"235 51 LINE"
);
}
);
width = 444;
}
);
unicode = 00AC;
},
{
glyphname = lslash;
lastChange = "2016-04-09 11:26:51 +0000";
layers = (
{
hints = (
{
place = "{-34.000000, 57.000000}";
},
{
place = "{-8.000000, 144.000000}";
},
{
horizontal = 1;
place = "{-6.000000, 97.000000}";
}
);
layerId = UUID0;
name = Regular;
paths = (
{
closed = 1;
nodes = (
"267 179 LINE",
"252 128 OFFCURVE",
"216 91 OFFCURVE",
"177 91 CURVE SMOOTH",
"149 91 OFFCURVE",
"136 100 OFFCURVE",
"136 128 CURVE SMOOTH",
"136 138 OFFCURVE",
"137 149 OFFCURVE",
"140 160 CURVE",
"190 395 LINE",
"226 418 OFFCURVE",
"272 446 OFFCURVE",
"319 473 CURVE",
"323 534 LINE",
"205 463 LINE",
"255 700 LINE",
"107 680 LINE",
"37 350 LINE",
"-34 307 LINE",
"-34 249 LINE",
"23 286 LINE",
"0 179 LINE SMOOTH",
"-5 154 OFFCURVE",
"-8 132 OFFCURVE",
"-8 115 CURVE SMOOTH",
"-8 30 OFFCURVE",
"39 -6 OFFCURVE",
"99 -6 CURVE SMOOTH",
"152 -6 OFFCURVE",
"253 16 OFFCURVE",
"309 179 CURVE"
);
}
);
width = 286;
}
);
unicode = 0142;
},
